<?xml version="1.0" encoding="UTF-8"?>
<svg width="215px" height="161px" viewBox="0 0 215 161" version="1.1" xmlns="http://www.w3.org/2000/svg" xmlns:xlink="http://www.w3.org/1999/xlink">
    <!-- Generator: Sketch 52.4 (67378) - http://www.bohemiancoding.com/sketch -->
    <title>ic_artist</title>
    <desc>Created with Sketch.</desc>
    <defs>
        <rect id="path-1" x="0" y="0" width="215" height="161"></rect>
        <filter x="-32.0%" y="-19.8%" width="164.0%" height="139.5%" filterUnits="objectBoundingBox" id="filter-3">
            <feOffset dx="0" dy="3" in="SourceAlpha" result="shadowOffsetOuter1"></feOffset>
            <feGaussianBlur stdDeviation="2.5" in="shadowOffsetOuter1" result="shadowBlurOuter1"></feGaussianBlur>
            <feColorMatrix values="0 0 0 0 0   0 0 0 0 0   0 0 0 0 0.145098039  0 0 0 0.04 0" type="matrix" in="shadowBlurOuter1" result="shadowMatrixOuter1"></feColorMatrix>
            <feMerge>
                <feMergeNode in="shadowMatrixOuter1"></feMergeNode>
                <feMergeNode in="SourceGraphic"></feMergeNode>
            </feMerge>
        </filter>
        <linearGradient x1="50%" y1="0%" x2="50%" y2="100%" id="linearGradient-4">
            <stop stop-color="#FFFFFF" offset="0%"></stop>
            <stop stop-color="#E9F0FB" offset="100%"></stop>
        </linearGradient>
        <path d="M43.6879433,63.9935531 C36.4066194,69.3003524 29.1252955,73.5457919 21.8439716,73.5457919 C14.5626478,73.5457919 7.28132388,69.3003524 -1.45519152e-11,63.9935531 C6.0017912,62.1630262 9.04607202,59.4304683 9.13284245,55.7958793 C9.1310654,55.1479313 9.1280479,54.2278832 9.12378993,52.4999863 C9.12311388,52.2256417 9.12240656,51.9445568 9.12166796,51.6571081 C9.10971491,47.0240888 9.09024223,40.9123257 9.06302264,34.7016414 C3.37085358,27.3079346 5.46181274,18.6395778 7.24573181,18.8557563 C9.43433975,19.1209757 28.3802056,1.10401824 32.0142778,0.182156922 C35.6483501,-0.739704391 44.8794326,2.23877109 46.4680851,10.5472637 C48.0567376,18.8557563 48.7207818,39.7980732 42.6950355,48.159204 C40.9803089,50.5385031 38.2799462,51.4691201 34.5939474,50.9510551 C34.5889629,52.68989 34.5785453,53.6657808 34.5531915,55.6353441 C34.6002715,59.4360372 37.6451888,62.1648918 43.6879433,63.9935531 Z" id="path-5"></path>
        <linearGradient x1="50%" y1="0%" x2="50%" y2="100%" id="linearGradient-7">
            <stop stop-color="#1D0024" offset="0%"></stop>
            <stop stop-color="#100014" offset="100%"></stop>
        </linearGradient>
        <linearGradient x1="50%" y1="100%" x2="50%" y2="1.55121026%" id="linearGradient-8">
            <stop stop-color="#222223" offset="0%"></stop>
            <stop stop-color="#4F4643" offset="100%"></stop>
        </linearGradient>
        <path d="M90,20.9609004 C92.5387277,26.1320311 94.5387277,34.6807676 96,46.6071098 L0,46.6071098 C1.46197111,34.6794312 3.46197111,26.1306947 6,20.9609004 C7.6864505,17.525714 16.3531172,12.5021417 32,5.89018352 C32.3115797,2.86776057 32.8449131,1.13994204 33.6,0.706727929 C34.7326304,0.0569067671 61.050779,0.0569769111 62.4,0.706727929 C63.2994807,1.13989527 63.832814,2.86681099 64,5.88747508 C79.6502228,12.5080997 88.3168894,17.5325748 90,20.9609004 Z" id="path-9"></path>
    </defs>
    <g id="Page-1" stroke="none" stroke-width="1" fill="none" fill-rule="evenodd">
        <g id="3" transform="translate(-93.000000, -243.000000)">
            <g id="ic_artist" transform="translate(93.000000, 243.000000)">
                <g id="Group" stroke-width="1" fill-rule="evenodd">
                    <mask id="mask-2" fill="white">
                        <use xlink:href="#path-1"></use>
                    </mask>
                    <use id="Rectangle" fill="#FFC800" fill-rule="nonzero" xlink:href="#path-1"></use>
                </g>
                <g id="easel" stroke-width="1" fill-rule="evenodd" transform="translate(127.000000, 33.000000)">
                    <rect id="Rectangle" fill="#E09B2D" x="27.0819745" y="0.615179688" width="8.83625159" height="10.5868828"></rect>
                    <polygon id="Path" fill="#F5A623" points="55.2540096 70.1008867 53.7506369 64.8367305 60.0608694 64.8367305 60.0608694 57.8176562 55.0018089 57.8176562 55.0018089 2.01907422 43.6915032 2.01907422 35.9180255 2.01907422 27.0819745 2.01907422 19.3060892 2.01907422 7.99578344 2.01907422 7.99578344 57.8176562 2.93672293 57.8176562 2.93672293 64.8367305 9.24695541 64.8367305 7.7435828 70.1008867 0.059589172 97 7.12622293 97 14.8126242 70.1008867 16.3159968 64.8367305 46.6817962 64.8367305 48.1851688 70.1008867 55.8713694 97 62.9404108 97"></polygon>
                    <g id="Group" transform="translate(2.808917, 57.753906)" fill="#E09B2D">
                        <polygon id="Path" points="6.43803822 7.08282422 13.506879 7.08282422 12.003707 12.3469805 4.93466561 12.3469805"></polygon>
                        <polygon id="Path" points="52.4450924 12.3469805 45.3762516 12.3469805 43.872879 7.08282422 50.9417197 7.08282422"></polygon>
                        <polygon id="Path" points="3.0071465 0.06375 3.0071465 7.08282422 2.68913694 7.08282422 2.33280573 7.08282422 0.802146497 7.08282422 0.445815287 7.08282422 0.127805732 7.08282422 0.127805732 0.06375 0.382815287 0.06375 2.75233758 0.06375"></polygon>
                    </g>
                    <rect id="Rectangle" fill="#E09B2D" x="7.99578344" y="55.6557344" width="47.0062261" height="2.16192187"></rect>
                </g>
                <rect id="Rectangle" fill="#E97424" fill-rule="nonzero" x="17" y="24" width="9" height="9"></rect>
                <rect id="Rectangle" fill="#E97424" fill-rule="nonzero" x="17" y="44" width="9" height="9"></rect>
                <rect id="Rectangle" fill="#E97424" fill-rule="nonzero" x="17" y="64" width="9" height="9"></rect>
                <g id="photo-copy" stroke-width="1" fill-rule="evenodd" transform="translate(127.000000, 37.000000)">
                    <path d="M1.09963324,0 L64.9003668,0 C65.5071693,0 66,0.608348811 66,1.35955279 L66,66.640447 C66,67.3906792 65.5071693,68 64.9003668,68 L1.09963324,68 C0.492830652,68 0,67.3906792 0,66.640447 L0,1.35955279 C0,0.608348811 0.492830652,0 1.09963324,0 Z" id="Path" fill="#F5A623"></path>
                    <polygon id="Path" fill="#FFC800" points="7 8 58 8 58 61 7 61"></polygon>
                    <path d="M23,23.0000001 C23,25.2096236 21.2088842,27 18.9995237,27 C16.7911158,27 15,25.2096236 15,23.0000001 C15,20.7903764 16.7911158,19 18.9995237,19 C21.2088842,19 23,20.7903764 23,23.0000001 Z" id="Path" fill="#F5A623"></path>
                    <polygon id="Path" fill="#E97424" points="42 43 45 43 45 47 42 47"></polygon>
                    <polygon id="Path" fill="#E97424" points="17 48 20 48 20 52 17 52"></polygon>
                </g>
                <g id="User-02b" stroke-width="1" fill-rule="evenodd" transform="translate(17.000000, 52.000000)">
                    <g id="Group-10" transform="translate(49.000000, 40.500000) scale(-1, 1) translate(-49.000000, -40.500000) translate(24.000000, 0.000000)">
                        <g id="Group-11">
                            <g transform="translate(25.000000, 40.500000) scale(-1, 1) translate(-25.000000, -40.500000) " id="Group-2">
                                <g>
                                    <g id="Group-14" filter="url(#filter-3)">
                                        <g id="Path-48" transform="translate(1.985816, 6.368159)">
                                            <mask id="mask-6" fill="white">
                                                <use xlink:href="#path-5"></use>
                                            </mask>
                                            <use id="Combined-Shape" fill="url(#linearGradient-4)" xlink:href="#path-5"></use>
                                            <path d="M34.5531915,50.9452736 C28.7281324,50.2819237 23.9621749,48.6898839 20.2553191,46.1691542 C24.4917258,51.4759536 29.2576832,54.6600332 34.5531915,55.721393 L34.5531915,50.9452736 Z" fill="#C1C4CB" fill-rule="nonzero" mask="url(#mask-6)"></path>
                                        </g>
                                        <path d="M8.14184397,41.1940299 C5.40546121,34.5988074 -5.56028369,21.1675421 3.89171394,12.8093332 C7.0690189,-2.71305488 24.6241135,-0.995024876 36.3404255,2.58706468 C40.7138253,3.92416713 41.0461466,3.33820016 43.4107369,4 C45.3037178,4.52980617 46.9094363,6.28179837 47.5188576,8.4096036 C48.7826575,12.8221841 49.2776839,14.7324109 46.1175937,12.8093332 C43.4223874,11.1691612 36.984035,11.8030911 31.5072357,14.0597916 C28.5210286,15.2902503 25.171475,17.9369864 21.4585748,22 L24,26.2173913 L20.4737708,30.975802 C18.1566549,26.6923518 15.2098537,25.315306 11.6333672,26.8446644 C6.26863748,29.1387022 9.45199763,39.7758855 15.2108629,39.7758855 C17.1966785,39.7758855 18.1895863,45.2471441 12.8278842,47.8342088 C8.93617021,49.7512438 9.91985317,45.4793829 8.14184397,41.1940299 Z" id="Path-22" fill="url(#linearGradient-7)" fill-rule="nonzero"></path>
                                    </g>
                                </g>
                            </g>
                        </g>
                    </g>
                    <g id="Group-2" transform="translate(0.000000, 62.115523)">
                        <mask id="mask-10" fill="white">
                            <use xlink:href="#path-9"></use>
                        </mask>
                        <use id="Combined-Shape" fill="url(#linearGradient-8)" xlink:href="#path-9"></use>
                        <path d="M-6.4,14.0252708 L101.2,14.0252708 L101.2,17.2310469 L-6.4,17.2310469 L-6.4,14.0252708 Z M-6.4,22.0397112 L101.2,22.0397112 L101.2,25.2454874 L-6.4,25.2454874 L-6.4,22.0397112 Z M-6.4,30.0541516 L101.2,30.0541516 L101.2,33.2599278 L-6.4,33.2599278 L-6.4,30.0541516 Z M-6.4,38.0685921 L101.2,38.0685921 L101.2,41.2743682 L-6.4,41.2743682 L-6.4,38.0685921 Z" id="Combined-Shape" fill="#C1C4CB" fill-rule="nonzero" mask="url(#mask-10)"></path>
                    </g>
                    <path d="M53.739411,42.216946 C52.4482728,41.8011952 49.0991225,39.7605113 48.9865786,39.7981264 C48.8427794,39.8461877 50.1105392,40.8069484 52.789858,42.6804083 L52.789858,42.6804083 C53.287829,43.0286046 53.835803,43.2991375 54.4150286,43.4827497 C54.6470429,43.5562972 54.8554192,43.6183473 55.0401575,43.6688998 C57.1125627,44.2360008 59.9604926,44.7814846 60.6765476,45 C61.9150214,45.3779397 63.0015426,44.6220603 63.4695564,44 C63.7815655,43.5852931 63.473507,43.3109259 62.5453807,43.1768984 C58.4558349,43.1104506 55.5205117,42.7904665 53.739411,42.216946 Z" id="Path-2" fill="#000000" fill-rule="nonzero"></path>
                    <path d="M71.739411,42.216946 C70.4482728,41.8011952 67.0991225,39.7605113 66.9865786,39.7981264 C66.8427794,39.8461877 68.1105392,40.8069484 70.789858,42.6804083 L70.789858,42.6804083 C71.287829,43.0286046 71.835803,43.2991375 72.4150286,43.4827497 C72.6470429,43.5562972 72.8554192,43.6183473 73.0401575,43.6688998 C75.1125627,44.2360008 77.9604926,44.7814846 78.6765476,45 C79.9150214,45.3779397 81.0015426,44.6220603 81.4695564,44 C81.7815655,43.5852931 81.473507,43.3109259 80.5453807,43.1768984 C76.4558349,43.1104506 73.5205117,42.7904665 71.739411,42.216946 Z" id="Path-2" fill="#000000" fill-rule="nonzero" transform="translate(74.281448, 42.449492) scale(-1, 1) translate(-74.281448, -42.449492) "></path>
                </g>
                <g id="palette" stroke-width="1" fill-rule="evenodd" transform="translate(5.000000, 123.000000)">
                    <path d="M33.9956219,2.80053804 C41.7727363,10.5850163 41.7727363,23.2076467 33.9956219,30.9933315 C26.2187065,38.7774076 13.6097512,38.7774076 5.83243781,30.9933315 C-1.9440796,23.2076467 -1.9440796,10.5850163 5.83243781,2.80053804 C9.5520398,-0.922788043 15.5822886,-0.922788043 19.3020896,2.80053804 L26.6491542,10.1554946 C27.3247761,10.8319511 28.4220896,10.8319511 29.0979104,10.1554946 C29.7743284,9.47783152 29.7743284,8.38110326 29.0979104,7.70384239 C27.7458706,6.34952174 27.7458706,4.15465761 29.0979104,2.80053804 C30.4497512,1.44722283 32.6431841,1.44722283 33.9956219,2.80053804 Z" id="path-5_163_" fill="#FBB713"></path>
                    <path d="M15.838607,1.93405435 L23.1856716,9.2886087 C23.8612935,9.9652663 26.6905473,11.699038 27.3661692,11.0219783 C27.3916418,10.9968424 27.4095522,10.9668804 27.4330348,10.9399348 L19.3020896,2.80053804 C17.5795025,1.07621739 15.360995,0.160869565 13.1062687,0.0337826087 C14.0943284,0.491858696 15.0238806,1.11824457 15.838607,1.93405435 Z" id="path-6_161_" fill="#F5A623" opacity="0.35"></path>
                    <path d="M33.9956219,2.80053804 C33.0610945,1.86528261 31.7289552,1.59220652 30.5462687,1.94933696 C38.3082587,9.73502174 38.3042786,22.345788 30.5323383,30.1266467 C25.8567164,34.8061413 19.4376119,36.650913 13.3691542,35.7039946 C20.3546269,38.1333261 28.4157214,36.5781196 33.9956219,30.9933315 C41.7727363,23.2076467 41.7727363,10.5850163 33.9956219,2.80053804 Z" id="path-7_160_" fill="#F5A623" opacity="0.35"></path>
                    <path d="M10.7307463,23.638375 C11.7444776,22.6234891 13.3900498,22.6234891 14.4037811,23.638375 C15.4185075,24.6532609 15.4185075,26.3003641 14.4037811,27.3150489 C13.3900498,28.3307391 11.7444776,28.3307391 10.7307463,27.3150489 C9.71681592,26.3003641 9.71681592,24.6532609 10.7307463,23.638375 Z" id="path-9_150_" fill="#E97424"></path>
                    <path d="M9.01671642,15.6709076 C9.69333333,16.3481685 9.69333333,17.4450978 9.01671642,18.1223587 C8.34029851,18.7994185 7.24437811,18.7994185 6.5679602,18.1223587 C5.89114428,17.4450978 5.89114428,16.3481685 6.5679602,15.6709076 C7.24437811,14.9944511 8.34029851,14.9944511 9.01671642,15.6709076 Z" id="path-11_119_" fill="#E97424"></path>
                    <path d="M15.0159204,5.86550543 C16.3683582,7.21781522 16.3683582,9.41428804 15.0159204,10.7682065 C13.6652736,12.1211196 11.4704478,12.1211196 10.118607,10.7682065 C8.76636816,9.41428804 8.76636816,7.21781522 10.118607,5.86550543 C11.4704478,4.51178804 13.6652736,4.51178804 15.0159204,5.86550543 Z" id="path-14_68_" fill="#E97424"></path>
                    <path d="M21.1397015,29.1545924 C20.1257711,28.1401087 20.1247761,26.4934076 21.1397015,25.4777174 C22.1532338,24.4626304 23.798806,24.4626304 24.8125373,25.4777174 C25.8276617,26.4934076 25.8276617,28.1401087 24.8125373,29.1545924 C23.7978109,30.1700815 22.1542289,30.1700815 21.1397015,29.1545924 Z" id="path-15_57_" fill="#E97424"></path>
                </g>
                <g id="clock" stroke-width="1" fill-rule="evenodd" transform="translate(140.000000, 61.000000)" fill="#E97424">
                    <circle id="Oval" cx="11" cy="10.9556333" r="1"></circle>
                    <path d="M11,0 C4.9346,0 0,4.9346 0,11 C0,17.0654 4.9346,22 11,22 C17.0654,22 22,17.0654 22,11 C22,4.9346 17.0654,0 11,0 Z M10.6333333,2.88896667 C10.6333333,2.6862 10.7976,2.5223 11,2.5223 C11.2024,2.5223 11.3666667,2.6862 11.3666667,2.88896667 L11.3666667,3.25563333 C11.3666667,3.4584 11.2024,3.6223 11,3.6223 C10.7976,3.6223 10.6333333,3.4584 10.6333333,3.25563333 L10.6333333,2.88896667 Z M3.3,11.3223 L2.93333333,11.3223 C2.73093333,11.3223 2.56666667,11.1584 2.56666667,10.9556333 C2.56666667,10.7528667 2.73093333,10.5889667 2.93333333,10.5889667 L3.3,10.5889667 C3.5024,10.5889667 3.66666667,10.7528667 3.66666667,10.9556333 C3.66666667,11.1584 3.5024,11.3223 3.3,11.3223 Z M5.8146,16.6598667 L5.55536667,16.9191 C5.48386667,16.9906 5.39,17.0265333 5.29613333,17.0265333 C5.20226667,17.0265333 5.1084,16.9906 5.0369,16.9191 C4.89353333,16.7757333 4.89353333,16.544 5.0369,16.4006333 L5.29613333,16.1414 C5.4395,15.9980333 5.67123333,15.9980333 5.8146,16.1414 C5.95796667,16.2847667 5.95796667,16.5165 5.8146,16.6598667 Z M5.8146,5.76986667 C5.7431,5.84136667 5.64923333,5.8773 5.55536667,5.8773 C5.4615,5.8773 5.36763333,5.84136667 5.29613333,5.76986667 L5.0369,5.51063333 C4.89353333,5.36726667 4.89353333,5.13553333 5.0369,4.99216667 C5.18026667,4.8488 5.412,4.8488 5.55536667,4.99216667 L5.8146,5.2514 C5.95796667,5.39476667 5.95796667,5.62686667 5.8146,5.76986667 Z M11.3666667,19.0223 C11.3666667,19.2250667 11.2024,19.3889667 11,19.3889667 C10.7976,19.3889667 10.6333333,19.2250667 10.6333333,19.0223 L10.6333333,18.6556333 C10.6333333,18.4528667 10.7976,18.2889667 11,18.2889667 C11.2024,18.2889667 11.3666667,18.4528667 11.3666667,18.6556333 L11.3666667,19.0223 Z M11,12.4223 C10.3187333,12.4223 9.7493,11.9529667 9.5854,11.3223 L6.96666667,11.3223 C6.76426667,11.3223 6.6,11.1584 6.6,10.9556333 C6.6,10.7528667 6.76426667,10.5889667 6.96666667,10.5889667 L9.5854,10.5889667 C9.71886667,10.076 10.1203667,9.6745 10.6333333,9.54103333 L10.6333333,5.8223 C10.6333333,5.61953333 10.7976,5.45563333 11,5.45563333 C11.2024,5.45563333 11.3666667,5.61953333 11.3666667,5.8223 L11.3666667,9.54103333 C11.9973333,9.70493333 12.4666667,10.274 12.4666667,10.9556333 C12.4666667,11.7645 11.8088667,12.4223 11,12.4223 Z M16.9631,16.9191 C16.8916,16.9906 16.7977333,17.0265333 16.7038667,17.0265333 C16.61,17.0265333 16.5161333,16.9906 16.4446333,16.9191 L16.1854,16.6598667 C16.0420333,16.5165 16.0420333,16.2847667 16.1854,16.1414 C16.3287667,15.9980333 16.5605,15.9980333 16.7038667,16.1414 L16.9631,16.4006333 C17.1064667,16.5436333 17.1064667,16.7757333 16.9631,16.9191 Z M16.9631,5.51063333 L16.7038667,5.76986667 C16.6323667,5.84136667 16.5385,5.8773 16.4446333,5.8773 C16.3507667,5.8773 16.2569,5.84136667 16.1854,5.76986667 C16.0420333,5.6265 16.0420333,5.39476667 16.1854,5.2514 L16.4446333,4.99216667 C16.588,4.8488 16.8197333,4.8488 16.9631,4.99216667 C17.1064667,5.13553333 17.1064667,5.36763333 16.9631,5.51063333 Z M19.0666667,11.3223 L18.7,11.3223 C18.4976,11.3223 18.3333333,11.1584 18.3333333,10.9556333 C18.3333333,10.7528667 18.4976,10.5889667 18.7,10.5889667 L19.0666667,10.5889667 C19.2690667,10.5889667 19.4333333,10.7528667 19.4333333,10.9556333 C19.4333333,11.1584 19.2690667,11.3223 19.0666667,11.3223 Z" id="Shape" fill-rule="nonzero"></path>
                </g>
                <rect id="Rectangle" fill="#F5A623" fill-rule="evenodd" x="154.081975" y="28" width="8.83625159" height="10.5868828"></rect>
                <g id="Group" stroke-width="1" fill-rule="evenodd" transform="translate(144.455414, 32.980469)" fill="#E97424">
                    <rect id="Rectangle" x="0.0834649682" y="0.162164063" width="3.53442038" height="11.2303594"></rect>
                    <rect id="Rectangle" x="24.468879" y="0.162164063" width="3.53442038" height="11.2303594"></rect>
                </g>
            </g>
        </g>
    </g>
</svg>