<?xml version="1.0" encoding="UTF-8"?>
<svg width="168px" height="149px" viewBox="0 0 168 149" version="1.1" xmlns="http://www.w3.org/2000/svg" xmlns:xlink="http://www.w3.org/1999/xlink">
    <!-- Generator: Sketch 52.5 (67469) - http://www.bohemiancoding.com/sketch -->
    <title>Group 19</title>
    <desc>Created with Sketch.</desc>
    <defs>
        <path d="M2,0 L166,0 C167.104569,-2.02906125e-16 168,0.8954305 168,2 L168,149 L0,149 L0,2 C-1.3527075e-16,0.8954305 0.8954305,2.02906125e-16 2,0 Z" id="path-1"></path>
    </defs>
    <g id="Artist-profile" stroke="none" stroke-width="1" fill="none" fill-rule="evenodd">
        <g id="Greate-work" transform="translate(-260.000000, -285.000000)">
            <g id="Group-10" transform="translate(260.000000, 285.000000)">
                <g id="Group-19">
                    <mask id="mask-2" fill="white">
                        <use xlink:href="#path-1"></use>
                    </mask>
                    <use id="Rectangle" fill="#FFC800" fill-rule="nonzero" xlink:href="#path-1"></use>
                    <g id="picasso-(1)" mask="url(#mask-2)">
                        <g transform="translate(90.000000, 115.000000)">
                            <path d="M41.9953013,1.19959262 C41.9882532,0.889480641 41.8653043,0.607383703 41.6691341,0.396102855 C41.4420309,0.15291593 41.1178215,0 40.7571971,0 L1.23927876,0 C0.878654535,0 0.553662043,0.15291593 0.327341885,0.397270178 C0.1237321,0.615554859 2.84217094e-14,0.909324621 2.84217094e-14,1.23149869 L2.84217094e-14,49.7685013 C2.84217094e-14,50.0906754 0.1237321,50.3844451 0.327341885,50.6027298 C0.553270411,50.8470841 0.878654535,51 1.23927876,51 L40.7571971,51 C41.1174298,51 41.4420309,50.8470841 41.6691341,50.6038971 C41.8653043,50.3926163 41.9882532,50.1101303 41.9953013,49.8004074 C41.996476,49.7902909 41.996476,49.779007 41.996476,49.7685013 L41.996476,1.23149869 C41.996476,1.22099299 41.996476,1.20970914 41.9953013,1.19959262 Z" id="Path" stroke="none" fill="#FFC800" fill-rule="evenodd"></path>
                            <path d="M30.7168854,8.58158114 C30.6902595,9.50102229 30.6632421,10.4185181 30.6373993,11.3379593 C30.6354415,11.4118881 30.6334838,11.4865951 30.6311344,11.560524 C30.6107734,11.5484619 30.5900209,11.5371781 30.5680937,11.5266724 C30.1264171,9.48273471 28.9337336,7.60688787 27.2649165,6.33531184 C26.4355981,5.70341487 25.4927282,5.2232666 24.4962149,4.91315463 L20.6953685,4.91315463 C20.6425082,4.96646118 20.5900395,5.01782227 20.5363962,5.06607056 C18.597013,6.81662753 16.194026,7.9566879 13.9601917,9.3173675 C13.2354191,9.75860596 12.5321823,10.253151 11.8704505,10.7982788 L11.880631,10.8103409 L14.9786322,21.7802124 C14.9786322,23.093811 12.1531549,25.8396835 12.6445592,26.9735184 C12.817236,27.3739014 13.0184964,27.7594986 13.2436419,28.1291427 C13.3415312,28.2890625 13.4449023,28.4462585 13.552189,28.5999527 C14.3133764,29.6917648 15.3028415,30.6143188 16.4508876,31.3010788 C15.9128878,34.222435 13.1735531,36.4593659 10.2016334,36.9488525 C7.33073533,37.4219971 4.40541097,35.3706665 4.04478664,33.2773132 L4.04478664,33.0473556 C6.20305037,31.7617721 7.70858818,29.4804841 8.01556909,26.9991989 C7.47756934,26.6248856 6.99008055,26.1918182 6.5758129,25.7112808 C5.13331598,24.0346527 4.381526,21.8202896 4.381526,19.6129303 C4.381526,19.3070984 4.3960136,19.0012664 4.42498879,18.6966019 C4.66462184,16.1958618 5.85495597,13.8211899 7.61383127,12.0173263 L7.74696074,11.9659652 C7.11185489,10.3189087 6.89806456,8.50881958 7.15923329,6.76254272 C7.25320704,6.13336947 7.40943842,5.5135345 7.62087935,4.91315463 C8.24345537,3.14625554 9.35156253,1.54744718 10.8065894,0.356025721 L10.8065894,-2.84217094e-14 L25.4527894,-2.84217094e-14 L25.4527894,0.0350188711 C27.2093153,0.151748707 28.8800902,1.17624667 29.7720578,2.68361661 C30.1781026,3.36570735 30.4259584,4.1302872 30.5673105,4.91315463 C30.6064663,5.12677002 30.6373993,5.34116366 30.662459,5.55672452 C30.7748359,6.55904386 30.7458606,7.57303622 30.7168854,8.58158114 Z" id="Path" stroke="none" fill="#E97424" fill-rule="evenodd"></path>
                            <path d="M35.3020212,34.2737961 C34.8959763,35.8049011 34.0721397,37.3317261 32.9072568,38.4297638 C31.8230347,39.4527054 30.4412291,40.1032791 28.8252722,40.039856 C25.0044563,39.8888855 23.0321823,35.8827209 22.7326409,32.5489197 L22.7326409,32.5477524 C19.9310487,28.6166839 19.2015774,26.8046493 20.6949769,25.7805404 C23.6484934,23.7556686 26.9818205,28.0941239 26.9818205,27.4703979 L26.9818205,27.1182633 C28.3264283,26.4595184 29.6193504,28.64431 30.4741199,29.3050003 C31.5097889,30.1053772 33.1124329,30.3979797 34.1422285,29.4139481 C34.2522561,29.3085022 34.350537,29.1917725 34.4382458,29.0676498 C34.6363738,28.7886658 35.0659122,28.8513107 35.1837709,29.1723176 C35.7769802,30.7816315 35.745264,32.6045609 35.3020212,34.2737961 Z" id="Path" stroke="none" fill="#E97424" fill-rule="evenodd"></path>
                            <path d="M37.9505146,43.2495346 L37.9505146,46.0868454 L4.04478664,46.0868454 L4.04478664,43.7705383 C4.04478664,43.7705383 7.36480084,40.2600861 10.1280205,40.1565857 L16.6266968,34.2905273 L22.0944026,32.6851043 L21.7858555,32.6337433 C21.8880519,32.6337433 21.9902483,32.6306305 22.090487,32.624405 C22.3081928,32.6119538 22.5231578,32.5862732 22.7326409,32.5473633 C23.0321823,35.8823319 25.0044563,39.8884964 28.8252722,40.0394669 C30.4412291,40.10289 31.8230347,39.4523162 32.9072568,38.4293747 L32.9640327,38.4877396 L37.9505146,43.2495346 Z" id="Path" stroke="none" fill="#E97424" fill-rule="evenodd"></path>
                            <path d="M20.6949769,4.91315463 C20.6425082,4.96646118 20.589648,5.01782227 20.5360046,5.06607056 C18.597013,6.81662753 20.842594,13.2752839 18.6091513,14.6359635 C17.8839871,15.0772018 12.5321823,10.253151 11.8700589,10.7982788 C10.7435487,11.7247238 9.73568019,12.7939682 8.94355979,13.986557 L8.77205775,13.9464798 C8.35818163,13.3266448 8.01439439,12.6608963 7.74656921,11.9659652 C7.11146326,10.3189087 6.89806456,8.50881958 7.15923329,6.76254272 C7.25320704,6.13336947 7.40904679,5.5135345 7.62087935,4.91315463 C8.24345537,3.14625554 9.35156253,1.54744718 10.8065894,0.356025721 L10.8065894,0 L21.8586851,0 L21.8586851,0.290267895 C22.4992728,1.77429199 21.7412179,3.84313199 20.6949769,4.91315463 Z" id="Path" stroke="none" fill="#E97424" fill-rule="evenodd"></path>
                            <path d="M13.552189,28.5999527 C11.665666,28.7260208 9.61703831,28.1147461 8.01635215,26.9980316 C7.47756934,26.6244964 6.99008055,26.1918182 6.5758129,25.7112808 C5.13331598,24.0346527 4.381526,21.8202896 4.381526,19.6129303 C4.381526,19.3070984 4.3960136,19.0012664 4.42498879,18.6966019 C4.66462184,16.1958618 5.85495597,13.8211899 7.61383127,12.0173263 L7.74696074,11.9659652 C8.01439439,12.6605072 8.35818163,13.3266448 8.77244928,13.9464798 L8.94395132,13.986557 C7.70467256,15.8511199 6.99321301,18.0160676 7.17489558,20.4039688 C7.39769165,23.3276596 9.78736575,26.2427902 12.6445592,26.9735184 C12.817236,27.3735123 17.2042437,27.1295471 15.3185038,27.9797287 C15.1470018,28.0575485 13.4449023,28.4462585 13.552189,28.5999527 Z" id="Path" stroke="none" fill="#E97424" fill-rule="evenodd"></path>
                            <path d="M16.4508876,31.3006897 C15.9128878,34.222435 13.1735531,36.4593659 10.2016334,36.9488525 C7.33073533,37.4219971 4.40541097,35.3706665 4.04478664,33.2773132 L4.04478664,33.0473556 C6.20305037,31.7617721 7.70858818,29.4804841 8.01556909,26.9991989 L8.01635215,26.9980316 C9.61703831,28.1147461 11.665666,28.7260208 13.5525805,28.5999527 C13.8897113,29.083992 16.6188656,26.9867477 17.0397897,27.3984146 C17.568392,27.9155273 15.8114745,30.9185944 16.4508876,31.3006897 Z" id="Path" stroke="none" fill="#E97424" fill-rule="evenodd"></path>
                            <path d="M30.5673105,4.91315463 L20.6953685,4.91315463 C21.7412179,3.84313199 22.4992728,1.77429199 21.8590766,0.290267895 L21.8590766,0 L25.4527894,0 L25.4527894,0.0350188711 C27.2093153,0.151748707 28.8800902,1.17624667 29.7720578,2.68361661 C30.1777111,3.36570735 30.4255668,4.1302872 30.5673105,4.91315463 Z" id="Path" stroke="none" fill="#8CB4EB" fill-rule="evenodd"></path>
                            <path d="M30.2305714,23.5953598 L27.1603706,23.5653992 C27.0628729,23.5642318 26.9829952,23.6420517 26.9818205,23.7389373 L26.9818205,27.4700089 C26.9818205,28.0941239 26.8702267,28.6921692 26.6670085,29.2454681 C26.0432578,30.9388275 24.5541654,32.2150726 22.7326409,32.5477524 C22.5227662,32.5866623 22.3081928,32.6123429 22.0900955,32.624405 L22.0944026,32.6851043 L22.3414752,38.9589386 C22.3759322,39.8305207 21.6578162,40.5480194 20.7807279,40.5180588 L10.1280205,40.1565857 L17.759472,31.9516525 L17.7602551,31.949318 C17.304874,31.7676086 16.8671129,31.5493241 16.4508876,31.3010788 C15.30245,30.6143188 14.3133764,29.6917648 13.552189,28.5999527 C13.4449023,28.4462585 13.3415312,28.2890625 13.2436419,28.1291427 C13.0184964,27.7594986 12.817236,27.3739014 12.6445592,26.9735184 C12.1531549,25.8396835 11.880631,24.5898971 11.880631,23.2762985 L11.880631,10.8103409 L11.8700589,10.7982788 C12.5321823,10.253151 13.2354191,9.75860596 13.9601917,9.3173675 C16.1936344,7.9566879 18.5966215,6.81662753 20.5360046,5.06607056 C20.589648,5.01782227 20.6425082,4.96646118 20.6949769,4.91315463 L24.4962149,4.91315463 C25.4927282,5.2232666 26.4355981,5.70341487 27.2645249,6.33531184 C28.933342,7.60688787 30.1260255,9.48273471 30.5680937,11.5266724 C30.5896294,11.5371781 30.6103819,11.5484619 30.6311344,11.560524 C30.6330921,11.4865951 30.63505,11.4118881 30.6373993,11.3379593 L30.6980907,14.4246826 L30.864111,22.9591828 C30.871159,23.3109284 30.5845391,23.5988616 30.2305714,23.5953598 Z" id="Path" stroke="none" fill="#FFC800" fill-rule="evenodd"></path>
                            <path d="M13.2264134,40.1565857 L20.8574732,31.9516525 L20.8586478,31.949318 C20.4032667,31.7676086 19.9651141,31.5493241 19.5492803,31.3010788 C18.4008427,30.6143188 17.4117691,29.6917648 16.6505817,28.5999527 C16.543295,28.4462585 16.4399239,28.2890625 16.3416431,28.1291427 C16.1164976,27.7594986 15.9152372,27.3739014 15.742952,26.9735184 C15.2511561,25.8396835 14.9786322,24.5898971 14.9786322,23.2762985 L14.9786322,12.3204346 C14.9786322,11.3492432 15.4481093,10.4364167 16.2414044,9.86872103 C16.5346808,9.65899658 16.8283487,9.45744319 17.0585845,9.3173675 C19.2920272,7.9566879 21.6950142,6.81662753 23.6343974,5.06607056 C23.6880407,5.01782227 23.7405094,4.96646118 23.7933697,4.91315463 L20.6953685,4.91315463 C20.6425082,4.96646118 20.5900395,5.01782227 20.5363962,5.06607056 C18.597013,6.81662753 16.194026,7.9566879 13.9601917,9.3173675 C13.2354191,9.75860596 12.5321823,10.253151 11.8704505,10.7982788 L11.880631,10.8103409 L11.880631,23.2762985 C11.880631,24.5898971 12.1531549,25.8396835 12.6449508,26.9735184 C12.817236,27.3739014 13.0184964,27.7594986 13.2436419,28.1291427 C13.3419227,28.2890625 13.4452938,28.4462585 13.5525805,28.5999527 C14.3133764,29.6917648 15.3028415,30.6143188 16.4512791,31.3010788 C16.8671129,31.5493241 17.3052655,31.7676086 17.7606467,31.949318 L17.759472,31.9516525 L10.1284122,40.1565857 L13.2264134,40.1565857 Z" id="Path" stroke="none" fill="#F5A623" fill-rule="evenodd"></path>
                            <path d="M13.5862544,15.2569657 L17.6502275,14.4355774 C17.6756787,14.4301301 17.7023045,14.4305191 17.7273642,14.4363556 L21.6257086,15.3196106 C21.7905542,15.3573532 21.8203125,15.5779724 21.6711291,15.6573486 L17.547248,17.8429184 C17.4908637,17.8724899 17.4231242,17.8713226 17.3683062,17.8390274 L13.5298702,15.5912018 C13.3857771,15.5067672 13.422192,15.2900391 13.5862544,15.2569657 Z" id="Path" stroke="#F5A623" stroke-width="1" fill="none" stroke-linejoin="bevel"></path>
                            <path d="M27.1548889,13.6091309 C27.193653,13.5912323 27.2375074,13.5869522 27.278621,13.5974578 L30.2117766,14.3429719 C30.3535203,14.379158 30.3973747,14.5581436 30.2877387,14.6546402 L27.8499031,16.8079147 C27.7939104,16.8577194 27.7124665,16.867836 27.6455101,16.8339844 L24.4472703,15.2110519 C24.3121831,15.1425705 24.3149239,14.9495773 24.451969,14.8849869 L27.1548889,13.6091309 Z" id="Path" stroke="#F5A623" stroke-width="1" fill="none"></path>
                            <path d="M16.6509733,28.0972367 L23.1935038,28.3092957 C23.4562388,28.3174667 23.5643086,27.9781723 23.3450365,27.8349838 L20.2654385,25.8229523 C20.1863439,25.7715911 20.0857137,25.7665329 20.0019205,25.810112 L16.5389879,27.6100846 C16.3020957,27.7330399 16.3839313,28.0886764 16.6509733,28.0972367 Z" id="Path" stroke="none" fill="#E97424" fill-rule="evenodd"></path>
                            <path d="M37.9505146,46.0868454 L4.04478664,46.0868454 L4.04478664,33.2773132 C4.03264844,33.2064972 4.02325107,33.1356812 4.01698615,33.0648651 C4.02638353,33.0598068 4.0357809,33.0535812 4.04478664,33.0473556 L4.04478664,4.91315463 L37.9505146,4.91315463 L37.9505146,46.0868454 Z M41.9953013,1.19959262 C41.9882532,0.889480641 41.8653043,0.607383703 41.6691341,0.396102855 C41.4420309,0.15291593 41.1178215,-2.84217094e-14 40.7571971,-2.84217094e-14 L1.23927876,-2.84217094e-14 C0.878654535,-2.84217094e-14 0.553662043,0.15291593 0.327341885,0.397270178 C0.1237321,0.615554859 2.84217094e-14,0.909324621 2.84217094e-14,1.23149869 L2.84217094e-14,49.7685013 C2.84217094e-14,50.0906754 0.1237321,50.3844451 0.327341885,50.6027298 C0.553270411,50.8470841 0.878654535,51 1.23927876,51 L40.7571971,51 C41.1174298,51 41.4420309,50.8470841 41.6691341,50.6038971 C41.8653043,50.3926163 41.9882532,50.1101303 41.9953013,49.8004074 C41.996476,49.7902909 41.996476,49.779007 41.996476,49.7685013 L41.996476,1.23149869 C41.996476,1.22099299 41.996476,1.20970914 41.9953013,1.19959262 Z" id="Shape" stroke="none" fill="#F5A623" fill-rule="nonzero"></path>
                            <path d="M4.04478664,4.91315463 L4.04478664,46.0868454 L0.327341885,50.6027298 C0.124123632,50.3844451 0,50.0906754 0,49.7685013 L0,1.23149869 C0,0.909324621 0.124123632,0.615554859 0.327341885,0.397270178 L4.04478664,4.91315463 Z" id="Path" stroke="none" fill="#F5A623" fill-rule="evenodd"></path>
                            <path d="M41.9953013,1.19959262 L41.9953013,49.8004074 C41.9882532,50.1101303 41.8653043,50.3922272 41.6691341,50.6038971 L37.9505146,46.0868454 L37.9505146,4.91315463 L41.6691341,0.396102855 C41.8653043,0.607383703 41.9882532,0.889480641 41.9953013,1.19959262 Z" id="Path" stroke="none" fill="#F5A623" fill-rule="evenodd"></path>
                            <g id="Group" stroke="none" stroke-width="1" fill="none" fill-rule="evenodd" transform="translate(13.231504, 10.160156)">
                                <path d="M1.08187279,2.88361361 C3.22369105,2.05327604 5.54210168,1.77429199 7.81470023,2.15794368 C8.7896778,2.32253263 9.20864414,0.839675953 8.22661839,0.673919678 C5.68149617,0.244354248 3.08077267,0.464973475 0.66995453,1.39920044 C0.281921241,1.54978182 0.00783114558,1.91631315 0.129213852,2.34626775 C0.232976606,2.71474454 0.688357747,3.03614047 1.08187279,2.88361361 Z" id="Path" fill="#E97424"></path>
                                <path d="M12.5486277,2.05872347 C13.9907332,1.43538663 15.5984673,1.29064176 17.0084651,2.06455989 C17.8816378,2.54393 18.6639692,1.21515658 17.790405,0.735397289 C15.8553289,-0.326843262 13.7366124,-0.122177074 11.7670794,0.729949951 C11.3806123,0.896873449 11.2999515,1.45250699 11.4890737,1.78285222 C11.7157853,2.178566 12.1676425,2.2237015 12.5486277,2.05872347 Z" id="Path" fill="#E97424"></path>
                                <path d="M4.39366421,6.52908325 C4.18927136,6.52908325 3.98996873,6.44620516 3.84509248,6.30340576 C3.70178257,6.15982821 3.61916396,5.96177668 3.61916396,5.75866699 C3.61916396,5.70925138 3.62425418,5.65827947 3.63365155,5.60886386 C3.64383199,5.55944824 3.65831968,5.51158903 3.6778975,5.4652863 C3.69747541,5.41781616 3.72136038,5.37384799 3.74916097,5.33182528 C3.77696157,5.28980258 3.80985228,5.25089266 3.84509248,5.21470637 C4.0248173,5.03649902 4.29225084,4.95439908 4.54441383,5.00459295 C4.59375,5.01470947 4.6423031,5.02910612 4.69007304,5.04856112 C4.73627685,5.06801603 4.78091433,5.09175115 4.82320262,5.11937711 C4.8654907,5.14700317 4.90464653,5.1796875 4.9406697,5.21470637 C4.9770846,5.25089266 5.00919225,5.28980258 5.03699284,5.33182528 C5.06479343,5.37384799 5.0886784,5.41781616 5.10825632,5.4652863 C5.12783413,5.51119995 5.14232172,5.55944824 5.15250226,5.60886386 C5.16307423,5.65789029 5.16698986,5.70925138 5.16698986,5.75866699 C5.16698986,5.96177668 5.08437125,6.15982821 4.9406697,6.30340576 C4.90464653,6.33842463 4.8654907,6.37110906 4.82320262,6.39873502 C4.78091433,6.42675016 4.73627685,6.45009611 4.69007304,6.46955111 C4.6423031,6.48900602 4.59375,6.50340266 4.54441383,6.51390836 C4.49468603,6.52402499 4.44417517,6.52908325 4.39366421,6.52908325 Z" id="Path" fill="#E97424"></path>
                                <path d="M14.2378057,5.53999334 C14.0334129,5.53999334 13.8341103,5.4578934 13.6904087,5.31431575 C13.6543854,5.27929687 13.6222778,5.23921964 13.5933025,5.19719694 C13.5655019,5.15634155 13.5416169,5.11120605 13.5220391,5.06490323 C13.5036359,5.01860041 13.4879736,4.96957397 13.4785762,4.92132568 C13.4683957,4.87113192 13.4633055,4.82093816 13.4633055,4.77035522 C13.4633055,4.72016146 13.4683957,4.6699676 13.4785762,4.62055209 C13.4879736,4.57152555 13.5036359,4.52211004 13.5220391,4.47580721 C13.5416169,4.42989347 13.5655019,4.3843689 13.5933025,4.34351351 C13.6222778,4.30149081 13.6543854,4.26141357 13.6904087,4.22678378 C13.8701335,4.04701993 14.1363925,3.96492009 14.3893384,4.01628108 C14.4378915,4.02561946 14.4876193,4.04079435 14.5342147,4.05947111 C14.5804184,4.07892611 14.625839,4.10227206 14.6673441,4.1302872 C14.7096323,4.15908048 14.7499628,4.19059748 14.7848113,4.22678378 C14.8212261,4.26141357 14.8533339,4.30149081 14.8823091,4.34351351 C14.9101097,4.38475797 14.9339946,4.42989347 14.9531809,4.47580721 C14.9719757,4.52211004 14.9872464,4.57152555 14.9966438,4.62055209 C15.0072159,4.6699676 15.0123061,4.72016146 15.0123061,4.77035522 C15.0123061,4.82054899 15.0072159,4.87074285 14.9966438,4.92132568 C14.9872464,4.96957397 14.9719757,5.01860041 14.9531809,5.06490323 C14.9339946,5.11120605 14.9101097,5.15634155 14.8823091,5.19719694 C14.8533339,5.23921964 14.8212261,5.27929687 14.7848113,5.31431575 C14.7499628,5.35011296 14.7096323,5.38201904 14.6673441,5.41081233 C14.625839,5.43843839 14.5804184,5.46217351 14.5342147,5.48162842 C14.4876193,5.4999161 14.4378915,5.51548007 14.3893384,5.52442937 C14.3388276,5.53493497 14.2883167,5.53999334 14.2378057,5.53999334 Z" id="Path" fill="#E97424"></path>
                            </g>
                        </g>
                    </g>
                    <g id="magritte-(1)" mask="url(#mask-2)">
                        <g transform="translate(38.000000, 115.000000)">
                            <path d="M2.34973521,2.853653 L2.34973521,48.146347 L39.6479154,48.146347 L39.6479154,2.853653 L2.34973521,2.853653 Z M16.5460359,19.9609779 L16.5448613,19.9609779 C16.5378132,19.9621498 16.5323315,19.9621498 16.5256749,19.9633216 C16.5323315,19.9621498 16.5378132,19.9609779 16.5448613,19.959806 L16.5472106,19.959806 C16.5460359,19.959806 16.5460359,19.9609779 16.5460359,19.9609779 Z" id="Shape" fill="#FFC800" fill-rule="nonzero"></path>
                            <path d="M15.2127834,21.7813797 L16.5068802,24.4739456 L15.2127834,27.0863571 C13.7393533,27.0863571 12.5435375,25.8992156 12.5435375,24.4338684 C12.5435375,22.9685212 13.7393533,21.7813797 15.2127834,21.7813797 Z" id="Path" fill="#F6AA1E" fill-rule="evenodd"></path>
                            <path d="M28.5092855,24.4338684 C28.5092855,25.8992156 27.3146443,27.0863571 25.839648,27.0863571 L23.1218489,24.3288117 L25.839648,21.7813797 C27.3146443,21.7813797 28.5092855,22.9685212 28.5092855,24.4338684 Z" id="Path" fill="#F6AA1E" fill-rule="evenodd"></path>
                            <path d="M39.4955996,40.9760285 L37.9516893,48.5436173 L4.04596134,48.5436173 L2.16217925,41.2639617 L12.1750821,34.3804093 L15.0146554,32.4275208 L15.9865006,31.7594376 C15.9865006,33.9461746 18.2324732,35.0628891 20.5269988,35.10997 C22.9217631,35.1601639 25.364689,34.0500641 25.364689,31.7668304 L26.3067758,32.3703232 L29.7278117,34.602974 L39.4955996,40.9760285 Z" id="Path" fill="#736572" fill-rule="evenodd"></path>
                            <path d="M15.2730833,34.3804093 L16.5710956,33.4878158 C16.2034234,33.0150604 15.9865006,32.4388046 15.9865006,31.7594376 L15.0146554,32.4275208 L12.1746905,34.3804093 L4.04596134,39.9686508 L4.04596134,48.5432282 L7.14396253,48.5432282 L7.14396253,40.5737 C7.14396253,40.1947175 7.33112696,39.8402481 7.64476432,39.6242981 L15.2730833,34.3804093 Z" id="Path" fill="#E97424" fill-rule="evenodd"></path>
                            <polygon id="Path" fill="#F4F3D5" fill-rule="evenodd" points="15.8232212 30.8232651 25.2296017 30.8232651 25.2296017 40.1270142 15.8232212 40.1270142"></polygon>
                            <path d="M15.2127834,20.1086426 L15.2127834,21.1086426 L25.839648,21.1086426 L25.839648,20.1086426 L15.2127834,20.1086426 Z M16.3486911,20.5363055 C16.5648307,20.5204073 16.7762716,20.4973548 16.9830138,20.4671482 C16.7762716,20.4973548 16.5648307,20.5215997 16.3486911,20.5363055 Z" id="Shape" fill="#736572" fill-rule="nonzero"></path>
                            <path d="M21.8136561,9.54849243 L19.2391669,9.54849243 C16.5472106,9.54849243 14.3650619,11.7165527 14.3650619,14.3916092 L14.3650619,20.9448166 L26.6877611,20.9448166 L26.6877611,14.3916092 C26.6877611,11.7165527 24.5056123,9.54849243 21.8136561,9.54849243 Z" id="Path" fill="#E97424" fill-rule="evenodd"></path>
                            <path d="M22.0756079,9.55549627 C21.9886821,9.55082698 21.9013649,9.54849243 21.8136561,9.54849243 L19.2391669,9.54849243 C16.5472106,9.54849243 14.3650619,11.7165527 14.3650619,14.3916092 L14.3650619,21.0160217 L17.4634547,21.0160217 L17.4634547,14.3916092 C17.4634547,11.8041 19.5050344,9.69090266 22.0756079,9.55549627 Z" id="Path" fill="#E97424" fill-rule="evenodd"></path>
                            <path d="M26.3067758,32.3703232 L26.3713828,33.6749725 L26.2104527,35.0730057 L24.7769616,38.627037 L23.6950888,39.062828 L20.5269988,35.10997 C20.5403117,35.1111374 20.5547994,35.1111374 20.569287,35.1111374 C20.6053103,35.1119156 20.6413335,35.1119156 20.6785315,35.1119156 C22.0290125,35.1119156 25.1133092,31.6127472 25.129363,31.3835678 C25.5079989,31.7788925 26.0021443,32.1714935 26.3067758,32.3703232 Z" id="Path" fill="#F6AA1E" fill-rule="evenodd"></path>
                            <path d="M14.6462,32.6808243 L15.1297733,33.3068848 L15.3134136,33.7792511 L16.9626529,38.0056458 L17.3757458,39.062828 L20.5438358,35.10997 C20.5305228,35.1111374 20.5160352,35.1111374 20.5015476,35.1111374 C20.4651327,35.1119156 20.4291095,35.1119156 20.3919116,35.1119156 C19.0418221,35.1119156 15.9285501,31.5839539 15.9124963,31.3543854 C15.5737993,31.8742219 15.09375,32.4543686 14.6462,32.6808243 Z" id="Path" fill="#F5A623" fill-rule="evenodd"></path>
                            <path d="M25.8400395,21.087616 L25.8400395,28.5505371 C25.8400395,32.0236359 23.4605459,34.8379898 20.5269988,34.8379898 C17.592277,34.8379898 15.2131749,32.0236359 15.2131749,28.5505371 L15.2131749,21.087616 L25.8400395,21.087616 Z" id="Path" fill="#F6AA1E" fill-rule="evenodd"></path>
                            <path d="M4.04596134,46.0868454 L4.04596134,4.91315463 L37.9516893,4.91315463 L37.9516893,46.0868454 L4.04596134,46.0868454 Z M41.6703088,0.397270178 C41.4439887,0.15291593 41.1189962,-2.84217094e-14 40.7583718,-2.84217094e-14 L1.23927876,-2.84217094e-14 C0.879046067,-2.84217094e-14 0.553662043,0.15291593 0.327341885,0.397270178 C0.124123632,0.615554859 2.84217094e-14,0.909324621 2.84217094e-14,1.23149869 L2.84217094e-14,49.7685013 C2.84217094e-14,50.0910645 0.124123632,50.3844451 0.327341885,50.6031189 C0.553662043,50.8470841 0.879046067,51 1.23927876,51 L40.7583718,51 C41.1189962,51 41.4439887,50.8470841 41.6703088,50.6031189 C41.873527,50.3844451 41.9976506,50.0910645 41.9976506,49.7685013 L41.9976506,1.23149869 C41.9976506,0.908935547 41.873527,0.615554859 41.6703088,0.397270178 Z" id="Shape" fill="#F6AA1E" fill-rule="nonzero"></path>
                            <path d="M4.04596134,4.91315463 L4.04596134,46.0868454 L0.327341885,50.6027298 C0.124123632,50.3844451 0,50.0906754 0,49.7685013 L0,1.23149869 C0,0.908935547 0.124123632,0.615554859 0.327341885,0.396881104 L4.04596134,4.91315463 Z" id="Path" fill="#F6AA1E" fill-rule="evenodd"></path>
                            <path d="M41.9976506,1.23149869 L41.9976506,49.7685013 C41.9976506,50.0906754 41.873527,50.3844451 41.6703088,50.6027298 L37.9516893,46.0868454 L37.9516893,4.91315463 L41.6703088,0.397270178 C41.873527,0.615554859 41.9976506,0.908935547 41.9976506,1.23149869 Z" id="Path" fill="#F6AA1E" fill-rule="evenodd"></path>
                            <path d="M29.9333794,21.8572541 L11.1194437,21.8572541 C10.691863,21.8572541 10.3449433,21.5125122 10.3449433,21.087616 C10.3449433,20.6623307 10.691863,20.3179779 11.1194437,20.3179779 L29.9333794,20.3179779 C30.3609599,20.3179779 30.7078796,20.6623307 30.7078796,21.087616 C30.7078796,21.5125122 30.3609599,21.8572541 29.9333794,21.8572541 Z" id="Path" fill="#E97424" fill-rule="evenodd"></path>
                            <path d="M21.4111351,19.0724716 C21.4111351,19.0724716 21.3770697,19.0954285 21.3112881,19.1347275 C21.0579505,19.289978 20.3347442,19.7032013 19.3437127,20.0518342 C18.4247278,20.3747864 17.2735494,20.6409302 16.0499329,20.5922928 C15.8255705,20.5841218 15.5972926,20.5638885 15.3690148,20.5327606 C12.9601544,20.1973572 11.0822457,18.6020508 10.3245823,17.860817 C10.1288037,17.6693802 10.1738328,17.3456497 10.4146406,17.2149124 C11.2196823,16.7783432 13.0028341,15.9573441 15.0252275,15.9553986 C15.3455214,15.9546204 15.6728632,15.9752426 16.0033376,16.0211563 C19.1655542,16.4612274 21.4111351,19.0724716 21.4111351,19.0724716 Z" id="Path" fill="#F6AA1E" fill-rule="evenodd"></path>
                            <path d="M26.6403826,17.1238632 C26.5307465,17.1121903 26.4215021,17.10363 26.3134322,17.0981827 C23.3176276,16.9320374 20.7282592,18.7409591 20.6644354,18.7868729 L20.6636523,18.7868729 C20.6636523,18.7868729 20.9737656,19.1226654 21.5207711,19.5658493 C21.8132644,19.8028107 22.1734971,20.0705109 22.5901141,20.3335418 C23.0850425,20.6455994 23.6602401,20.9510422 24.2961291,21.1922836 C24.763257,21.3693237 25.2644504,21.5113449 25.7914864,21.5957795 C25.9140439,21.6156234 26.0385591,21.6323547 26.1634659,21.645195 C28.4826597,21.8864364 30.6092072,20.883339 31.582227,20.3284836 C31.8774612,20.1603927 31.9201409,19.7533951 31.6668034,19.5284958 C30.830437,18.7849274 28.9595764,17.3658829 26.6403826,17.1238632 Z" id="Path" fill="#F6AA1E" fill-rule="evenodd"></path>
                            <path d="M20.3276962,23.961113 C20.2493847,23.961113 20.1698986,23.949051 20.0911956,23.9241486 C19.683976,23.7941895 19.4596136,23.3611222 19.5900023,22.95607 C20.7172957,19.4611816 19.9286993,18.2787094 19.9193019,18.2643127 L19.8746644,18.1705399 C19.7168668,17.8394165 19.8194548,17.4440918 20.1186045,17.2304764 C20.5344384,16.9335938 21.1194249,17.1188049 21.2858368,17.5997314 C21.6495936,18.6506881 21.9757607,20.6027985 21.0653901,23.4261017 C20.9596696,23.7525558 20.6554296,23.961113 20.3276962,23.961113 Z" id="Path" fill="#F6AA1E" fill-rule="evenodd"></path>
                            <path d="M24.5326298,26.3077698 C24.5326298,26.4513473 24.5251902,26.5937577 24.5118772,26.7346115 C24.2961291,28.8801041 22.4746048,30.5540085 20.2595652,30.5540085 C18.1208794,30.5540085 16.3510404,28.9941101 16.0370115,26.9571762 C16.0029461,26.7458953 15.9865006,26.5279998 15.9865006,26.3077698 C15.9865006,25.0074006 16.5738365,23.8447723 17.5002611,23.0657959 C18.2438283,22.4389572 19.2070592,22.0615311 20.2595652,22.0615311 C20.3876044,22.0615311 20.514469,22.0665894 20.6393758,22.0778732 C21.7173329,22.1720352 22.6797807,22.6646347 23.3779273,23.4054794 C24.0948687,24.1650009 24.5326298,25.1848298 24.5326298,26.3077698 Z" id="Path" fill="#E97424" fill-rule="evenodd"></path>
                            <path d="M19.1350127,26.9571762 C19.1009472,26.7458953 19.0845018,26.5279998 19.0845018,26.3077698 C19.0845018,25.0074006 19.6722292,23.8447723 20.5982623,23.0657959 C20.9557541,22.7646331 21.3645399,22.5214462 21.8093489,22.3494644 C21.4412851,22.2070541 21.0489446,22.1136703 20.6393758,22.0778732 C20.514469,22.0665894 20.3876044,22.0615311 20.2595652,22.0615311 C19.2070592,22.0615311 18.2438283,22.4389572 17.5002611,23.0657959 C16.5738365,23.8447723 15.9865006,25.0074006 15.9865006,26.3077698 C15.9865006,26.5279998 16.0029461,26.7458953 16.0370115,26.9571762 C16.3510404,28.9941101 18.1208794,30.5540085 20.2595652,30.5540085 C20.8061791,30.5540085 21.3285166,30.4516755 21.8089573,30.265686 C20.4099232,29.7252274 19.3687723,28.4734954 19.1350127,26.9571762 Z" id="Path" fill="#E97424" fill-rule="evenodd"></path>
                            <g id="Group" stroke-width="1" fill="none" fill-rule="evenodd" transform="translate(11.727924, 32.273438)">
                                <path d="M16.2817348,7.96680453 L17.1979788,10.0971222 C17.3060487,10.3488693 17.280989,10.6375809 17.1310225,10.8667603 L15.2053438,13.8134079 L9.22743889,13.8134079 L10.5387642,10.4515915 L11.9671652,6.78939054 L14.5788522,0.0968856563 L17.9998881,2.32953646 L18.4893347,6.01702881 C18.5535501,6.50301359 18.1780467,6.93647006 17.6846845,6.94503019 L16.9387679,6.95825961 C16.4215208,6.96720881 16.0785166,7.49404907 16.2817348,7.96680453 Z" id="Path" fill="#E97424"></path>
                                <path d="M3.33645955,13.8134079 L1.4107809,10.8667603 C1.26081444,10.6375809 1.23575477,10.3488693 1.34382458,10.0971222 L2.20329284,8.09909823 C2.43352852,7.56291959 2.04471216,6.96604159 1.45815931,6.95553589 L0.834016955,6.94464111 C0.348877561,6.93608088 -0.0242766014,6.51624301 0.0270174272,6.03726196 L0.447158463,2.10697177 L3.28673175,0.154083252 L8.38794009,13.8134079 L3.33645955,13.8134079 Z" id="Path" fill="#E97424"></path>
                            </g>
                        </g>
                    </g>
                    <g id="Group-7" mask="url(#mask-2)">
                        <g transform="translate(29.000000, 8.000000)">
                            <g id="Group-4" transform="translate(62.000000, 0.000000)">
                                <g id="photo-copy-2">
                                    <path d="M0.458900443,0 L27.0843094,0 C27.3375411,0 27.5432099,0.407951555 27.5432099,0.911700103 L27.5432099,44.6882997 C27.5432099,45.1913966 27.3375411,45.6 27.0843094,45.6 L0.458900443,45.6 C0.205668759,45.6 0,45.1913966 0,44.6882997 L0,0.911700103 C0,0.407951555 0.205668759,0 0.458900443,0 Z" id="Path" fill="#F6AA1E"></path>
                                    <polygon id="Path" fill="#FFC800" points="4.79012346 4.864 22.7530864 4.864 22.7530864 40.736 4.79012346 40.736"></polygon>
                                    <polygon id="Path" fill="#F6AA1E" points="17.3641975 29.184 18.5617284 29.184 18.5617284 31.616 17.3641975 31.616"></polygon>
                                    <polygon id="Path" fill="#F6AA1E" points="7.18518519 32.224 8.38271605 32.224 8.38271605 34.656 7.18518519 34.656"></polygon>
                                </g>
                                <rect id="Rectangle" fill="#F5A623" fill-rule="nonzero" x="15.5679012" y="9.12" width="5.38888889" height="5.472"></rect>
                                <rect id="Rectangle-Copy" fill="#F5A623" fill-rule="nonzero" x="14.9691358" y="20.064" width="5.38888889" height="5.472"></rect>
                                <ellipse id="Oval" stroke="#E97424" stroke-width="1.2" fill-rule="nonzero" cx="13.7716049" cy="35.264" rx="2.39506173" ry="2.432"></ellipse>
                            </g>
                            <g id="Group-4-Copy" transform="translate(62.000000, 54.000000)">
                                <g id="photo-copy-2">
                                    <path d="M0.64978328,0 L38.3502167,0 C38.7087819,0 39,0.33995963 39,0.759750086 L39,37.2402498 C39,37.6594972 38.7087819,38 38.3502167,38 L0.64978328,38 C0.291218113,38 0,37.6594972 0,37.2402498 L0,0.759750086 C0,0.33995963 0.291218113,0 0.64978328,0 Z" id="Path" fill="#F6AA1E"></path>
                                    <polygon id="Path" fill="#FFC800" points="5 4 35 4 35 34 5 34"></polygon>
                                    <polygon id="Path" fill="#E97424" points="17 24 18 24 18 26 17 26"></polygon>
                                    <polygon id="Path" fill="#F6AA1E" points="7 27 8 27 8 29 7 29"></polygon>
                                    <polygon id="Path" fill="#F6AA1E" points="17 10 18 10 18 12 17 12"></polygon>
                                    <polygon id="Path" fill="#F6AA1E" points="7 13 8 13 8 15 7 15"></polygon>
                                </g>
                                <rect id="Rectangle" fill="#F5A623" fill-rule="nonzero" x="25.5679012" y="11.8" width="5.38888889" height="5.472"></rect>
                                <rect id="Rectangle-Copy-2" fill="#E97424" fill-rule="nonzero" x="7.18518519" y="24.6" width="5.38888889" height="5.472"></rect>
                                <rect id="Rectangle-Copy" fill="#F5A623" fill-rule="nonzero" x="25.5679012" y="20.4" width="5.38888889" height="5.472"></rect>
                                <rect id="Rectangle-Copy-3" fill="#E97424" fill-rule="nonzero" x="7.18518519" y="7.2" width="5.38888889" height="5.472"></rect>
                            </g>
                            <g id="Group-3" transform="translate(0.000000, 4.800000)">
                                <g id="photo">
                                    <path d="M0.81803992,0.40019535 L48.2807255,0.40019535 C48.7321385,0.40019535 49.0987654,0.76699215 49.0987654,1.2199218 L49.0987654,40.5802734 C49.0987654,41.0326171 48.7321385,41.4 48.2807255,41.4 L0.81803992,41.4 C0.366626918,41.4 0,41.0326171 0,40.5802734 L0,1.2199218 C0,0.76699215 0.366626918,0.40019535 0.81803992,0.40019535 Z" id="Path" fill="#F5A623"></path>
                                    <polygon id="Path" fill="#FFC800" points="4.09136884 4.5 45.0073966 4.5 45.0073966 37.3001954 4.09136884 37.3001954"></polygon>
                                    <path d="M24.1400704,14.3396484 C24.2423985,13.0980468 23.331971,12.0029296 22.0940936,11.8798828 C20.8568009,12.0029296 19.9463735,13.0980468 20.0487016,14.3396484 C18.8108241,14.4626953 17.9003966,15.5578125 18.0027247,16.8 L26.1860472,16.8 C26.2883754,15.5578125 25.3779477,14.4632812 24.1400704,14.3396484 Z" id="Path" fill="#F5A623"></path>
                                    <path d="M38.4607386,11.0601563 C38.4607386,9.2484375 36.9954005,7.7800782 35.1874095,7.7800782 C33.3794186,7.7800782 31.9140806,9.2484375 31.9140806,11.0601563 C30.1066744,11.0601563 28.6407516,12.5285157 28.6407516,14.3396484 L41.7340675,14.3396484 C41.7340675,12.5285157 40.2687295,11.0601563 38.4607386,11.0601563 Z" id="Path" fill="#E97424"></path>
                                    <polygon id="Path" fill="#F5A623" points="7.42784895 34.0201171 27.8227118 34.0201171 17.624988 19.2603516"></polygon>
                                    <path d="M13.9113559,11.8798829 C13.9113559,13.2386718 12.81206,14.3396484 11.4560667,14.3396484 C10.1006582,14.3396484 9.00136229,13.2386718 9.00136229,11.8798829 C9.00136229,10.5210938 10.1006582,9.42011715 11.4560667,9.42011715 C12.81206,9.42011715 13.9113559,10.5210938 13.9113559,11.8798829 Z" id="Path" fill="#F5A623"></path>
                                    <polygon id="Path" fill="#E97424" points="13.0927313 29.9203125 14.7293958 29.9203125 14.7293958 31.5597657 13.0927313 31.5597657"></polygon>
                                    <polygon id="Path" fill="#E97424" points="16.3660602 27.4599609 18.0027247 27.4599609 18.0027247 29.1 16.3660602 29.1"></polygon>
                                    <polygon id="Path" fill="#E97424" points="21.3392048 34.0201171 41.7340675 34.0201171 31.5363438 19.2603516"></polygon>
                                    <g id="Group" transform="translate(29.339506, 26.550000)" fill="#FDBD40">
                                        <polygon id="Path" points="0.119869995 2.55 1.75653453 2.55 1.75653453 4.1900391 0.119869995 4.1900391"></polygon>
                                        <polygon id="Path" points="3.39319906 0.0902343 5.02986345 0.0902343 5.02986345 1.7302734 3.39319906 1.7302734"></polygon>
                                    </g>
                                </g>
                                <g id="Group-5" transform="translate(10.000000, 48.000000)">
                                    <g id="photo-copy">
                                        <path d="M0.658422374,0 L38.8600961,0 C39.2234286,0 39.5185185,0.365009286 39.5185185,0.815731671 L39.5185185,39.9842682 C39.5185185,40.4344075 39.2234286,40.8 38.8600961,40.8 L0.658422374,40.8 C0.295089959,40.8 0,40.4344075 0,39.9842682 L0,0.815731671 C0,0.365009286 0.295089959,0 0.658422374,0 Z" id="Path" fill="#F5A623"></path>
                                        <polygon id="Path" fill="#FFC800" points="4.19135802 4.8 34.7283951 4.8 34.7283951 36.6 4.19135802 36.6"></polygon>
                                        <path d="M13.7716049,13.8000001 C13.7716049,15.1257741 12.6991467,16.2 11.376258,16.2 C10.0539397,16.2 8.98148148,15.1257741 8.98148148,13.8000001 C8.98148148,12.4742259 10.0539397,11.4 11.376258,11.4 C12.6991467,11.4 13.7716049,12.4742259 13.7716049,13.8000001 Z" id="Path" fill="#F5A623"></path>
                                        <polygon id="Path" fill="#E97424" points="25.1481481 25.8 26.9444444 25.8 26.9444444 28.2 25.1481481 28.2"></polygon>
                                        <polygon id="Path" fill="#E97424" points="10.1790123 28.8 11.9753086 28.8 11.9753086 31.2 10.1790123 31.2"></polygon>
                                    </g>
                                    <g id="clock" transform="translate(9.580247, 13.200000)" fill="#E97424">
                                        <ellipse id="Oval" cx="6.58641975" cy="6.57338" rx="1" ry="1"></ellipse>
                                        <path d="M6.58641975,0 C2.9546679,0 0,2.96076 0,6.6 C0,10.23924 2.9546679,13.2 6.58641975,13.2 C10.2181716,13.2 13.1728395,10.23924 13.1728395,6.6 C13.1728395,2.96076 10.2181716,0 6.58641975,0 Z M6.36687243,1.73338 C6.36687243,1.61172 6.46522963,1.51338 6.58641975,1.51338 C6.70760988,1.51338 6.80596708,1.61172 6.80596708,1.73338 L6.80596708,1.95338 C6.80596708,2.07504 6.70760988,2.17338 6.58641975,2.17338 C6.46522963,2.17338 6.36687243,2.07504 6.36687243,1.95338 L6.36687243,1.73338 Z M1.97592593,6.79338 L1.7563786,6.79338 C1.63518848,6.79338 1.53683128,6.69504 1.53683128,6.57338 C1.53683128,6.45172 1.63518848,6.35338 1.7563786,6.35338 L1.97592593,6.35338 C2.09711605,6.35338 2.19547325,6.45172 2.19547325,6.57338 C2.19547325,6.69504 2.09711605,6.79338 1.97592593,6.79338 Z M3.48158148,9.99592 L3.32636152,10.15146 C3.28354979,10.19436 3.22734568,10.21592 3.17114156,10.21592 C3.11493745,10.21592 3.05873333,10.19436 3.0159216,10.15146 C2.9300786,10.06544 2.9300786,9.9264 3.0159216,9.84038 L3.17114156,9.68484 C3.25698457,9.59882 3.39573848,9.59882 3.48158148,9.68484 C3.56742449,9.77086 3.56742449,9.9099 3.48158148,9.99592 Z M3.48158148,3.46192 C3.43876975,3.50482 3.38256564,3.52638 3.32636152,3.52638 C3.27015741,3.52638 3.21395329,3.50482 3.17114156,3.46192 L3.0159216,3.30638 C2.9300786,3.22036 2.9300786,3.08132 3.0159216,2.9953 C3.10176461,2.90928 3.24051852,2.90928 3.32636152,2.9953 L3.48158148,3.15084 C3.56742449,3.23686 3.56742449,3.37612 3.48158148,3.46192 Z M6.80596708,11.41338 C6.80596708,11.53504 6.70760988,11.63338 6.58641975,11.63338 C6.46522963,11.63338 6.36687243,11.53504 6.36687243,11.41338 L6.36687243,11.19338 C6.36687243,11.07172 6.46522963,10.97338 6.58641975,10.97338 C6.70760988,10.97338 6.80596708,11.07172 6.80596708,11.19338 L6.80596708,11.41338 Z M6.58641975,7.45338 C6.17850082,7.45338 5.83754383,7.17178 5.73940617,6.79338 L4.17139918,6.79338 C4.05020905,6.79338 3.95185185,6.69504 3.95185185,6.57338 C3.95185185,6.45172 4.05020905,6.35338 4.17139918,6.35338 L5.73940617,6.35338 C5.8193214,6.0456 6.05972572,5.8047 6.36687243,5.72462 L6.36687243,3.49338 C6.36687243,3.37172 6.46522963,3.27338 6.58641975,3.27338 C6.70760988,3.27338 6.80596708,3.37172 6.80596708,3.49338 L6.80596708,5.72462 C7.18358848,5.82296 7.46460905,6.1644 7.46460905,6.57338 C7.46460905,7.0587 7.07074115,7.45338 6.58641975,7.45338 Z M10.1569179,10.15146 C10.1141062,10.19436 10.0579021,10.21592 10.0016979,10.21592 C9.94549383,10.21592 9.88928971,10.19436 9.84647798,10.15146 L9.69125802,9.99592 C9.60541502,9.9099 9.60541502,9.77086 9.69125802,9.68484 C9.77710103,9.59882 9.91585494,9.59882 10.0016979,9.68484 L10.1569179,9.84038 C10.2427609,9.92618 10.2427609,10.06544 10.1569179,10.15146 Z M10.1569179,3.30638 L10.0016979,3.46192 C9.95888621,3.50482 9.9026821,3.52638 9.84647798,3.52638 C9.79027387,3.52638 9.73406975,3.50482 9.69125802,3.46192 C9.60541502,3.3759 9.60541502,3.23686 9.69125802,3.15084 L9.84647798,2.9953 C9.93232099,2.90928 10.0710749,2.90928 10.1569179,2.9953 C10.2427609,3.08132 10.2427609,3.22058 10.1569179,3.30638 Z M11.4164609,6.79338 L11.1969136,6.79338 C11.0757235,6.79338 10.9773663,6.69504 10.9773663,6.57338 C10.9773663,6.45172 11.0757235,6.35338 11.1969136,6.35338 L11.4164609,6.35338 C11.537651,6.35338 11.6360082,6.45172 11.6360082,6.57338 C11.6360082,6.69504 11.537651,6.79338 11.4164609,6.79338 Z" id="Shape" fill-rule="nonzero"></path>
                                    </g>
                                </g>
                            </g>
                        </g>
                    </g>
                </g>
            </g>
        </g>
    </g>
</svg>