<svg width="138" height="104" viewBox="0 0 138 104" fill="none" xmlns="http://www.w3.org/2000/svg">
<path fill-rule="evenodd" clip-rule="evenodd" d="M18.7194 12H118.481C119.429 12 120.2 12.7694 120.2 13.7194V96.2806C120.2 97.2294 119.429 98 118.481 98H18.7194C17.7706 98 17 97.2294 17 96.2806V13.7194C17 12.7694 17.7706 12 18.7194 12Z" fill="#DFE3EB"/>
<path fill-rule="evenodd" clip-rule="evenodd" d="M25.6 20.6001H111.6V89.4001H25.6L25.6 20.6001Z" fill="#F5F7FB"/>
<path fill-rule="evenodd" clip-rule="evenodd" d="M67.1582 41.3828C67.3729 38.8508 65.4629 36.6176 62.8661 36.3667C60.2705 36.6176 58.3606 38.8508 58.5753 41.3828C55.9784 41.6337 54.0685 43.8669 54.2832 46.4H71.4503C71.6649 43.8669 69.755 41.6349 67.1582 41.3828Z" fill="#DFE3EB"/>
<path fill-rule="evenodd" clip-rule="evenodd" d="M97.625 33.5008C97.625 29.542 94.5771 26.3335 90.8166 26.3335C87.0561 26.3335 84.0083 29.542 84.0083 33.5008C80.249 33.5008 77.2 36.7093 77.2 40.6668H104.433C104.433 36.7093 101.385 33.5008 97.625 33.5008Z" fill="#DFE3EB"/>
<path fill-rule="evenodd" clip-rule="evenodd" d="M32.7667 82.2335H75.7667L54.2661 50.7002L32.7667 82.2335Z" fill="#DFE3EB"/>
<path fill-rule="evenodd" clip-rule="evenodd" d="M45.6666 35.65C45.6666 38.4212 43.4203 40.6666 40.6494 40.6666C37.8797 40.6666 35.6333 38.4212 35.6333 35.65C35.6333 32.8787 37.8797 30.6333 40.6494 30.6333C43.4203 30.6333 45.6666 32.8787 45.6666 35.65Z" fill="#DFE3EB"/>
<path fill-rule="evenodd" clip-rule="evenodd" d="M61.4333 82.2335H104.433L82.9327 50.7002L61.4333 82.2335Z" fill="#DFE3EB"/>
<path fill-rule="evenodd" clip-rule="evenodd" d="M78.8884 71.6885H82.371V75.0467H78.8884V71.6885Z" fill="#F5F7FB"/>
<path fill-rule="evenodd" clip-rule="evenodd" d="M85.8535 66.6514H89.3361V70.0095H85.8535V66.6514Z" fill="#F5F7FB"/>
</svg>
