<?xml version="1.0" encoding="UTF-8"?>
<svg width="168px" height="149px" viewBox="0 0 168 149" version="1.1" xmlns="http://www.w3.org/2000/svg" xmlns:xlink="http://www.w3.org/1999/xlink">
    <!-- Generator: Sketch 52.2 (67145) - http://www.bohemiancoding.com/sketch -->
    <title>Group 18</title>
    <desc>Created with Sketch.</desc>
    <g id="Page-1" stroke="none" stroke-width="1" fill="none" fill-rule="evenodd">
        <g id="16" transform="translate(-619.000000, -285.000000)">
            <g id="Group-18" transform="translate(619.000000, 285.000000)">
                <path d="M2,0 L166,0 C167.104569,-2.02906125e-16 168,0.8954305 168,2 L168,149 L0,149 L0,2 C-1.3527075e-16,0.8954305 0.8954305,2.02906125e-16 2,0 Z" id="Rectangle" fill="#FFC800" fill-rule="nonzero"></path>
                <g id="easel" transform="translate(51.000000, 36.000000)">
                    <rect id="Rectangle" fill="#E09B2D" x="27.0819745" y="0.615179688" width="8.83625159" height="10.5868828"></rect>
                    <polygon id="Path" fill="#F5A623" points="55.2540096 70.1008867 53.7506369 64.8367305 60.0608694 64.8367305 60.0608694 57.8176562 55.0018089 57.8176562 55.0018089 2.01907422 43.6915032 2.01907422 35.9180255 2.01907422 27.0819745 2.01907422 19.3060892 2.01907422 7.99578344 2.01907422 7.99578344 57.8176562 2.93672293 57.8176562 2.93672293 64.8367305 9.24695541 64.8367305 7.7435828 70.1008867 0.059589172 97 7.12622293 97 14.8126242 70.1008867 16.3159968 64.8367305 46.6817962 64.8367305 48.1851688 70.1008867 55.8713694 97 62.9404108 97"></polygon>
                    <g id="Group" transform="translate(2.808917, 57.753906)" fill="#E09B2D">
                        <polygon id="Path" points="6.43803822 7.08282422 13.506879 7.08282422 12.003707 12.3469805 4.93466561 12.3469805"></polygon>
                        <polygon id="Path" points="52.4450924 12.3469805 45.3762516 12.3469805 43.872879 7.08282422 50.9417197 7.08282422"></polygon>
                        <polygon id="Path" points="3.0071465 0.06375 3.0071465 7.08282422 2.68913694 7.08282422 2.33280573 7.08282422 0.802146497 7.08282422 0.445815287 7.08282422 0.127805732 7.08282422 0.127805732 0.06375 0.382815287 0.06375 2.75233758 0.06375"></polygon>
                    </g>
                    <rect id="Rectangle" fill="#E09B2D" x="7.99578344" y="55.6557344" width="47.0062261" height="2.16192187"></rect>
                </g>
                <g id="photo-copy" transform="translate(51.000000, 40.000000)">
                    <path d="M1.09963324,0 L64.9003668,0 C65.5071693,0 66,0.608348811 66,1.35955279 L66,66.640447 C66,67.3906792 65.5071693,68 64.9003668,68 L1.09963324,68 C0.492830652,68 0,67.3906792 0,66.640447 L0,1.35955279 C0,0.608348811 0.492830652,0 1.09963324,0 Z" id="Path" fill="#F5A623"></path>
                    <polygon id="Path" fill="#FFFFFF" points="7 8 58 8 58 61 7 61"></polygon>
                    <path d="M23,23.0000001 C23,25.2096236 21.2088842,27 18.9995237,27 C16.7911158,27 15,25.2096236 15,23.0000001 C15,20.7903764 16.7911158,19 18.9995237,19 C21.2088842,19 23,20.7903764 23,23.0000001 Z" id="Path" fill="#F5A623"></path>
                </g>
                <rect id="Rectangle" fill="#F5A623" x="78.0819745" y="31" width="8.83625159" height="10.5868828"></rect>
                <g id="Group" transform="translate(68.455414, 35.980469)" fill="#E97424">
                    <rect id="Rectangle" x="0.0834649682" y="0.162164063" width="3.53442038" height="11.2303594"></rect>
                    <rect id="Rectangle" x="24.468879" y="0.162164063" width="3.53442038" height="11.2303594"></rect>
                </g>
                <g id="visible-opened-eye-interface-option" transform="translate(64.000000, 65.000000)" fill="#E97424" fill-rule="nonzero">
                    <path d="M39.4814696,10.1020354 C39.1301301,9.68896362 30.7337258,0 20.0002031,0 C9.26627421,0 0.870276031,9.68896362 0.518124203,10.1024404 C-0.172775748,10.9123851 -0.172775748,12.0876149 0.518530376,12.8983695 C0.870276031,13.3114413 9.26627421,23 20.0002031,23 C30.7337258,23 39.1301301,13.3106314 39.4818758,12.8975596 C40.1727757,12.0876149 40.1727757,10.9123851 39.4814696,10.1020354 Z M23.27883,5.8202627 C24.0005991,5.42743952 25.0070953,5.87817375 25.5265904,6.82661901 C26.0460854,7.77546924 25.8819916,8.86322499 25.1602225,9.25604817 C24.4388596,9.64927633 23.4319572,9.19813713 22.912056,8.24969187 C22.3929671,7.30084164 22.5566548,6.21308589 23.27883,5.8202627 Z M20.0002031,19.4896996 C12.502253,19.4896996 6.19235837,13.7484065 4.00836717,11.5 C5.48318065,9.98135366 8.84101128,6.87157094 13.174469,5.01193788 C12.3292234,6.29408036 11.8336925,7.82609078 11.8336925,9.47513822 C11.8336925,13.9719513 15.489654,17.6171074 19.9997969,17.6171074 C24.5099398,17.6171074 28.1663075,13.9719513 28.1663075,9.47513822 C28.1663075,7.82609078 27.6711828,6.29408036 26.8259372,5.01193788 C31.1593949,6.87197591 34.5168194,9.98135366 35.9916328,11.5 C33.8076416,13.7496214 27.497747,19.4896996 20.0002031,19.4896996 Z" id="Shape"></path>
                </g>
            </g>
        </g>
    </g>
</svg>