<svg width="138" height="104" viewBox="0 0 138 104" fill="none" xmlns="http://www.w3.org/2000/svg">
<path fill-rule="evenodd" clip-rule="evenodd" d="M43.2829 14H117.717C118.425 14 119 14.5741 119 15.2829V76.8838C119 77.5917 118.425 78.1667 117.717 78.1667H43.2829C42.575 78.1667 42 77.5917 42 76.8838V15.2829C42 14.5741 42.575 14 43.2829 14Z" fill="#DFE3EB"/>
<path fill-rule="evenodd" clip-rule="evenodd" d="M48.4165 20.4167H112.583V71.7501H48.4165L48.4165 20.4167Z" fill="#F5F7FB"/>
<path fill-rule="evenodd" clip-rule="evenodd" d="M64 66.1667H106L84.9994 35.1667L64 66.1667Z" fill="#DFE3EB"/>
<path fill-rule="evenodd" clip-rule="evenodd" d="M106.486 31.6459C106.486 33.7136 104.81 35.3889 102.743 35.3889C100.676 35.3889 99 33.7136 99 31.6459C99 29.5782 100.676 27.9028 102.743 27.9028C104.81 27.9028 106.486 29.5782 106.486 31.6459Z" fill="#DFE3EB"/>
<path fill-rule="evenodd" clip-rule="evenodd" d="M21.2829 25.8333H95.7171C96.425 25.8333 97 26.4073 97 27.1162V88.717C97 89.425 96.425 89.9999 95.7171 89.9999H21.2829C20.575 89.9999 20 89.425 20 88.717V27.1162C20 26.4073 20.575 25.8333 21.2829 25.8333Z" fill="#DFE3EB"/>
<path fill-rule="evenodd" clip-rule="evenodd" d="M26.4165 32.25H90.5832V83.5833H26.4165L26.4165 32.25Z" fill="#F5F7FB"/>
<path fill-rule="evenodd" clip-rule="evenodd" d="M31 78H64L47.4995 54L31 78Z" fill="#DFE3EB"/>
<path fill-rule="evenodd" clip-rule="evenodd" d="M53 78H86L69.4995 54L53 78Z" fill="#DFE3EB"/>
<path fill-rule="evenodd" clip-rule="evenodd" d="M66.3125 70.1064H68.9965V72.6946H66.3125V70.1064Z" fill="#F5F7FB"/>
<path fill-rule="evenodd" clip-rule="evenodd" d="M71.6807 66.2244H74.3647V68.8125H71.6807V66.2244Z" fill="#F5F7FB"/>
<path fill-rule="evenodd" clip-rule="evenodd" d="M84.4861 42.7431C84.4861 44.8107 82.8101 46.4861 80.7426 46.4861C78.6761 46.4861 77 44.8107 77 42.7431C77 40.6754 78.6761 39 80.7426 39C82.8101 39 84.4861 40.6754 84.4861 42.7431Z" fill="#DFE3EB"/>
</svg>
