<?xml version="1.0" encoding="UTF-8"?>
<svg width="215px" height="162px" viewBox="0 0 215 162" version="1.1" xmlns="http://www.w3.org/2000/svg" xmlns:xlink="http://www.w3.org/1999/xlink">
    <!-- Generator: Sketch 52.4 (67378) - http://www.bohemiancoding.com/sketch -->
    <title>ic_collector</title>
    <desc>Created with Sketch.</desc>
    <defs>
        <rect id="path-1" x="0" y="0" width="215" height="161"></rect>
        <linearGradient x1="50%" y1="100%" x2="50%" y2="3.061617e-15%" id="linearGradient-3">
            <stop stop-color="#EA0050" offset="0%"></stop>
            <stop stop-color="#F20648" offset="100%"></stop>
        </linearGradient>
        <linearGradient x1="50%" y1="4.61524566%" x2="50%" y2="100%" id="linearGradient-4">
            <stop stop-color="#FF0047" offset="0%"></stop>
            <stop stop-color="#9C0073" offset="100%"></stop>
        </linearGradient>
        <linearGradient x1="50%" y1="0%" x2="50%" y2="100%" id="linearGradient-5">
            <stop stop-color="#FFFFFF" offset="0%"></stop>
            <stop stop-color="#F0F4FC" offset="100%"></stop>
        </linearGradient>
        <linearGradient x1="50%" y1="93.9464415%" x2="50%" y2="0%" id="linearGradient-6">
            <stop stop-color="#EBEEFC" offset="0%"></stop>
            <stop stop-color="#FFF9F5" offset="100%"></stop>
        </linearGradient>
        <linearGradient x1="32.7455572%" y1="16.7372328%" x2="50%" y2="100%" id="linearGradient-7">
            <stop stop-color="#EF004F" offset="0%"></stop>
            <stop stop-color="#100014" offset="100%"></stop>
            <stop stop-color="#100014" offset="100%"></stop>
        </linearGradient>
    </defs>
    <g id="Page-1" stroke="none" stroke-width="1" fill="none" fill-rule="evenodd">
        <g id="3" transform="translate(-317.000000, -243.000000)">
            <g id="ic_collector" transform="translate(317.000000, 243.000000)">
                <g id="Group-2">
                    <g id="Group-Copy">
                        <mask id="mask-2" fill="white">
                            <use xlink:href="#path-1"></use>
                        </mask>
                        <use id="Rectangle" fill="#FFC800" fill-rule="nonzero" xlink:href="#path-1"></use>
                    </g>
                    <g id="Group-7" transform="translate(11.000000, 35.000000)">
                        <g id="Group-4" transform="translate(62.271605, 0.000000)">
                            <g id="photo-copy-2">
                                <path d="M0.458900443,0 L27.0843094,0 C27.3375411,0 27.5432099,0.407951555 27.5432099,0.911700103 L27.5432099,44.6882997 C27.5432099,45.1913966 27.3375411,45.6 27.0843094,45.6 L0.458900443,45.6 C0.205668759,45.6 0,45.1913966 0,44.6882997 L0,0.911700103 C0,0.407951555 0.205668759,0 0.458900443,0 Z" id="Path" fill="#F6AA1E"></path>
                                <polygon id="Path" fill="#FFC800" points="4.79012346 4.864 22.7530864 4.864 22.7530864 40.736 4.79012346 40.736"></polygon>
                                <polygon id="Path" fill="#F6AA1E" points="17.3641975 29.184 18.5617284 29.184 18.5617284 31.616 17.3641975 31.616"></polygon>
                                <polygon id="Path" fill="#F6AA1E" points="7.18518519 32.224 8.38271605 32.224 8.38271605 34.656 7.18518519 34.656"></polygon>
                            </g>
                            <rect id="Rectangle" fill="#F5A623" fill-rule="nonzero" x="15.5679012" y="9.12" width="5.38888889" height="5.472"></rect>
                            <rect id="Rectangle-Copy" fill="#F5A623" fill-rule="nonzero" x="14.9691358" y="20.064" width="5.38888889" height="5.472"></rect>
                            <ellipse id="Oval" stroke="#E97424" stroke-width="1.2" fill-rule="nonzero" cx="13.7716049" cy="35.264" rx="2.39506173" ry="2.432"></ellipse>
                        </g>
                        <g id="Group-4-Copy" transform="translate(166.456790, 0.000000)">
                            <g id="photo-copy-2">
                                <path d="M0.458900443,0 L27.0843094,0 C27.3375411,0 27.5432099,0.407951555 27.5432099,0.911700103 L27.5432099,44.6882997 C27.5432099,45.1913966 27.3375411,45.6 27.0843094,45.6 L0.458900443,45.6 C0.205668759,45.6 0,45.1913966 0,44.6882997 L0,0.911700103 C0,0.407951555 0.205668759,0 0.458900443,0 Z" id="Path" fill="#F6AA1E"></path>
                                <polygon id="Path" fill="#FFC800" points="4.79012346 4.864 22.7530864 4.864 22.7530864 40.736 4.79012346 40.736"></polygon>
                                <polygon id="Path" fill="#E97424" points="17.3641975 29.184 18.5617284 29.184 18.5617284 31.616 17.3641975 31.616"></polygon>
                                <polygon id="Path" fill="#F6AA1E" points="7.18518519 32.224 8.38271605 32.224 8.38271605 34.656 7.18518519 34.656"></polygon>
                                <polygon id="Path" fill="#F6AA1E" points="17.3641975 12.384 18.5617284 12.384 18.5617284 14.816 17.3641975 14.816"></polygon>
                                <polygon id="Path" fill="#F6AA1E" points="7.18518519 15.424 8.38271605 15.424 8.38271605 17.856 7.18518519 17.856"></polygon>
                            </g>
                            <rect id="Rectangle" fill="#F5A623" fill-rule="nonzero" x="15.5679012" y="34.8" width="5.38888889" height="5.472"></rect>
                            <rect id="Rectangle-Copy-2" fill="#E97424" fill-rule="nonzero" x="7.18518519" y="21.6" width="5.38888889" height="5.472"></rect>
                            <rect id="Rectangle-Copy" fill="#F5A623" fill-rule="nonzero" x="15.5679012" y="20.4" width="5.38888889" height="5.472"></rect>
                            <rect id="Rectangle-Copy-3" fill="#E97424" fill-rule="nonzero" x="7.18518519" y="7.2" width="5.38888889" height="5.472"></rect>
                        </g>
                        <g id="Group-3" transform="translate(0.000000, 4.800000)">
                            <g id="photo">
                                <path d="M0.81803992,0.40019535 L48.2807255,0.40019535 C48.7321385,0.40019535 49.0987654,0.76699215 49.0987654,1.2199218 L49.0987654,40.5802734 C49.0987654,41.0326171 48.7321385,41.4 48.2807255,41.4 L0.81803992,41.4 C0.366626918,41.4 0,41.0326171 0,40.5802734 L0,1.2199218 C0,0.76699215 0.366626918,0.40019535 0.81803992,0.40019535 Z" id="Path" fill="#F5A623"></path>
                                <polygon id="Path" fill="#FFC800" points="4.09136884 4.5 45.0073966 4.5 45.0073966 37.3001954 4.09136884 37.3001954"></polygon>
                                <path d="M24.1400704,14.3396484 C24.2423985,13.0980468 23.331971,12.0029296 22.0940936,11.8798828 C20.8568009,12.0029296 19.9463735,13.0980468 20.0487016,14.3396484 C18.8108241,14.4626953 17.9003966,15.5578125 18.0027247,16.8 L26.1860472,16.8 C26.2883754,15.5578125 25.3779477,14.4632812 24.1400704,14.3396484 Z" id="Path" fill="#F5A623"></path>
                                <path d="M38.4607386,11.0601563 C38.4607386,9.2484375 36.9954005,7.7800782 35.1874095,7.7800782 C33.3794186,7.7800782 31.9140806,9.2484375 31.9140806,11.0601563 C30.1066744,11.0601563 28.6407516,12.5285157 28.6407516,14.3396484 L41.7340675,14.3396484 C41.7340675,12.5285157 40.2687295,11.0601563 38.4607386,11.0601563 Z" id="Path" fill="#E97424"></path>
                                <polygon id="Path" fill="#F5A623" points="7.42784895 34.0201171 27.8227118 34.0201171 17.624988 19.2603516"></polygon>
                                <path d="M13.9113559,11.8798829 C13.9113559,13.2386718 12.81206,14.3396484 11.4560667,14.3396484 C10.1006582,14.3396484 9.00136229,13.2386718 9.00136229,11.8798829 C9.00136229,10.5210938 10.1006582,9.42011715 11.4560667,9.42011715 C12.81206,9.42011715 13.9113559,10.5210938 13.9113559,11.8798829 Z" id="Path" fill="#F5A623"></path>
                                <polygon id="Path" fill="#E97424" points="13.0927313 29.9203125 14.7293958 29.9203125 14.7293958 31.5597657 13.0927313 31.5597657"></polygon>
                                <polygon id="Path" fill="#E97424" points="16.3660602 27.4599609 18.0027247 27.4599609 18.0027247 29.1 16.3660602 29.1"></polygon>
                                <polygon id="Path" fill="#E97424" points="21.3392048 34.0201171 41.7340675 34.0201171 31.5363438 19.2603516"></polygon>
                                <g id="Group" transform="translate(29.339506, 26.550000)" fill="#FDBD40">
                                    <polygon id="Path" points="0.119869995 2.55 1.75653453 2.55 1.75653453 4.1900391 0.119869995 4.1900391"></polygon>
                                    <polygon id="Path" points="3.39319906 0.0902343 5.02986345 0.0902343 5.02986345 1.7302734 3.39319906 1.7302734"></polygon>
                                </g>
                            </g>
                            <g id="Group-5" transform="translate(106.580247, 2.400000)">
                                <g id="photo-copy">
                                    <path d="M0.658422374,0 L38.8600961,0 C39.2234286,0 39.5185185,0.365009286 39.5185185,0.815731671 L39.5185185,39.9842682 C39.5185185,40.4344075 39.2234286,40.8 38.8600961,40.8 L0.658422374,40.8 C0.295089959,40.8 0,40.4344075 0,39.9842682 L0,0.815731671 C0,0.365009286 0.295089959,0 0.658422374,0 Z" id="Path" fill="#F5A623"></path>
                                    <polygon id="Path" fill="#FFC800" points="4.19135802 4.8 34.7283951 4.8 34.7283951 36.6 4.19135802 36.6"></polygon>
                                    <path d="M13.7716049,13.8000001 C13.7716049,15.1257741 12.6991467,16.2 11.376258,16.2 C10.0539397,16.2 8.98148148,15.1257741 8.98148148,13.8000001 C8.98148148,12.4742259 10.0539397,11.4 11.376258,11.4 C12.6991467,11.4 13.7716049,12.4742259 13.7716049,13.8000001 Z" id="Path" fill="#F5A623"></path>
                                    <polygon id="Path" fill="#E97424" points="25.1481481 25.8 26.9444444 25.8 26.9444444 28.2 25.1481481 28.2"></polygon>
                                    <polygon id="Path" fill="#E97424" points="10.1790123 28.8 11.9753086 28.8 11.9753086 31.2 10.1790123 31.2"></polygon>
                                </g>
                                <g id="clock" transform="translate(9.580247, 13.200000)" fill="#E97424">
                                    <ellipse id="Oval" cx="6.58641975" cy="6.57338" rx="1" ry="1"></ellipse>
                                    <path d="M6.58641975,0 C2.9546679,0 0,2.96076 0,6.6 C0,10.23924 2.9546679,13.2 6.58641975,13.2 C10.2181716,13.2 13.1728395,10.23924 13.1728395,6.6 C13.1728395,2.96076 10.2181716,0 6.58641975,0 Z M6.36687243,1.73338 C6.36687243,1.61172 6.46522963,1.51338 6.58641975,1.51338 C6.70760988,1.51338 6.80596708,1.61172 6.80596708,1.73338 L6.80596708,1.95338 C6.80596708,2.07504 6.70760988,2.17338 6.58641975,2.17338 C6.46522963,2.17338 6.36687243,2.07504 6.36687243,1.95338 L6.36687243,1.73338 Z M1.97592593,6.79338 L1.7563786,6.79338 C1.63518848,6.79338 1.53683128,6.69504 1.53683128,6.57338 C1.53683128,6.45172 1.63518848,6.35338 1.7563786,6.35338 L1.97592593,6.35338 C2.09711605,6.35338 2.19547325,6.45172 2.19547325,6.57338 C2.19547325,6.69504 2.09711605,6.79338 1.97592593,6.79338 Z M3.48158148,9.99592 L3.32636152,10.15146 C3.28354979,10.19436 3.22734568,10.21592 3.17114156,10.21592 C3.11493745,10.21592 3.05873333,10.19436 3.0159216,10.15146 C2.9300786,10.06544 2.9300786,9.9264 3.0159216,9.84038 L3.17114156,9.68484 C3.25698457,9.59882 3.39573848,9.59882 3.48158148,9.68484 C3.56742449,9.77086 3.56742449,9.9099 3.48158148,9.99592 Z M3.48158148,3.46192 C3.43876975,3.50482 3.38256564,3.52638 3.32636152,3.52638 C3.27015741,3.52638 3.21395329,3.50482 3.17114156,3.46192 L3.0159216,3.30638 C2.9300786,3.22036 2.9300786,3.08132 3.0159216,2.9953 C3.10176461,2.90928 3.24051852,2.90928 3.32636152,2.9953 L3.48158148,3.15084 C3.56742449,3.23686 3.56742449,3.37612 3.48158148,3.46192 Z M6.80596708,11.41338 C6.80596708,11.53504 6.70760988,11.63338 6.58641975,11.63338 C6.46522963,11.63338 6.36687243,11.53504 6.36687243,11.41338 L6.36687243,11.19338 C6.36687243,11.07172 6.46522963,10.97338 6.58641975,10.97338 C6.70760988,10.97338 6.80596708,11.07172 6.80596708,11.19338 L6.80596708,11.41338 Z M6.58641975,7.45338 C6.17850082,7.45338 5.83754383,7.17178 5.73940617,6.79338 L4.17139918,6.79338 C4.05020905,6.79338 3.95185185,6.69504 3.95185185,6.57338 C3.95185185,6.45172 4.05020905,6.35338 4.17139918,6.35338 L5.73940617,6.35338 C5.8193214,6.0456 6.05972572,5.8047 6.36687243,5.72462 L6.36687243,3.49338 C6.36687243,3.37172 6.46522963,3.27338 6.58641975,3.27338 C6.70760988,3.27338 6.80596708,3.37172 6.80596708,3.49338 L6.80596708,5.72462 C7.18358848,5.82296 7.46460905,6.1644 7.46460905,6.57338 C7.46460905,7.0587 7.07074115,7.45338 6.58641975,7.45338 Z M10.1569179,10.15146 C10.1141062,10.19436 10.0579021,10.21592 10.0016979,10.21592 C9.94549383,10.21592 9.88928971,10.19436 9.84647798,10.15146 L9.69125802,9.99592 C9.60541502,9.9099 9.60541502,9.77086 9.69125802,9.68484 C9.77710103,9.59882 9.91585494,9.59882 10.0016979,9.68484 L10.1569179,9.84038 C10.2427609,9.92618 10.2427609,10.06544 10.1569179,10.15146 Z M10.1569179,3.30638 L10.0016979,3.46192 C9.95888621,3.50482 9.9026821,3.52638 9.84647798,3.52638 C9.79027387,3.52638 9.73406975,3.50482 9.69125802,3.46192 C9.60541502,3.3759 9.60541502,3.23686 9.69125802,3.15084 L9.84647798,2.9953 C9.93232099,2.90928 10.0710749,2.90928 10.1569179,2.9953 C10.2427609,3.08132 10.2427609,3.22058 10.1569179,3.30638 Z M11.4164609,6.79338 L11.1969136,6.79338 C11.0757235,6.79338 10.9773663,6.69504 10.9773663,6.57338 C10.9773663,6.45172 11.0757235,6.35338 11.1969136,6.35338 L11.4164609,6.35338 C11.537651,6.35338 11.6360082,6.45172 11.6360082,6.57338 C11.6360082,6.69504 11.537651,6.79338 11.4164609,6.79338 Z" id="Shape" fill-rule="nonzero"></path>
                                </g>
                            </g>
                        </g>
                    </g>
                    <rect id="Rectangle" fill="#F5A623" fill-rule="nonzero" x="115" y="101" width="9" height="9"></rect>
                    <rect id="Rectangle-Copy-13" fill="#E97424" fill-rule="nonzero" x="10" y="101" width="9" height="9"></rect>
                    <rect id="Rectangle-Copy-12" fill="#F5A623" fill-rule="nonzero" x="132" y="101" width="9" height="9"></rect>
                    <rect id="Rectangle-Copy-12" fill="#F5A623" fill-rule="nonzero" x="149" y="101" width="9" height="9"></rect>
                    <rect id="Rectangle-Copy-14" fill="#E97424" fill-rule="nonzero" x="28" y="101" width="9" height="9"></rect>
                    <g id="Group" transform="translate(56.000000, 105.000000) scale(-1, 1) translate(-56.000000, -105.000000) translate(15.000000, 48.000000)">
                        <path d="M69.047857,9.91678189 C70.64009,2.892134 63.0900811,-2.49841047 55.3148473,1.20209339 C37.0041677,9.91678189 47.6293526,22.9625565 54.1973137,21.557627 C60.7652749,20.1526974 67.455624,16.9414298 69.047857,9.91678189 Z" id="bun" fill="url(#linearGradient-3)" fill-rule="nonzero" transform="translate(57.186235, 10.831168) scale(-1, 1) translate(-57.186235, -10.831168) "></path>
                        <path d="M49.7572816,54.1901408 C41.2055975,58.3328785 39.9581744,58.1109737 21.0970874,42.5492958 C-7.36407767,19.0669014 19.5048544,-2.4084507 48.3640777,9.03169014 C79.6116505,22.8802817 69.1428497,44.7990872 49.7572816,54.1901408 Z" id="hair" fill="url(#linearGradient-4)" fill-rule="nonzero"></path>
                        <path d="M50.5533981,70.6478873 C47.6343042,77.0704225 43.9190939,80.2816901 41,80.2816901 C38.0809061,80.2816901 34.3656958,77.0704225 31.4466019,70.6478873 L31.4466019,62.6197183 C30.5807966,62.6453798 29.8510232,62.6453798 29.2572816,62.6197183 C19.9469742,62.2173276 16.8357095,47.114607 18.2968068,32.0074043 C19.3668131,20.9439382 28.6601942,36.1267606 43.7864078,25.4894366 C43.1893204,37.1302817 48.1650485,35.9260563 50.3543689,34.5211268 C60.3058252,29.9049296 60.5048544,48.7711268 50.6692674,47.3091341 C50.673259,47.5099692 50.6346358,55.2895536 50.5533981,70.6478873 Z" id="Mask" fill="url(#linearGradient-5)"></path>
                        <path d="M31.4466019,62.6197183 C35.0291262,62.3521127 39.4918568,60.3316128 44.8347938,56.5582185 C43.197643,62.2439985 38.7349124,65.6025266 31.4466019,66.6338028 L31.4466019,62.6197183 Z" id="Path-2" fill="#C1C4CB" fill-rule="nonzero"></path>
                        <path d="M28.15551,72.9827417 C28.5559207,70.1952774 29.2255741,68.6821203 30.1644703,68.4432707 C31.5728145,68.0849962 39.8037456,68.0418622 39.8112132,69.647496 C39.8125839,69.9422066 40.0944787,73.100939 41.0331715,73.100939 C41.9718644,73.100939 42.2131281,69.942035 42.2144979,69.647496 C42.2219655,68.0418622 50.4051922,68.103857 51.8612409,68.4432707 C52.8319401,68.6695464 53.4995998,70.1844716 53.8642203,72.9880461 C68.1935835,79.7925677 76.1126299,84.6471 77.6213592,87.5516432 C79.5674218,91.2981221 81.0269687,99.9953052 82,113.643192 L0,113.643192 C0.973031284,99.9953052 2.43257821,91.2981221 4.37864078,87.5516432 C5.8866905,84.6484085 13.8123136,79.792108 28.15551,72.9827417 Z" id="body" fill="url(#linearGradient-6)"></path>
                        <path d="M41,85.9014085 C40.120634,85.9014085 39.407767,85.1825417 39.407767,84.2957746 C39.407767,83.4090076 40.120634,82.6901408 41,82.6901408 C41.879366,82.6901408 42.592233,83.4090076 42.592233,84.2957746 C42.592233,85.1825417 41.879366,85.9014085 41,85.9014085 Z M41,93.9295775 C40.120634,93.9295775 39.407767,93.2107107 39.407767,92.3239437 C39.407767,91.4371766 40.120634,90.7183099 41,90.7183099 C41.879366,90.7183099 42.592233,91.4371766 42.592233,92.3239437 C42.592233,93.2107107 41.879366,93.9295775 41,93.9295775 Z M41,101.957746 C40.120634,101.957746 39.407767,101.23888 39.407767,100.352113 C39.407767,99.4653456 40.120634,98.7464789 41,98.7464789 C41.879366,98.7464789 42.592233,99.4653456 42.592233,100.352113 C42.592233,101.23888 41.879366,101.957746 41,101.957746 Z" id="buttons" fill="#664F4D"></path>
                        <path d="M51.1083852,21.847785 C57.4773172,37.904123 53.894793,45.7315878 48.9190648,55.1646864 C45.6019127,61.4534188 45.999971,67.541447 50.1132396,73.4287709 C45.3365405,70.3513061 42.948191,65.4006019 42.948191,58.5766582 C42.948191,48.3407427 50.1132396,41.9182075 44.1423658,33.4886301 C38.171492,25.0590526 44.7394532,5.79144697 51.1083852,21.847785 Z" id="hair" fill="url(#linearGradient-7)" fill-rule="nonzero" transform="translate(48.161958, 44.541850) scale(-1, 1) translate(-48.161958, -44.541850) "></path>
                    </g>
                </g>
            </g>
        </g>
    </g>
</svg>