<?xml version="1.0" encoding="UTF-8"?>
<svg width="111px" height="117px" viewBox="0 0 111 117" version="1.1" xmlns="http://www.w3.org/2000/svg" xmlns:xlink="http://www.w3.org/1999/xlink">
    <!-- Generator: Sketch 52.5 (67469) - http://www.bohemiancoding.com/sketch -->
    <title>ic_delete_storage</title>
    <desc>Created with Sketch.</desc>
    <g id="Page-1" stroke="none" stroke-width="1" fill="none" fill-rule="evenodd">
        <g id="18_3" transform="translate(-462.000000, -269.000000)">
            <g id="ic_delete_storage" transform="translate(454.000000, 263.000000)">
                <g id="Group-9">
                    <g id="Group-8">
                        <g id="Group-2" transform="translate(28.058824, 12.000000)">
                            <g id="photo" transform="translate(28.647059, 27.064516) rotate(30.000000) translate(-28.647059, -27.064516) translate(7.000000, 9.000000)">
                                <path d="M0.721328046,0 L42.5727896,0 C42.9708348,0 43.2941176,0.32322138 43.2941176,0.722343036 L43.2941176,35.4066891 C43.2941176,35.8052945 42.9708348,36.1290323 42.5727896,36.1290323 L0.721328046,36.1290323 C0.323282852,36.1290323 0,35.8052945 0,35.4066891 L0,0.722343036 C0,0.32322138 0.323282852,0 0.721328046,0 Z" id="Path" fill="#DFE3EB"></path>
                                <polygon id="Path" fill="#F5F7FB" points="3.60784314 3.61290323 39.6862745 3.61290323 39.6862745 32.516129 3.60784314 32.516129"></polygon>
                                <path d="M21.0421709,12.343835 C21.1322265,11.2801576 20.3309887,10.3419731 19.2415727,10.2365591 C18.1526714,10.3419731 17.3514336,11.2801576 17.4414893,12.343835 C16.3520733,12.449249 15.5508355,13.3874335 15.6408911,14.4516129 L22.842769,14.4516129 C22.9328247,13.3874335 22.1315867,12.449751 21.0421709,12.343835 Z" id="Path" fill="#DFE3EB"></path>
                                <path d="M33.8235295,9.03252698 C33.8235295,7.36941891 32.5449192,6.02150538 30.9673203,6.02150538 C29.3897214,6.02150538 28.1111112,7.36941891 28.1111112,9.03252698 C26.5340225,9.03252698 25.254902,10.3804407 25.254902,12.0430108 L36.6797386,12.0430108 C36.6797386,10.3804407 35.4011284,9.03252698 33.8235295,9.03252698 Z" id="Path" fill="#DFE3EB"></path>
                                <polygon id="Path" fill="#DFE3EB" points="6.61437908 29.5053763 24.6535948 29.5053763 15.6337283 16.2580645"></polygon>
                                <path d="M12.0261438,9.93548394 C12.0261438,11.0996941 11.0837593,12.0430108 9.92131801,12.0430108 C8.75937794,12.0430108 7.81699346,11.0996941 7.81699346,9.93548394 C7.81699346,8.7712736 8.75937794,7.82795699 9.92131801,7.82795699 C11.0837593,7.82795699 12.0261438,8.7712736 12.0261438,9.93548394 Z" id="Path" fill="#DFE3EB"></path>
                                <polygon id="Path" fill="#DFE3EB" points="18.6405229 29.5053763 36.6797386 29.5053763 27.6598721 16.2580645"></polygon>
                                <g id="Group" transform="translate(25.856209, 22.881720)" fill="#F5F7FB">
                                    <polygon id="Path" points="0.107003416 2.19354839 1.56799201 2.19354839 1.56799201 3.60433471 0.107003416 3.60433471"></polygon>
                                    <polygon id="Path" points="3.02898061 0.0776209032 4.48996907 0.0776209032 4.48996907 1.48840723 3.02898061 1.48840723"></polygon>
                                </g>
                            </g>
                            <g id="Group-4" transform="translate(37.111111, 26.419355) rotate(20.000000) translate(-37.111111, -26.419355) translate(23.281046, 3.838710)">
                                <g id="photo-copy-2">
                                    <path d="M0.460848474,0 L27.1992822,0 C27.4535889,0 27.6601307,0.404026724 27.6601307,0.902928795 L27.6601307,44.2583614 C27.6601307,44.7566181 27.4535889,45.1612903 27.1992822,45.1612903 L0.460848474,45.1612903 C0.206541822,45.1612903 0,44.7566181 0,44.2583614 L0,0.902928795 C0,0.404026724 0.206541822,0 0.460848474,0 Z" id="Path" fill="#DFE3EB"></path>
                                    <polygon id="Path" fill="#F5F7FB" points="4.81045752 4.8172043 22.8496732 4.8172043 22.8496732 40.344086 4.81045752 40.344086"></polygon>
                                    <polygon id="Path" fill="#DFE3EB" points="17.4379085 28.9032258 18.6405229 28.9032258 18.6405229 31.311828 17.4379085 31.311828"></polygon>
                                    <polygon id="Path" fill="#DFE3EB" points="7.21568627 31.9139785 8.41830065 31.9139785 8.41830065 34.3225806 7.21568627 34.3225806"></polygon>
                                </g>
                                <rect id="Rectangle" fill="#DFE3EB" fill-rule="nonzero" x="15.6339869" y="9.03225806" width="5.41176471" height="5.41935484"></rect>
                                <rect id="Rectangle-Copy" fill="#DFE3EB" fill-rule="nonzero" x="15.0326797" y="19.8709677" width="5.41176471" height="5.41935484"></rect>
                                <ellipse id="Oval" stroke="#DFE3EB" stroke-width="1.2" fill-rule="nonzero" cx="13.8300654" cy="34.9247312" rx="2.40522876" ry="2.40860215"></ellipse>
                            </g>
                        </g>
                        <g id="statue" transform="translate(24.529412, 29.107527) rotate(-30.000000) translate(-24.529412, -29.107527) translate(11.000000, 3.817204)" fill="#DFE3EB">
                            <path d="M27.0588235,35.5103791 L19.5423531,35.5103791 L19.5423531,32.516129 L7.51647029,32.516129 L7.51647029,35.5103791 L0,35.5103791 L0,50.5806452 L27.0588235,50.5806452 L27.0588235,35.5103791 Z M18.0392157,44.4927395 L9.01960778,44.4927395 L9.01960778,41.4984895 L18.0392157,41.4984895 L18.0392157,44.4927395 Z" id="Shape" fill-rule="nonzero"></path>
                            <path d="M23.0789908,16.3590715 L19.0226423,15.3638414 C20.2950153,14.0224443 21.0353761,12.2460408 21.0353761,10.3876907 L21.0353761,7.76118683 C21.0353761,3.73086855 17.8886472,0 13.5586701,0 C9.40928776,0 6.02332922,3.36057705 6.02332922,7.44641998 L6.02332922,10.3876907 C6.02332922,12.2460408 6.76369009,14.0224443 8.03645398,15.3638414 L3.97971447,16.3575398 C-0.152859196,17.368853 -0.0484894042,20.9185965 0.018745052,23.7721768 C0.02890835,24.2029709 0.018745052,26.5641056 0.018745052,26.5641056 L3.90075313,26.5641056 L6.90324065,29.5053763 L20.1558556,29.5053763 L23.1579523,26.5641056 L27.0399603,26.5641056 C27.0399603,26.5641056 27.0297969,24.2029709 27.0399603,23.7721768 C27.1075857,20.9185965 27.2115645,17.36847 23.0789908,16.3590715 Z" id="Path"></path>
                        </g>
                    </g>
                    <g id="rubbish-bin" transform="translate(22.000000, 48.000000)" fill="#DFE3EB" fill-rule="nonzero">
                        <path d="M2.78943083,69.564543 C2.88325992,72.1832994 4.72727622,74.25 6.96981171,74.25 L46.0301883,74.25 C48.2727238,74.25 50.1167401,72.1832994 50.2105692,69.564543 L53,0.75 L0,0.75 L2.78943083,69.564543 Z M35.3359114,17.8423208 C35.3359114,16.7458206 36.0967208,15.85649 37.0354187,15.85649 L39.7536127,15.85649 C40.6917,15.85649 41.45312,16.7455827 41.45312,17.8423208 L41.45312,57.1576792 C41.45312,58.2544173 40.6923106,59.14351 39.7536127,59.14351 L37.0354187,59.14351 C36.0971279,59.14351 35.3359114,58.254893 35.3359114,57.1576792 L35.3359114,17.8423208 Z M23.4415992,17.8423208 C23.4415992,16.7458206 24.2024086,15.85649 25.140903,15.85649 L27.859097,15.85649 C28.7971843,15.85649 29.5584008,16.7455827 29.5584008,17.8423208 L29.5584008,57.1576792 C29.5584008,58.2544173 28.7977949,59.14351 27.859097,59.14351 L25.140903,59.14351 C24.2026121,59.14351 23.4415992,58.254893 23.4415992,57.1576792 L23.4415992,17.8423208 Z M11.54688,17.8423208 C11.54688,16.7458206 12.3076894,15.85649 13.2461837,15.85649 L15.9645813,15.85649 C16.9028721,15.85649 17.663885,16.7455827 17.663885,17.8423208 L17.663885,57.1576792 C17.663885,58.2544173 16.9030757,59.14351 15.9645813,59.14351 L13.2461837,59.14351 C12.3078929,59.14351 11.54688,58.254893 11.54688,57.1576792 L11.54688,17.8423208 Z" id="Shape"></path>
                    </g>
                    <path d="M117.220403,112.455982 L105.006714,112.455982 L105.006714,109.309319 C105.006714,108.862455 104.740878,108.5 104.412825,108.5 L91.5871749,108.5 C91.2592601,108.5 90.9934242,108.862455 90.9934242,109.309319 L90.9934242,112.455794 L78.7795967,112.455794 C77.7966799,112.455794 77,113.541654 77,114.88112 L77,122.5 L119,122.5 L119,114.881308 C119,113.541842 118.20332,112.455982 117.220403,112.455982 Z" id="Path" fill="#DFE3EB"></path>
                </g>
            </g>
        </g>
    </g>
</svg>