<?xml version="1.0" encoding="UTF-8"?>
<svg width="135px" height="102px" viewBox="0 0 135 102" version="1.1" xmlns="http://www.w3.org/2000/svg" xmlns:xlink="http://www.w3.org/1999/xlink">
    <!-- Generator: Sketch 52.5 (67469) - http://www.bohemiancoding.com/sketch -->
    <title>ic_empty_state</title>
    <desc>Created with Sketch.</desc>
    <g id="Page-1" stroke="none" stroke-width="1" fill="none" fill-rule="evenodd">
        <g id="17_1" transform="translate(-546.000000, -339.000000)">
            <g id="ic_empty_state" transform="translate(546.000000, 339.000000)">
                <g id="Group-8">
                    <g id="Group-2" transform="translate(27.000000, 0.000000)">
                        <g id="Group-4" transform="translate(62.000000, 18.000000)">
                            <g id="photo-copy-2">
                                <path d="M0.766411049,0 L45.233589,0 C45.656512,0 46,0.670972953 46,1.49950675 L46,73.500493 C46,74.327955 45.656512,75 45.233589,75 L0.766411049,75 C0.34348803,75 0,74.327955 0,73.500493 L0,1.49950675 C0,0.670972953 0.34348803,0 0.766411049,0 Z" id="Path" fill="#DFE3EB"></path>
                                <polygon id="Path" fill="#F5F7FB" points="8 8 38 8 38 67 8 67"></polygon>
                                <polygon id="Path" fill="#DFE3EB" points="29 48 31 48 31 52 29 52"></polygon>
                                <polygon id="Path" fill="#DFE3EB" points="12 53 14 53 14 57 12 57"></polygon>
                            </g>
                            <rect id="Rectangle" fill="#DFE3EB" fill-rule="nonzero" x="26" y="15" width="9" height="9"></rect>
                            <rect id="Rectangle-Copy" fill="#DFE3EB" fill-rule="nonzero" x="25" y="33" width="9" height="9"></rect>
                            <circle id="Oval" stroke="#DFE3EB" stroke-width="2" fill-rule="nonzero" cx="23" cy="58" r="4"></circle>
                        </g>
                        <g id="photo">
                            <path d="M1.1995999,0 L70.8004001,0 C71.4623666,0 72,0.536778362 72,1.1996054 L72,58.8003944 C72,59.462364 71.4623666,60 70.8004001,60 L1.1995999,60 C0.537633439,60 0,59.462364 0,58.8003944 L0,1.1996054 C0,0.536778362 0.537633439,0 1.1995999,0 Z" id="Path" fill="#DFE3EB"></path>
                            <polygon id="Path" fill="#F5F7FB" points="6 6 66 6 66 54 6 54"></polygon>
                            <path d="M34.994045,20.4995831 C35.1438115,18.7331188 33.8113182,17.1750624 31.999572,17 C30.1886818,17.1750624 28.8561885,18.7331188 29.005955,20.4995831 C27.1942088,20.6746457 25.8617155,22.2327021 26.011482,24 L37.988518,24 C38.1382845,22.2327021 36.805791,20.6754793 34.994045,20.4995831 Z" id="Path" fill="#DFE3EB"></path>
                            <path d="M56.2500001,15.0004466 C56.2500001,12.2384993 54.1236156,10 51.5,10 C48.8763844,10 46.7500001,12.2384993 46.7500001,15.0004466 C44.127233,15.0004466 42,17.2389461 42,20 L61,20 C61,17.2389461 58.8736157,15.0004466 56.2500001,15.0004466 Z" id="Path" fill="#DFE3EB"></path>
                            <polygon id="Path" fill="#DFE3EB" points="11 49 41 49 25.99957 27"></polygon>
                            <path d="M20,16.5000001 C20,18.4334206 18.4327736,20 16.4995832,20 C14.5672264,20 13,18.4334206 13,16.5000001 C13,14.5665794 14.5672264,13 16.4995832,13 C18.4327736,13 20,14.5665794 20,16.5000001 Z" id="Path" fill="#DFE3EB"></path>
                            <polygon id="Path" fill="#DFE3EB" points="31 49 61 49 45.9995699 27"></polygon>
                            <g id="Group" transform="translate(43.000000, 38.000000)" fill="#F5F7FB">
                                <polygon id="Path" points="0.177951333 3.64285714 2.60763889 3.64285714 2.60763889 5.98577014 0.177951333 5.98577014"></polygon>
                                <polygon id="Path" points="5.03732644 0.128906143 7.46701378 0.128906143 7.46701378 2.47181914 5.03732644 2.47181914"></polygon>
                            </g>
                        </g>
                    </g>
                    <g id="Group-3" transform="translate(52.000000, 70.000000)">
                        <g id="FAB-Normal" fill="#DFE3EB">
                            <circle id="Shape" cx="16" cy="16" r="16"></circle>
                        </g>
                        <g id="Add" transform="translate(8.000000, 8.000000)">
                            <rect id="Bounds" x="0" y="0" width="16" height="16"></rect>
                            <polygon id="Shape" fill="#FFFFFF" points="7.33333333 3.33333333 7.33333333 7.33333333 3.33333333 7.33333333 3.33333333 8.66666667 7.33333333 8.66666667 7.33333333 12.6666667 8.66666667 12.6666667 8.66666667 8.66666667 12.6666667 8.66666667 12.6666667 7.33333333 8.66666667 7.33333333 8.66666667 3.33333333"></polygon>
                        </g>
                    </g>
                    <g id="statue" transform="translate(0.000000, 31.000000)" fill="#DFE3EB">
                        <path d="M32.8810829,43.3302947 L23.7472901,43.3302947 L23.7472901,39.7435897 L9.13379261,39.7435897 L9.13379261,43.3302947 L0,43.3302947 L0,61.3824267 L32.8810829,61.3824267 L32.8810829,43.3302947 Z M21.9207219,54.0899426 L10.9603609,54.0899426 L10.9603609,50.5032377 L21.9207219,50.5032377 L21.9207219,54.0899426 Z" id="Shape" fill-rule="nonzero"></path>
                        <path d="M28.0839408,19.9489157 L23.1479255,18.7352916 C24.6962275,17.0995376 25.5971442,14.9333191 25.5971442,12.6671716 L25.5971442,9.46430617 C25.5971442,4.54957251 21.7680102,0 16.4990268,0 C11.4498022,0 7.32955884,4.09802403 7.32955884,9.0804667 L7.32955884,12.6671716 C7.32955884,14.9333191 8.23047564,17.0995376 9.77925332,18.7352916 L4.84276225,19.9470479 C-0.186008506,21.1802842 -0.0590049004,25.5089855 0.0228101365,28.988757 C0.0351774649,29.5140848 0.0228101365,32.3933483 0.0228101365,32.3933483 L4.74667721,32.3933483 L8.40028938,35.9800532 L24.5268894,35.9800532 L28.1800259,32.3933483 L32.903893,32.3933483 C32.903893,32.3933483 32.8915255,29.5140848 32.903893,28.988757 C32.9861837,25.5089855 33.1127115,21.1798172 28.0839408,19.9489157 Z" id="Path"></path>
                    </g>
                </g>
            </g>
        </g>
    </g>
</svg>