<svg width="130" height="130" viewBox="0 0 130 130" fill="none" xmlns="http://www.w3.org/2000/svg">
<rect width="130" height="130" fill="white"/>
<g clip-path="url(#clip0)">
<path d="M55.9916 41.4175H3.95682C3.43057 41.4175 3 41.8497 3 42.3781V76.8153C3 77.3516 3.43057 77.7839 3.95682 77.7839H55.9837C56.5099 77.7839 56.9405 77.3516 56.9405 76.8153V42.3861C56.9485 41.8497 56.5179 41.4175 55.9916 41.4175ZM49.7803 47.5493H10.3196L5.76679 43.0985H54.2136L49.7803 47.5493ZM49.3019 49.2303V70.3073H10.9416V49.2303H49.3019ZM9.26714 48.8701V70.8596L4.67443 74.782V44.3793L9.26714 48.8701ZM10.5349 71.9883H49.9796L49.9238 72.0443L53.9664 76.1028H5.703L10.5349 71.9883ZM51.1119 70.8596L50.9843 70.9877V48.726L55.282 44.4113V75.0382L51.1119 70.8596Z" fill="#DFE3EB"/>
<path d="M18.3011 36.3664H54.381C54.9072 36.3664 55.3378 35.9341 55.3378 35.4058V0.960591C55.3378 0.432266 54.9072 0 54.381 0H18.3011C17.7748 0 17.3442 0.432266 17.3442 0.960591V35.3978C17.3442 35.9341 17.7748 36.3664 18.3011 36.3664ZM24.8792 30.5708H48.377L48.3211 30.6268L52.3637 34.6853H20.0472L24.8792 30.5708ZM25.2778 28.8898V7.81281H47.6912V28.8898H25.2778V28.8898ZM49.5012 29.4341L49.3736 29.5622V7.3085L53.6713 2.99384V33.6207L49.5012 29.4341ZM48.1776 6.13177H24.6559L20.111 1.68103H52.6109L48.1776 6.13177ZM23.6114 7.45259V29.4421L19.0187 33.3565V2.95382L23.6114 7.45259Z" fill="#DFE3EB"/>
<path d="M91.9834 24.9754C92.406 24.9754 92.7568 24.6311 92.7568 24.2069V21.9255L94.1681 21.9895C94.5907 22.0135 94.9495 21.6773 94.9734 21.2531C94.9894 20.8288 94.6625 20.4686 94.2399 20.4446L92.0232 20.3485C91.8079 20.3405 91.6086 20.4206 91.4571 20.5646C91.3056 20.7087 91.2179 20.9089 91.2179 21.125V24.2149C91.2099 24.6311 91.5528 24.9754 91.9834 24.9754Z" fill="#DFE3EB"/>
<path d="M95.7392 64.2475C95.9625 64.2475 96.1858 64.1515 96.3373 63.9674C96.6084 63.6392 96.5605 63.1509 96.2336 62.8787L91.4176 58.9243C91.0907 58.6521 90.6043 58.7001 90.3332 59.0283C90.0621 59.3565 90.11 59.8448 90.4369 60.117L95.2529 64.0714C95.3964 64.1915 95.5718 64.2475 95.7392 64.2475Z" fill="#DFE3EB"/>
<path d="M107.675 43.3387C107.691 42.9144 107.356 42.5542 106.934 42.5382C102.134 42.3621 100.284 46.1084 99.989 48.1096L98.9285 54.5776C98.8567 55.0018 99.1438 55.3941 99.5664 55.4661C99.6062 55.4741 99.6541 55.4741 99.6939 55.4741C100.061 55.4741 100.388 55.2019 100.451 54.8257L101.512 48.3497C101.536 48.1656 102.237 43.923 106.886 44.0831C107.301 44.0911 107.667 43.7629 107.675 43.3387Z" fill="#DFE3EB"/>
<path d="M124.22 0.0960693H64.1323C63.7097 0.0960693 63.3589 0.440281 63.3589 0.864542V76.7032C63.3589 77.1275 63.7017 77.4797 64.1323 77.4797H124.22C124.643 77.4797 124.994 77.1355 124.994 76.7032V0.872547C124.986 0.440281 124.643 0.0960693 124.22 0.0960693ZM85.6208 35.686C83.8507 36.0142 79.856 37.6152 78.0859 45.2839C77.5437 45.9643 76.7623 46.6847 75.941 47.4452C74.7769 48.5179 73.5091 49.6866 72.4885 51.0875V24.0068H83.9783C83.9703 26.7685 84.5284 30.3307 85.9397 31.7716C85.5092 32.9803 85.549 34.6854 85.6208 35.686ZM85.7085 21.6693C85.8839 20.9089 86.1391 20.2285 86.4022 19.6601L86.8407 25.1675C86.8886 25.8239 87.056 26.4723 87.3191 27.0887C87.5902 27.6971 87.9491 28.2574 88.4035 28.7377C89.0334 29.4101 89.8069 29.9224 90.66 30.2426L90.7876 31.8916C90.2295 32.2358 89.1849 32.9163 88.1245 33.7488C87.7577 34.037 87.4228 34.3251 87.1118 34.5973C87.1039 33.5487 87.1995 32.46 87.5265 31.9477C87.6461 31.7636 87.678 31.5394 87.6221 31.3233C87.5663 31.1152 87.4228 30.9391 87.2235 30.835C85.8919 30.1706 85.1025 24.335 85.7085 21.6693ZM89.0016 20.6287L88.0288 20.6367L87.7816 17.4748C87.7896 17.4588 87.7976 17.4427 87.7976 17.4347C88.2839 16.9785 89.4401 16.0259 90.7079 15.9058C93.06 15.6817 95.9464 16.0179 96.4169 18.8756L96.7039 27.2168L95.763 28.0253C94.9498 28.7297 93.9132 29.0979 92.8288 29.0739H92.6215C91.4574 29.0499 90.3331 28.5456 89.5358 27.6891C89.2009 27.3288 88.9298 26.9206 88.7304 26.4723C88.5311 26.016 88.4115 25.5437 88.3716 25.0554L88.1484 22.1817L89.0016 22.1737C89.4241 22.1737 89.767 21.8214 89.767 21.3972C89.767 20.9729 89.4241 20.6287 89.0016 20.6287ZM91.9916 32.9723C92.2468 32.8202 92.3982 32.54 92.3743 32.2439L92.2467 30.5948C92.3664 30.6028 92.486 30.6108 92.5976 30.6189H92.8049C94.2561 30.6509 95.6674 30.1466 96.7757 29.202L96.7837 29.194L97.1425 39.4803C96.4408 39.9126 95.763 40.3689 95.1331 40.8331C94.8222 40.8572 94.5591 40.8892 94.4315 40.8972C90.668 41.2334 87.5504 39.5123 86.3544 38.0714C86.7211 36.6065 89.7909 34.2531 91.9916 32.9723ZM98.0594 40.7211C102.461 38.0234 106.83 36.9107 106.878 36.8947C106.942 36.8787 107.014 36.8627 107.093 36.8547C107.333 37.1989 107.564 37.5511 107.787 37.9113C106.687 38.1275 103.617 38.8799 100.404 40.8732C96.9272 43.0265 92.6693 47.085 91.6487 54.2734C91.6009 54.6336 91.4972 55.6182 91.4893 55.7463C90.5564 55.234 89.6474 54.8258 88.8102 54.4975C88.8182 54.3134 88.8022 54.1213 88.8102 53.9612C89.153 48.726 92.2627 44.2673 98.0594 40.7211ZM98.6415 38.5998L98.2587 27.545C98.2587 27.537 98.2587 27.537 98.2587 27.529L97.9557 18.7716C97.9557 18.7395 97.9478 18.7075 97.9478 18.6835C97.4614 15.5376 94.7743 13.9686 90.5643 14.3689C89.9344 14.4249 89.3524 14.617 88.8261 14.8652C89.6394 13.8165 91.0428 12.8159 93.4348 12.8159C95.2767 12.8159 96.8953 13.5523 98.2587 15.0092C99.5345 16.3781 100.34 18.1312 100.579 20.0924C100.97 23.2943 101.687 29.0739 102.11 31.7556C102.142 31.9317 102.23 32.0998 102.365 32.2198L102.644 32.46C103.457 33.1564 104.893 34.3972 105.985 35.5499C104.821 35.8781 101.879 36.8227 98.6415 38.5998ZM102.102 19.9003C101.823 17.6108 100.882 15.5536 99.383 13.9446C97.7165 12.1675 95.7232 11.2629 93.4348 11.2629C88.4673 11.2629 86.5617 14.9612 86.2348 16.9705C85.7404 17.6189 84.7118 19.1558 84.2095 21.3171C84.1377 21.6373 84.0819 22.0216 84.0421 22.4538H72.4805V9.16565H115.856V22.4618H102.413C102.301 21.5173 102.19 20.6447 102.102 19.9003ZM76.9855 48.5819C77.6314 47.9895 78.2453 47.4132 78.7796 46.8448C79.5689 46.8849 81.6341 47.141 82.2082 48.6059C82.5032 50.0068 83.0693 51.2235 83.8985 52.2001C84.05 52.3842 84.2653 52.4723 84.4886 52.4723C84.664 52.4723 84.8394 52.4083 84.9829 52.2882C85.3098 52.016 85.3497 51.5277 85.0706 51.1995C82.2161 47.8214 84.1298 42.0659 84.1537 42.0099C84.2892 41.6096 84.0739 41.1693 83.6753 41.0333C83.2686 40.8972 82.8381 41.1053 82.6945 41.5136C82.6706 41.5776 82.1284 43.1786 81.9929 45.2759C81.9769 45.5721 81.969 45.8602 81.961 46.1404C81.1876 45.6921 80.3264 45.476 79.6487 45.3799C80.9404 40.0326 83.3404 38.1595 84.9112 37.5031C84.8235 37.7673 84.7756 38.0154 84.7676 38.2636C84.7597 38.4317 84.8075 38.5998 84.9112 38.7358C85.6368 39.7605 86.9524 40.7531 88.5152 41.4415C89.5756 41.9138 91.1703 42.4261 93.1238 42.4742C89.5517 45.7322 87.5504 49.6065 87.2793 53.8652C87.2793 53.8972 87.2713 53.9292 87.2713 53.9692C85.6846 53.4889 84.5922 53.3528 84.4726 53.3448C84.3052 53.3288 84.1298 53.3608 83.9862 53.4569C83.149 53.9692 82.5829 54.7697 82.3517 55.7783C82.1364 56.6989 82.2321 57.7395 82.5909 58.6281C81.8573 58.9643 81.0201 59.1404 80.3583 59.2285C78.7556 56.4507 80.3982 55.0819 80.6055 54.9298C80.9484 54.6817 81.0201 54.2014 80.7729 53.8572C80.5258 53.5129 80.0394 53.4329 79.6965 53.681C78.7078 54.3935 77.4161 56.3547 78.6042 59.1564C77.7669 58.8282 76.4593 57.8996 76.6826 55.3461C76.7782 54.2334 77.153 53.4169 77.7988 52.9046C78.8673 52.056 80.3982 52.2722 80.4141 52.2802C80.8287 52.3442 81.2274 52.056 81.2912 51.6398C81.355 51.2155 81.068 50.8233 80.6533 50.7592C80.5656 50.7432 78.4686 50.431 76.858 51.6878C75.8613 52.4723 75.2792 53.657 75.1437 55.218C74.6972 60.3492 79.0586 60.8695 79.1065 60.8775C79.1304 60.8775 82.1364 60.8695 84.0421 59.5967C84.0739 59.5727 84.8314 59.1244 84.8314 59.1244C84.959 59.2925 85.1344 59.5086 85.3417 59.7568L82.2959 61.3578C82.0407 61.4939 81.8812 61.758 81.8812 62.0382V64.3516C81.8812 64.7759 82.2241 65.1201 82.6547 65.1201C83.0773 65.1201 83.4281 64.7759 83.4281 64.3516V62.5025L86.4181 60.9255C86.8168 61.3257 87.2713 61.75 87.7736 62.1663L85.1424 62.9347C84.9112 62.9988 84.7278 63.1749 84.6401 63.391L83.5796 66.0967C83.4201 66.4969 83.6195 66.9452 84.0181 67.0973C84.1138 67.1373 84.2095 67.1533 84.2972 67.1533C84.6082 67.1533 84.8952 66.9692 85.0148 66.665L85.9318 64.3196L89.3604 63.319C89.9185 63.6632 90.5165 63.9674 91.1464 64.2155C91.2341 64.2475 91.3298 64.2636 91.4255 64.2636C91.7364 64.2636 92.0235 64.0714 92.1431 63.7673C92.2946 63.367 92.0953 62.9267 91.7046 62.7666C88.2281 61.4298 85.9238 58.0677 85.9078 58.0357C85.7165 57.7556 85.3736 57.6355 85.0547 57.7235L84.0341 58.0277C83.8028 57.4354 83.7391 56.7229 83.8746 56.1306C83.9942 55.6262 84.2334 55.226 84.6002 54.9298C85.8999 55.1459 91.569 56.3147 95.771 61.1016C95.9225 61.2777 96.1378 61.3658 96.3531 61.3658C96.5365 61.3658 96.7119 61.3017 96.8634 61.1737C97.1823 60.8935 97.2142 60.4052 96.9351 60.085C96.672 59.7808 96.393 59.4926 96.1219 59.2205L101.863 58.1718C102.046 58.1478 104.271 57.9397 105.666 59.7168C105.818 59.9089 106.041 60.0129 106.272 60.0129C106.44 60.0129 106.607 59.9569 106.743 59.8528C107.077 59.5887 107.133 59.1084 106.878 58.7722C104.893 56.2346 101.775 56.6349 101.639 56.6509C101.632 56.6509 101.616 56.6509 101.608 56.6589L94.6787 57.9156C94.1365 57.4674 93.5863 57.0671 93.0361 56.6989C93.0441 56.2907 93.0441 55.8024 93.068 55.5542C93.1079 55.154 93.1557 54.7537 93.2115 54.3615C93.9929 49.1262 96.672 45.0517 101.185 42.234C104.837 39.9526 108.393 39.3923 108.457 39.3842C108.505 39.3762 108.576 39.3682 108.656 39.3602C112.962 46.9889 115.641 57.8436 115.888 61.4058V68.4341H72.5124V54.2174C73.3815 51.912 75.2872 50.1429 76.9855 48.5819ZM115.864 53.601C114.365 48.0456 111.814 40.9612 108.313 35.9181C107.261 34.4052 104.909 32.3719 103.649 31.2833L103.585 31.2272C103.314 29.4741 102.947 26.6324 102.612 24.0068H115.864V53.601ZM116.303 7.6207H71.7151L71.8825 7.4526L66.0858 1.63302H122.267L116.303 7.6207ZM70.6945 8.64533L70.9417 8.39718V68.6903L64.8978 74.5739V2.83375L70.6945 8.64533ZM72.05 69.9551H116.071L122.028 75.9347H65.9104L72.05 69.9551ZM117.403 68.9224V8.89348L123.447 2.82575V74.9822L117.403 68.9224Z" fill="#DFE3EB"/>
<path d="M123.152 128.319V99.3572C124.898 97.8202 125.999 95.5788 125.999 93.0733C125.999 88.4624 122.259 84.7081 117.666 84.7081C113.074 84.7081 109.334 88.4624 109.334 93.0733C109.334 94.9464 109.956 96.6675 110.993 98.0604L105.921 100.334C98.3067 103.832 89.512 103.968 81.7538 100.694L74.4023 97.9883C75.407 96.6035 76.005 94.9144 76.005 93.0733C76.005 88.4624 72.2654 84.7081 67.6727 84.7081C63.08 84.7081 59.3404 88.4624 59.3404 93.0733C59.3404 94.7703 59.8507 96.3473 60.7119 97.6601L54.1736 100.662C46.559 104.16 37.7642 104.296 30.0379 101.038L21.5622 97.46C22.3515 96.1792 22.814 94.6823 22.814 93.0733C22.814 88.4624 19.0744 84.7081 14.4817 84.7081C9.889 84.7081 6.14944 88.4624 6.14944 93.0733C6.14944 95.5788 7.25776 97.8202 8.99597 99.3572V128.319H4.11621V130H128.008V128.319H123.152ZM121.478 128.319H113.863V100.502C115.003 101.094 116.295 101.43 117.666 101.43C119.038 101.43 120.329 101.086 121.47 100.494V128.319H121.478ZM117.674 86.3892C121.342 86.3892 124.332 89.391 124.332 93.0733C124.332 96.7555 121.342 99.7574 117.674 99.7574C114.007 99.7574 111.016 96.7555 111.016 93.0733C111.016 89.383 114.007 86.3892 117.674 86.3892ZM93.435 104.728C97.94 104.728 102.453 103.768 106.615 101.855L112.189 99.3572V128.311H73.1664V99.3491C73.1744 99.3411 73.1824 99.3331 73.1983 99.3251L81.1478 102.255C85.0708 103.904 89.2569 104.728 93.435 104.728ZM67.6886 101.43C69.0601 101.43 70.3518 101.086 71.492 100.494V128.311H63.8773V100.494C65.0255 101.094 66.3172 101.43 67.6886 101.43ZM67.6886 86.3892C71.3564 86.3892 74.3465 89.391 74.3465 93.0733C74.3465 96.7555 71.3564 99.7574 67.6886 99.7574C64.0208 99.7574 61.0308 96.7555 61.0308 93.0733C61.0308 89.383 64.0129 86.3892 67.6886 86.3892ZM29.408 102.583C33.331 104.24 37.5171 105.065 41.6951 105.065C46.2081 105.065 50.7131 104.104 54.8833 102.191L61.8202 99.0049C61.9398 99.125 62.0753 99.2371 62.2029 99.3491V128.311H19.9914V99.3491C20.1748 99.181 20.3582 99.0129 20.5336 98.8288L29.408 102.583ZM7.84779 93.0653C7.84779 89.383 10.8378 86.3812 14.5056 86.3812C18.1734 86.3812 21.1635 89.383 21.1635 93.0653C21.1635 96.7475 18.1814 99.7494 14.5056 99.7494C10.8299 99.7494 7.84779 96.7556 7.84779 93.0653ZM10.7023 100.502C11.8425 101.094 13.1342 101.43 14.5056 101.43C15.8771 101.43 17.1688 101.086 18.309 100.502V128.319H10.7023V100.502Z" fill="#DFE3EB"/>
</g>
<defs>
<clipPath id="clip0">
<rect width="125" height="130" fill="white" transform="translate(3)"/>
</clipPath>
</defs>
</svg>
