<?xml version="1.0" encoding="UTF-8"?>
<svg width="216px" height="161px" viewBox="0 0 216 161" version="1.1" xmlns="http://www.w3.org/2000/svg" xmlns:xlink="http://www.w3.org/1999/xlink">
    <!-- Generator: Sketch 52.4 (67378) - http://www.bohemiancoding.com/sketch -->
    <title>ic_gallery</title>
    <desc>Created with Sketch.</desc>
    <defs>
        <rect id="path-1" x="0" y="0" width="215" height="161"></rect>
        <linearGradient x1="50%" y1="0%" x2="50%" y2="100%" id="linearGradient-3">
            <stop stop-color="#FFF9F5" offset="0%"></stop>
            <stop stop-color="#EBEEFC" offset="100%"></stop>
        </linearGradient>
        <linearGradient x1="50%" y1="0%" x2="50%" y2="100%" id="linearGradient-4">
            <stop stop-color="#FDF8F6" offset="0%"></stop>
            <stop stop-color="#EBEEFC" offset="100%"></stop>
        </linearGradient>
        <linearGradient x1="50%" y1="0%" x2="50%" y2="100%" id="linearGradient-5">
            <stop stop-color="#DEE5F5" offset="0%"></stop>
            <stop stop-color="#DBE2F1" offset="10.012701%"></stop>
            <stop stop-color="#C1C4CB" offset="100%"></stop>
        </linearGradient>
        <linearGradient x1="50%" y1="32.9997733%" x2="50%" y2="100%" id="linearGradient-6">
            <stop stop-color="#F7F5F8" offset="0%"></stop>
            <stop stop-color="#F0F1FA" offset="64.9423688%"></stop>
            <stop stop-color="#D7D9E6" offset="100%"></stop>
        </linearGradient>
    </defs>
    <g id="Page-1" stroke="none" stroke-width="1" fill="none" fill-rule="evenodd">
        <g id="3" transform="translate(-540.000000, -243.000000)">
            <g id="ic_gallery" transform="translate(540.000000, 243.000000)">
                <g id="Group-2">
                    <g id="Group-8">
                        <g id="Group-Copy-2">
                            <mask id="mask-2" fill="white">
                                <use xlink:href="#path-1"></use>
                            </mask>
                            <use id="Rectangle" fill="#FFC800" fill-rule="nonzero" xlink:href="#path-1"></use>
                        </g>
                        <rect id="Rectangle" fill="#E97424" fill-rule="nonzero" x="0" y="126" width="215" height="35"></rect>
                        <path d="M15,104 C23.9052279,109.45244 30.7385612,112.191223 35.5,112.216348 C40.2614388,112.241473 47.0947721,109.574806 56,104.216348" id="Path-5" stroke="#E97424" stroke-width="2" fill-rule="nonzero"></path>
                        <path d="M0.262991092,111.533681 C3.0744709,110.798377 8.32014053,108.359266 16,104.216348" id="Path-5-Copy-4" stroke="#E97424" stroke-width="2" fill-rule="nonzero"></path>
                        <path d="M56,104 C64.9052279,109.45244 71.7385612,112.191223 76.5,112.216348 C81.2614388,112.241473 88.0947721,109.574806 97,104.216348" id="Path-5-Copy" stroke="#E97424" stroke-width="2" fill-rule="nonzero"></path>
                        <path d="M96,104 C104.905228,109.45244 111.738561,112.191223 116.5,112.216348 C121.261439,112.241473 128.094772,109.574806 137,104.216348" id="Path-5-Copy-2" stroke="#E97424" stroke-width="2" fill-rule="nonzero"></path>
                        <path d="M136,104 C144.905228,109.45244 151.738561,112.191223 156.5,112.216348 C161.261439,112.241473 168.094772,109.574806 177,104.216348" id="Path-5-Copy-3" stroke="#E97424" stroke-width="2" fill-rule="nonzero"></path>
                        <path d="M176,104 C184.905228,109.45244 191.738561,112.191223 196.5,112.216348 C200.842497,112.239262 206.908331,110.023228 214.697503,105.568246" id="Path-5-Copy-5" stroke="#E97424" stroke-width="2" fill-rule="nonzero"></path>
                        <rect id="Rectangle" fill="#F5A623" fill-rule="nonzero" x="11" y="97" width="7" height="7" rx="3.5"></rect>
                        <rect id="Rectangle-Copy-4" fill="#F5A623" fill-rule="nonzero" x="52" y="97" width="7" height="7" rx="3.5"></rect>
                        <rect id="Rectangle-Copy-6" fill="#F5A623" fill-rule="nonzero" x="93" y="97" width="7" height="7" rx="3.5"></rect>
                        <rect id="Rectangle-Copy-8" fill="#F5A623" fill-rule="nonzero" x="133" y="97" width="7" height="7" rx="3.5"></rect>
                        <rect id="Rectangle-Copy-10" fill="#F5A623" fill-rule="nonzero" x="173" y="97" width="7" height="7" rx="3.5"></rect>
                        <rect id="Rectangle" fill="#F5A623" fill-rule="nonzero" x="13" y="98" width="3" height="28"></rect>
                        <rect id="Rectangle-Copy-5" fill="#F5A623" fill-rule="nonzero" x="54" y="98" width="3" height="28"></rect>
                        <rect id="Rectangle-Copy-7" fill="#F5A623" fill-rule="nonzero" x="95" y="98" width="3" height="28"></rect>
                        <rect id="Rectangle-Copy-9" fill="#F5A623" fill-rule="nonzero" x="135" y="98" width="3" height="28"></rect>
                        <rect id="Rectangle-Copy-11" fill="#F5A623" fill-rule="nonzero" x="175" y="98" width="3" height="28"></rect>
                        <g id="Group-7" transform="translate(8.000000, 35.000000)">
                            <g id="Group-4" transform="translate(62.271605, 0.000000)">
                                <g id="photo-copy-2">
                                    <path d="M0.458900443,0 L27.0843094,0 C27.3375411,0 27.5432099,0.407951555 27.5432099,0.911700103 L27.5432099,44.6882997 C27.5432099,45.1913966 27.3375411,45.6 27.0843094,45.6 L0.458900443,45.6 C0.205668759,45.6 0,45.1913966 0,44.6882997 L0,0.911700103 C0,0.407951555 0.205668759,0 0.458900443,0 Z" id="Path" fill="#F6AA1E"></path>
                                    <polygon id="Path" fill="#FFC800" points="4.79012346 4.864 22.7530864 4.864 22.7530864 40.736 4.79012346 40.736"></polygon>
                                    <polygon id="Path" fill="#F6AA1E" points="17.3641975 29.184 18.5617284 29.184 18.5617284 31.616 17.3641975 31.616"></polygon>
                                    <polygon id="Path" fill="#F6AA1E" points="7.18518519 32.224 8.38271605 32.224 8.38271605 34.656 7.18518519 34.656"></polygon>
                                </g>
                                <rect id="Rectangle" fill="#F5A623" fill-rule="nonzero" x="15.5679012" y="9.12" width="5.38888889" height="5.472"></rect>
                                <rect id="Rectangle-Copy" fill="#F5A623" fill-rule="nonzero" x="14.9691358" y="20.064" width="5.38888889" height="5.472"></rect>
                                <ellipse id="Oval" stroke="#E97424" stroke-width="1.2" fill-rule="nonzero" cx="13.7716049" cy="35.264" rx="2.39506173" ry="2.432"></ellipse>
                            </g>
                            <g id="Group-4-Copy" transform="translate(166.456790, 0.000000)">
                                <g id="photo-copy-2">
                                    <path d="M0.458900443,0 L27.0843094,0 C27.3375411,0 27.5432099,0.407951555 27.5432099,0.911700103 L27.5432099,44.6882997 C27.5432099,45.1913966 27.3375411,45.6 27.0843094,45.6 L0.458900443,45.6 C0.205668759,45.6 0,45.1913966 0,44.6882997 L0,0.911700103 C0,0.407951555 0.205668759,0 0.458900443,0 Z" id="Path" fill="#F6AA1E"></path>
                                    <polygon id="Path" fill="#FFC800" points="4.79012346 4.864 22.7530864 4.864 22.7530864 40.736 4.79012346 40.736"></polygon>
                                    <polygon id="Path" fill="#E97424" points="17.3641975 29.184 18.5617284 29.184 18.5617284 31.616 17.3641975 31.616"></polygon>
                                    <polygon id="Path" fill="#F6AA1E" points="7.18518519 32.224 8.38271605 32.224 8.38271605 34.656 7.18518519 34.656"></polygon>
                                    <polygon id="Path" fill="#F6AA1E" points="17.3641975 12.384 18.5617284 12.384 18.5617284 14.816 17.3641975 14.816"></polygon>
                                    <polygon id="Path" fill="#F6AA1E" points="7.18518519 15.424 8.38271605 15.424 8.38271605 17.856 7.18518519 17.856"></polygon>
                                </g>
                                <rect id="Rectangle" fill="#F5A623" fill-rule="nonzero" x="15.5679012" y="34.8" width="5.38888889" height="5.472"></rect>
                                <rect id="Rectangle-Copy-2" fill="#E97424" fill-rule="nonzero" x="7.18518519" y="21.6" width="5.38888889" height="5.472"></rect>
                                <rect id="Rectangle-Copy" fill="#F5A623" fill-rule="nonzero" x="15.5679012" y="20.4" width="5.38888889" height="5.472"></rect>
                                <rect id="Rectangle-Copy-3" fill="#E97424" fill-rule="nonzero" x="7.18518519" y="7.2" width="5.38888889" height="5.472"></rect>
                            </g>
                            <g id="Group-3" transform="translate(0.000000, 4.800000)">
                                <g id="photo">
                                    <path d="M0.81803992,0.40019535 L48.2807255,0.40019535 C48.7321385,0.40019535 49.0987654,0.76699215 49.0987654,1.2199218 L49.0987654,40.5802734 C49.0987654,41.0326171 48.7321385,41.4 48.2807255,41.4 L0.81803992,41.4 C0.366626918,41.4 0,41.0326171 0,40.5802734 L0,1.2199218 C0,0.76699215 0.366626918,0.40019535 0.81803992,0.40019535 Z" id="Path" fill="#F5A623"></path>
                                    <polygon id="Path" fill="#FFC800" points="4.09136884 4.5 45.0073966 4.5 45.0073966 37.3001954 4.09136884 37.3001954"></polygon>
                                    <path d="M24.1400704,14.3396484 C24.2423985,13.0980468 23.331971,12.0029296 22.0940936,11.8798828 C20.8568009,12.0029296 19.9463735,13.0980468 20.0487016,14.3396484 C18.8108241,14.4626953 17.9003966,15.5578125 18.0027247,16.8 L26.1860472,16.8 C26.2883754,15.5578125 25.3779477,14.4632812 24.1400704,14.3396484 Z" id="Path" fill="#F5A623"></path>
                                    <path d="M38.4607386,11.0601563 C38.4607386,9.2484375 36.9954005,7.7800782 35.1874095,7.7800782 C33.3794186,7.7800782 31.9140806,9.2484375 31.9140806,11.0601563 C30.1066744,11.0601563 28.6407516,12.5285157 28.6407516,14.3396484 L41.7340675,14.3396484 C41.7340675,12.5285157 40.2687295,11.0601563 38.4607386,11.0601563 Z" id="Path" fill="#E97424"></path>
                                    <polygon id="Path" fill="#F5A623" points="7.42784895 34.0201171 27.8227118 34.0201171 17.624988 19.2603516"></polygon>
                                    <path d="M13.9113559,11.8798829 C13.9113559,13.2386718 12.81206,14.3396484 11.4560667,14.3396484 C10.1006582,14.3396484 9.00136229,13.2386718 9.00136229,11.8798829 C9.00136229,10.5210938 10.1006582,9.42011715 11.4560667,9.42011715 C12.81206,9.42011715 13.9113559,10.5210938 13.9113559,11.8798829 Z" id="Path" fill="#F5A623"></path>
                                    <polygon id="Path" fill="#E97424" points="13.0927313 29.9203125 14.7293958 29.9203125 14.7293958 31.5597657 13.0927313 31.5597657"></polygon>
                                    <polygon id="Path" fill="#E97424" points="16.3660602 27.4599609 18.0027247 27.4599609 18.0027247 29.1 16.3660602 29.1"></polygon>
                                    <polygon id="Path" fill="#E97424" points="21.3392048 34.0201171 41.7340675 34.0201171 31.5363438 19.2603516"></polygon>
                                    <g id="Group" transform="translate(29.339506, 26.550000)" fill="#FDBD40">
                                        <polygon id="Path" points="0.119869995 2.55 1.75653453 2.55 1.75653453 4.1900391 0.119869995 4.1900391"></polygon>
                                        <polygon id="Path" points="3.39319906 0.0902343 5.02986345 0.0902343 5.02986345 1.7302734 3.39319906 1.7302734"></polygon>
                                    </g>
                                </g>
                                <g id="Group-5" transform="translate(106.580247, 2.400000)">
                                    <g id="photo-copy">
                                        <path d="M0.658422374,0 L38.8600961,0 C39.2234286,0 39.5185185,0.365009286 39.5185185,0.815731671 L39.5185185,39.9842682 C39.5185185,40.4344075 39.2234286,40.8 38.8600961,40.8 L0.658422374,40.8 C0.295089959,40.8 0,40.4344075 0,39.9842682 L0,0.815731671 C0,0.365009286 0.295089959,0 0.658422374,0 Z" id="Path" fill="#F5A623"></path>
                                        <polygon id="Path" fill="#FFC800" points="4.19135802 4.8 34.7283951 4.8 34.7283951 36.6 4.19135802 36.6"></polygon>
                                        <path d="M13.7716049,13.8000001 C13.7716049,15.1257741 12.6991467,16.2 11.376258,16.2 C10.0539397,16.2 8.98148148,15.1257741 8.98148148,13.8000001 C8.98148148,12.4742259 10.0539397,11.4 11.376258,11.4 C12.6991467,11.4 13.7716049,12.4742259 13.7716049,13.8000001 Z" id="Path" fill="#F5A623"></path>
                                        <polygon id="Path" fill="#E97424" points="25.1481481 25.8 26.9444444 25.8 26.9444444 28.2 25.1481481 28.2"></polygon>
                                        <polygon id="Path" fill="#E97424" points="10.1790123 28.8 11.9753086 28.8 11.9753086 31.2 10.1790123 31.2"></polygon>
                                    </g>
                                    <g id="clock" transform="translate(9.580247, 13.200000)" fill="#E97424">
                                        <ellipse id="Oval" cx="6.58641975" cy="6.57338" rx="1" ry="1"></ellipse>
                                        <path d="M6.58641975,0 C2.9546679,0 0,2.96076 0,6.6 C0,10.23924 2.9546679,13.2 6.58641975,13.2 C10.2181716,13.2 13.1728395,10.23924 13.1728395,6.6 C13.1728395,2.96076 10.2181716,0 6.58641975,0 Z M6.36687243,1.73338 C6.36687243,1.61172 6.46522963,1.51338 6.58641975,1.51338 C6.70760988,1.51338 6.80596708,1.61172 6.80596708,1.73338 L6.80596708,1.95338 C6.80596708,2.07504 6.70760988,2.17338 6.58641975,2.17338 C6.46522963,2.17338 6.36687243,2.07504 6.36687243,1.95338 L6.36687243,1.73338 Z M1.97592593,6.79338 L1.7563786,6.79338 C1.63518848,6.79338 1.53683128,6.69504 1.53683128,6.57338 C1.53683128,6.45172 1.63518848,6.35338 1.7563786,6.35338 L1.97592593,6.35338 C2.09711605,6.35338 2.19547325,6.45172 2.19547325,6.57338 C2.19547325,6.69504 2.09711605,6.79338 1.97592593,6.79338 Z M3.48158148,9.99592 L3.32636152,10.15146 C3.28354979,10.19436 3.22734568,10.21592 3.17114156,10.21592 C3.11493745,10.21592 3.05873333,10.19436 3.0159216,10.15146 C2.9300786,10.06544 2.9300786,9.9264 3.0159216,9.84038 L3.17114156,9.68484 C3.25698457,9.59882 3.39573848,9.59882 3.48158148,9.68484 C3.56742449,9.77086 3.56742449,9.9099 3.48158148,9.99592 Z M3.48158148,3.46192 C3.43876975,3.50482 3.38256564,3.52638 3.32636152,3.52638 C3.27015741,3.52638 3.21395329,3.50482 3.17114156,3.46192 L3.0159216,3.30638 C2.9300786,3.22036 2.9300786,3.08132 3.0159216,2.9953 C3.10176461,2.90928 3.24051852,2.90928 3.32636152,2.9953 L3.48158148,3.15084 C3.56742449,3.23686 3.56742449,3.37612 3.48158148,3.46192 Z M6.80596708,11.41338 C6.80596708,11.53504 6.70760988,11.63338 6.58641975,11.63338 C6.46522963,11.63338 6.36687243,11.53504 6.36687243,11.41338 L6.36687243,11.19338 C6.36687243,11.07172 6.46522963,10.97338 6.58641975,10.97338 C6.70760988,10.97338 6.80596708,11.07172 6.80596708,11.19338 L6.80596708,11.41338 Z M6.58641975,7.45338 C6.17850082,7.45338 5.83754383,7.17178 5.73940617,6.79338 L4.17139918,6.79338 C4.05020905,6.79338 3.95185185,6.69504 3.95185185,6.57338 C3.95185185,6.45172 4.05020905,6.35338 4.17139918,6.35338 L5.73940617,6.35338 C5.8193214,6.0456 6.05972572,5.8047 6.36687243,5.72462 L6.36687243,3.49338 C6.36687243,3.37172 6.46522963,3.27338 6.58641975,3.27338 C6.70760988,3.27338 6.80596708,3.37172 6.80596708,3.49338 L6.80596708,5.72462 C7.18358848,5.82296 7.46460905,6.1644 7.46460905,6.57338 C7.46460905,7.0587 7.07074115,7.45338 6.58641975,7.45338 Z M10.1569179,10.15146 C10.1141062,10.19436 10.0579021,10.21592 10.0016979,10.21592 C9.94549383,10.21592 9.88928971,10.19436 9.84647798,10.15146 L9.69125802,9.99592 C9.60541502,9.9099 9.60541502,9.77086 9.69125802,9.68484 C9.77710103,9.59882 9.91585494,9.59882 10.0016979,9.68484 L10.1569179,9.84038 C10.2427609,9.92618 10.2427609,10.06544 10.1569179,10.15146 Z M10.1569179,3.30638 L10.0016979,3.46192 C9.95888621,3.50482 9.9026821,3.52638 9.84647798,3.52638 C9.79027387,3.52638 9.73406975,3.50482 9.69125802,3.46192 C9.60541502,3.3759 9.60541502,3.23686 9.69125802,3.15084 L9.84647798,2.9953 C9.93232099,2.90928 10.0710749,2.90928 10.1569179,2.9953 C10.2427609,3.08132 10.2427609,3.22058 10.1569179,3.30638 Z M11.4164609,6.79338 L11.1969136,6.79338 C11.0757235,6.79338 10.9773663,6.69504 10.9773663,6.57338 C10.9773663,6.45172 11.0757235,6.35338 11.1969136,6.35338 L11.4164609,6.35338 C11.537651,6.35338 11.6360082,6.45172 11.6360082,6.57338 C11.6360082,6.69504 11.537651,6.79338 11.4164609,6.79338 Z" id="Shape" fill-rule="nonzero"></path>
                                    </g>
                                </g>
                            </g>
                        </g>
                        <g id="statue" transform="translate(153.000000, 71.000000)">
                            <path d="M22,28.3205438 L15.8887828,28.3205438 L15.8887828,26 L6.11121715,26 L6.11121715,28.3205438 L0,28.3205438 L0,40 L22,40 L22,28.3205438 Z M14.6666666,35.2818731 L7.33333328,35.2818731 L7.33333328,32.9613293 L14.6666666,32.9613293 L14.6666666,35.2818731 Z" id="Shape" fill="#ECEEFB" fill-rule="nonzero"></path>
                            <path d="M18.764223,13.30665 L15.4662352,12.4971188 C16.5007298,11.4060115 17.1026753,9.96106525 17.1026753,8.44946272 L17.1026753,6.31303535 C17.1026753,3.03472981 14.5442479,0 11.0237883,0 C7.65016005,0 4.89722854,2.7335306 4.89722854,6.05700051 L4.89722854,8.44946272 C4.89722854,9.96106525 5.49917412,11.4060115 6.5339865,12.4971188 L3.2356809,13.3054041 C-0.124281172,14.1280175 -0.0394239938,17.0154182 0.0152405423,19.3365519 C0.0235037455,19.6869646 0.0152405423,21.6075378 0.0152405423,21.6075378 L3.17148189,21.6075378 L5.61263479,24 L16.387587,24 L18.8284221,21.6075378 L21.9846634,21.6075378 C21.9846634,21.6075378 21.9764001,19.6869646 21.9846634,19.3365519 C22.0396457,17.0154182 22.124185,14.1277059 18.764223,13.30665 Z" id="Path" fill="url(#linearGradient-3)"></path>
                        </g>
                        <rect id="Rectangle" fill="#664F4D" fill-rule="nonzero" x="153" y="111" width="22" height="30"></rect>
                    </g>
                    <path d="M27.2066813,32.9993218 C26.6595708,32.860289 25.2282213,32 25,32 C23.8954305,32 23,30.4329966 23,28.5 C23,26.5670034 23.8954305,25 25,25 C25.510619,25 26.6465662,23.7256532 27,24.2767481 C27.0143688,24.2991527 27.0277331,24.3238805 27.0401457,24.350786 C27.2717902,24.1230949 27.5522919,23.9131874 27.8918194,23.7292164 C29.1326287,23.0568912 32.9191177,23 33.5,23 C37.0898509,23 40,25.6862915 40,29 C40,32.3137085 37.0898509,35 33.5,35 C31.943199,35 29.7646867,35.8424883 28.6454574,35 C28.1197822,34.6043034 27.6249105,33.8677161 27.2066813,32.9993218 Z" id="Combined-Shape" fill="#D8D8D8" fill-rule="nonzero"></path>
                    <path d="M30.4922816,43.7046082 L29.7374445,36.8229023 C26.5385109,36.7742294 27.1624079,31.134427 30.3767006,32.8555942 C30.9520311,33.1157455 32.4223201,32.4003293 31.9109152,30.6443077 C35.362898,33.2458212 40.173225,28.6800478 40.4769466,31.4897996 C41.0746751,37.0194307 39.9181681,41.5643657 36.8513682,41.5646918 C36.5502525,41.5647238 36.2568804,41.5750792 35.8743029,41.5056266 L37.5528002,43.3185037 C36.5517413,43.9255235 33.8721849,45.5379726 32.871126,45.5379726 C31.870067,45.5379726 31.5803436,44.311628 30.4922816,43.7046082 Z" id="Mask" fill="#FAF7F7" transform="translate(34.128934, 38.037973) rotate(-5.000000) translate(-34.128934, -38.037973) "></path>
                    <path d="M32.810449,41.3585391 C33.7170897,41.3034119 35.568568,40.7773244 36.9207219,40 C36.5064029,41.1712785 34.3444757,42.2733569 32.5,42.4858013 L32.810449,41.3585391 Z" id="Path-2" fill="#C1C4CB" fill-rule="nonzero" transform="translate(34.710361, 41.242901) scale(-1, 1) translate(-34.710361, -41.242901) "></path>
                    <g id="venus-de-milo" transform="translate(22.000000, 41.000000)">
                        <path d="M29.1141667,40.1330215 C21.3510294,45.7989492 14.2063971,47.0911699 9.30087255,47.0911699 C5.17646569,47.0911699 2.63375,46.1773184 2.63375,46.1773184 C2.29411275,42.5492988 2.88211275,38.8878867 4.39775,35.577457 C6.16727451,31.7147285 8.37035294,27.2333965 10.9654314,23.8564219 L11.0675147,23.4975117 C10.2474853,23.2712109 9.51320588,22.8404707 8.92256373,22.2631875 L0.541161765,23.9116758 L0.0139313725,15.343957 C-0.137872549,12.8755488 1.02707843,10.5118828 3.07835294,9.13149609 L5.4635,7.52168555 C6.91836765,6.5415293 7.94808824,5.08354688 8.4037402,3.43241602 C8.56395098,2.85801563 8.65210294,2.26175391 8.66603431,1.65155859 C9.83939216,2.28385547 11.2500637,2.47171875 12.6304706,2.06860547 L13.1245539,1.92494531 C13.9390588,1.68471094 14.2224975,1.4496981 14.8023308,0.905567236 C15.1059386,1.17054575 15.7712106,1.69287891 16.0969165,1.92494531 C18.0708479,3.32767383 20.5177892,3.63685547 22.9610637,3.63685547 L23.9465882,3.63685547 C26.2848971,3.63685547 28.1980588,5.50059375 28.2614706,7.83927539 C28.2612304,7.83903516 29.1141667,34.1471016 29.1141667,40.1330215 Z" id="Path" fill="url(#linearGradient-4)"></path>
                        <polygon id="Path" fill="#664F4D" points="48.9995196 99.9915 48.9995196 111 5.17358333 111 5.17358333 99.9915 6.91284314 99.9915 22.3560098 99.9915 42.2440049 99.9915"></polygon>
                        <polygon id="Path" fill="#E6E6E6" points="22.3560098 99.9915 6.91284314 99.9915 14.6344265 93.6216855"></polygon>
                        <path d="M29.1141667,40.1330215 C27.5848382,55.9541367 29.0341814,71.9246777 33.3877353,87.2129531 C33.7052745,88.3257187 34.2243382,89.3721797 34.9225882,90.2944395 L42.2440049,99.9915 L22.3560098,99.9915 L14.6344265,93.6216855 C14.6344265,93.6216855 14.3610833,90.8522637 13.2127059,86.0396484 C12.875951,84.6342773 12.4673775,83.0520937 11.9675294,81.3154395 C10.6478922,76.7320078 8.70158333,71.0605547 5.8552598,64.6328437 C3.40934314,59.1050508 3.31542647,52.4286973 2.6335098,46.1775586 C2.6335098,46.1775586 5.17598529,47.0914102 9.30063235,47.0914102 C14.2066373,47.0911699 21.3512696,45.7989492 29.1141667,40.1330215 Z" id="Path" fill="url(#linearGradient-5)"></path>
                        <path d="M14.3897941,24.0052949 C13.8570392,24.0052949 13.3362941,23.9344258 12.8422108,23.7946094 C11.9088088,23.5365977 11.0431422,23.038832 10.3441716,22.3560859 C9.21332843,21.255332 8.59001961,19.7805332 8.59001961,18.2041152 C8.59001961,16.6546035 9.19387255,15.1973418 10.2901275,14.1009121 C10.6136716,13.7775566 11.1382598,13.7773164 11.4615637,14.1009121 C11.7851078,14.4242676 18.7899461,16.0900527 19.2350294,16.0734766 C19.6801127,16.0609844 26.8432402,13.1214766 27.1667843,12.7978809 C27.4903284,12.4742852 28.0144363,12.4745254 28.3379804,12.7978809 C29.4344755,13.8943105 30.0380882,15.3515723 30.0380882,16.901084 C30.0380882,20.098123 27.4360441,22.6993809 24.2378333,22.6993809 C22.4077794,22.6993809 20.7725245,21.8472695 19.7086961,20.5194941 C18.8125245,22.5691738 16.7655735,24.0052949 14.3897941,24.0052949 Z" id="Path" fill="url(#linearGradient-6)"></path>
                    </g>
                </g>
            </g>
        </g>
    </g>
</svg>