<?xml version="1.0" encoding="UTF-8"?>
<svg width="215px" height="161px" viewBox="0 0 215 161" version="1.1" xmlns="http://www.w3.org/2000/svg" xmlns:xlink="http://www.w3.org/1999/xlink">
    <!-- Generator: Sketch 52.4 (67378) - http://www.bohemiancoding.com/sketch -->
    <title>ic_museum</title>
    <desc>Created with Sketch.</desc>
    <defs>
        <rect id="path-1" x="0" y="0" width="215" height="161"></rect>
        <linearGradient x1="87.6858625%" y1="50%" x2="17.5828998%" y2="39.4157736%" id="linearGradient-3">
            <stop stop-color="#FAF7F7" offset="0%"></stop>
            <stop stop-color="#EDEFFC" offset="100%"></stop>
        </linearGradient>
    </defs>
    <g id="Page-1" stroke="none" stroke-width="1" fill="none" fill-rule="evenodd">
        <g id="3" transform="translate(-764.000000, -243.000000)">
            <g id="ic_museum" transform="translate(764.000000, 243.000000)">
                <g id="Group-2">
                    <text id="Short-text-about-mus-Copy" font-family="Roboto-Regular, Roboto" font-size="13" font-weight="normal" line-spacing="15" fill="#000000" fill-opacity="0.24">
                        <tspan x="27" y="71">Short text about museum </tspan>
                        <tspan x="27" y="86">capabilities</tspan>
                    </text>
                    <g id="Group-Copy-3">
                        <mask id="mask-2" fill="white">
                            <use xlink:href="#path-1"></use>
                        </mask>
                        <use id="Rectangle" fill="#FFC800" fill-rule="nonzero" xlink:href="#path-1"></use>
                    </g>
                    <rect id="Rectangle" fill="#E97424" fill-rule="nonzero" x="0" y="126" width="215" height="35"></rect>
                    <g id="picasso-(1)" transform="translate(156.000000, 57.000000)">
                        <path d="M41.9953013,1.19959262 C41.9882532,0.889480641 41.8653043,0.607383703 41.6691341,0.396102855 C41.4420309,0.15291593 41.1178215,0 40.7571971,0 L1.23927876,0 C0.878654535,0 0.553662043,0.15291593 0.327341885,0.397270178 C0.1237321,0.615554859 2.84217094e-14,0.909324621 2.84217094e-14,1.23149869 L2.84217094e-14,49.7685013 C2.84217094e-14,50.0906754 0.1237321,50.3844451 0.327341885,50.6027298 C0.553270411,50.8470841 0.878654535,51 1.23927876,51 L40.7571971,51 C41.1174298,51 41.4420309,50.8470841 41.6691341,50.6038971 C41.8653043,50.3926163 41.9882532,50.1101303 41.9953013,49.8004074 C41.996476,49.7902909 41.996476,49.779007 41.996476,49.7685013 L41.996476,1.23149869 C41.996476,1.22099299 41.996476,1.20970914 41.9953013,1.19959262 Z" id="Path" fill="#FFEBCA"></path>
                        <path d="M30.7168854,8.58158114 C30.6902595,9.50102229 30.6632421,10.4185181 30.6373993,11.3379593 C30.6354415,11.4118881 30.6334838,11.4865951 30.6311344,11.560524 C30.6107734,11.5484619 30.5900209,11.5371781 30.5680937,11.5266724 C30.1264171,9.48273471 28.9337336,7.60688787 27.2649165,6.33531184 C26.4355981,5.70341487 25.4927282,5.2232666 24.4962149,4.91315463 L20.6953685,4.91315463 C20.6425082,4.96646118 20.5900395,5.01782227 20.5363962,5.06607056 C18.597013,6.81662753 16.194026,7.9566879 13.9601917,9.3173675 C13.2354191,9.75860596 12.5321823,10.253151 11.8704505,10.7982788 L11.880631,10.8103409 L14.9786322,21.7802124 C14.9786322,23.093811 12.1531549,25.8396835 12.6445592,26.9735184 C12.817236,27.3739014 13.0184964,27.7594986 13.2436419,28.1291427 C13.3415312,28.2890625 13.4449023,28.4462585 13.552189,28.5999527 C14.3133764,29.6917648 15.3028415,30.6143188 16.4508876,31.3010788 C15.9128878,34.222435 13.1735531,36.4593659 10.2016334,36.9488525 C7.33073533,37.4219971 4.40541097,35.3706665 4.04478664,33.2773132 L4.04478664,33.0473556 C6.20305037,31.7617721 7.70858818,29.4804841 8.01556909,26.9991989 L8.01635215,26.9984207 C7.47756934,26.6248856 6.99008055,26.1918182 6.5758129,25.7112808 C5.13331598,24.0346527 4.381526,21.8202896 4.381526,19.6129303 C4.381526,19.3070984 4.3960136,19.0012664 4.42498879,18.6966019 C4.66462184,16.1958618 5.85495597,13.8211899 7.61383127,12.0173263 L7.74696074,11.9659652 C7.11185489,10.3189087 6.89806456,8.50881958 7.15923329,6.76254272 C7.25320704,6.13336947 7.40943842,5.5135345 7.62087935,4.91315463 C8.24345537,3.14625554 9.35156253,1.54744718 10.8065894,0.356025721 L10.8065894,-2.84217094e-14 L25.4527894,-2.84217094e-14 L25.4527894,0.0350188711 C27.2093153,0.151748707 28.8800902,1.17624667 29.7720578,2.68361661 C30.1781026,3.36570735 30.4259584,4.1302872 30.5673105,4.91315463 C30.6064663,5.12677002 30.6373993,5.34116366 30.662459,5.55672452 C30.7748359,6.55904386 30.7458606,7.57303622 30.7168854,8.58158114 Z" id="Path" fill="#A5CDFF"></path>
                        <path d="M35.3020212,34.2737961 C34.8959763,35.8049011 34.0721397,37.3317261 32.9072568,38.4297638 C31.8230347,39.4527054 30.4412291,40.1032791 28.8252722,40.039856 C25.0044563,39.8888855 23.0321823,35.8827209 22.7326409,32.5489197 L22.7326409,32.5477524 C19.9310487,28.6166839 19.2015774,26.8046493 20.6949769,25.7805404 C23.6484934,23.7556686 26.9818205,28.0941239 26.9818205,27.4703979 L26.9818205,27.1182633 C28.3264283,26.4595184 29.6193504,28.64431 30.4741199,29.3050003 C31.5097889,30.1053772 33.1124329,30.3979797 34.1422285,29.4139481 C34.2522561,29.3085022 34.350537,29.1917725 34.4382458,29.0676498 C34.6363738,28.7886658 35.0659122,28.8513107 35.1837709,29.1723176 C35.7769802,30.7816315 35.745264,32.6045609 35.3020212,34.2737961 Z" id="Path" fill="#8CB4EB"></path>
                        <path d="M37.9505146,43.2495346 L37.9505146,46.0868454 L4.04478664,46.0868454 L4.04478664,43.7705383 C4.04478664,43.7705383 7.36480084,40.2600861 10.1280205,40.1565857 L16.6266968,34.2905273 L22.0944026,32.6851043 L21.7858555,32.6337433 C21.8880519,32.6337433 21.9902483,32.6306305 22.090487,32.624405 C22.3081928,32.6119538 22.5231578,32.5862732 22.7326409,32.5473633 L22.7326409,32.5485306 C23.0321823,35.8823319 25.0044563,39.8884964 28.8252722,40.0394669 C30.4412291,40.10289 31.8230347,39.4523162 32.9072568,38.4293747 L32.9640327,38.4877396 L37.9505146,43.2495346 Z" id="Path" fill="#736572"></path>
                        <path d="M20.6949769,4.91315463 C20.6425082,4.96646118 20.589648,5.01782227 20.5360046,5.06607056 C18.597013,6.81662753 20.842594,13.2752839 18.6091513,14.6359635 C17.8839871,15.0772018 12.5321823,10.253151 11.8700589,10.7982788 C10.7435487,11.7247238 9.73568019,12.7939682 8.94355979,13.986557 L8.77205775,13.9464798 C8.35818163,13.3266448 8.01439439,12.6608963 7.74656921,11.9659652 C7.11146326,10.3189087 6.89806456,8.50881958 7.15923329,6.76254272 C7.25320704,6.13336947 7.40904679,5.5135345 7.62087935,4.91315463 C8.24345537,3.14625554 9.35156253,1.54744718 10.8065894,0.356025721 L10.8065894,0 L21.8586851,0 L21.8586851,0.290267895 C22.4992728,1.77429199 21.7412179,3.84313199 20.6949769,4.91315463 Z" id="Path" fill="#8CB4EB"></path>
                        <path d="M13.552189,28.5999527 C11.665666,28.7260208 9.61703831,28.1147461 8.01635215,26.9980316 C7.47756934,26.6244964 6.99008055,26.1918182 6.5758129,25.7112808 C5.13331598,24.0346527 4.381526,21.8202896 4.381526,19.6129303 C4.381526,19.3070984 4.3960136,19.0012664 4.42498879,18.6966019 C4.66462184,16.1958618 5.85495597,13.8211899 7.61383127,12.0173263 L7.74696074,11.9659652 C8.01439439,12.6605072 8.35818163,13.3266448 8.77244928,13.9464798 L8.94395132,13.986557 C7.70467256,15.8511199 6.99321301,18.0160676 7.17489558,20.4039688 C7.39769165,23.3276596 9.78736575,26.2427902 12.6445592,26.9735184 C12.817236,27.3735123 17.2042437,27.1295471 15.3185038,27.9797287 C15.1470018,28.0575485 13.4449023,28.4462585 13.552189,28.5999527 Z" id="Path" fill="#8CB4EB"></path>
                        <path d="M16.4508876,31.3006897 C15.9128878,34.222435 13.1735531,36.4593659 10.2016334,36.9488525 C7.33073533,37.4219971 4.40541097,35.3706665 4.04478664,33.2773132 L4.04478664,33.0473556 C6.20305037,31.7617721 7.70858818,29.4804841 8.01556909,26.9991989 L8.01635215,26.9980316 C9.61703831,28.1147461 11.665666,28.7260208 13.5525805,28.5999527 C13.8897113,29.083992 16.6188656,26.9867477 17.0397897,27.3984146 C17.568392,27.9155273 15.8114745,30.9185944 16.4508876,31.3006897 Z" id="Path" fill="#A5CDFF"></path>
                        <path d="M30.5673105,4.91315463 L20.6953685,4.91315463 C21.7412179,3.84313199 22.4992728,1.77429199 21.8590766,0.290267895 L21.8590766,0 L25.4527894,0 L25.4527894,0.0350188711 C27.2093153,0.151748707 28.8800902,1.17624667 29.7720578,2.68361661 C30.1777111,3.36570735 30.4255668,4.1302872 30.5673105,4.91315463 Z" id="Path" fill="#8CB4EB"></path>
                        <path d="M30.2305714,23.5953598 L27.1603706,23.5653992 C27.0628729,23.5642318 26.9829952,23.6420517 26.9818205,23.7389373 L26.9818205,27.4700089 C26.9818205,28.0941239 26.8702267,28.6921692 26.6670085,29.2454681 C26.0432578,30.9388275 24.5541654,32.2150726 22.7326409,32.5477524 C22.5227662,32.5866623 22.3081928,32.6123429 22.0900955,32.624405 L22.0944026,32.6851043 L22.3414752,38.9589386 C22.3759322,39.8305207 21.6578162,40.5480194 20.7807279,40.5180588 L10.1280205,40.1565857 L17.759472,31.9516525 L17.7602551,31.949318 C17.304874,31.7676086 16.8671129,31.5493241 16.4508876,31.3010788 C15.30245,30.6143188 14.3133764,29.6917648 13.552189,28.5999527 C13.4449023,28.4462585 13.3415312,28.2890625 13.2436419,28.1291427 C13.0184964,27.7594986 12.817236,27.3739014 12.6445592,26.9735184 C12.1531549,25.8396835 11.880631,24.5898971 11.880631,23.2762985 L11.880631,10.8103409 L11.8700589,10.7982788 C12.5321823,10.253151 13.2354191,9.75860596 13.9601917,9.3173675 C16.1936344,7.9566879 18.5966215,6.81662753 20.5360046,5.06607056 C20.589648,5.01782227 20.6425082,4.96646118 20.6949769,4.91315463 L24.4962149,4.91315463 C25.4927282,5.2232666 26.4355981,5.70341487 27.2645249,6.33531184 C28.933342,7.60688787 30.1260255,9.48273471 30.5680937,11.5266724 C30.5896294,11.5371781 30.6103819,11.5484619 30.6311344,11.560524 C30.6330921,11.4865951 30.63505,11.4118881 30.6373993,11.3379593 L30.6980907,14.4246826 L30.864111,22.9591828 C30.871159,23.3109284 30.5845391,23.5988616 30.2305714,23.5953598 Z" id="Path" fill="#F2D1A5"></path>
                        <path d="M13.2264134,40.1565857 L20.8574732,31.9516525 L20.8586478,31.949318 C20.4032667,31.7676086 19.9651141,31.5493241 19.5492803,31.3010788 C18.4008427,30.6143188 17.4117691,29.6917648 16.6505817,28.5999527 C16.543295,28.4462585 16.4399239,28.2890625 16.3416431,28.1291427 C16.1164976,27.7594986 15.9152372,27.3739014 15.742952,26.9735184 C15.2511561,25.8396835 14.9786322,24.5898971 14.9786322,23.2762985 L14.9786322,12.3204346 C14.9786322,11.3492432 15.4481093,10.4364167 16.2414044,9.86872103 C16.5346808,9.65899658 16.8283487,9.45744319 17.0585845,9.3173675 C19.2920272,7.9566879 21.6950142,6.81662753 23.6343974,5.06607056 C23.6880407,5.01782227 23.7405094,4.96646118 23.7933697,4.91315463 L20.6953685,4.91315463 C20.6425082,4.96646118 20.5900395,5.01782227 20.5363962,5.06607056 C18.597013,6.81662753 16.194026,7.9566879 13.9601917,9.3173675 C13.2354191,9.75860596 12.5321823,10.253151 11.8704505,10.7982788 L11.880631,10.8103409 L11.880631,23.2762985 C11.880631,24.5898971 12.1531549,25.8396835 12.6449508,26.9735184 C12.817236,27.3739014 13.0184964,27.7594986 13.2436419,28.1291427 C13.3419227,28.2890625 13.4452938,28.4462585 13.5525805,28.5999527 C14.3133764,29.6917648 15.3028415,30.6143188 16.4512791,31.3010788 C16.8671129,31.5493241 17.3052655,31.7676086 17.7606467,31.949318 L17.759472,31.9516525 L10.1284122,40.1565857 L13.2264134,40.1565857 Z" id="Path" fill="#F2BB88"></path>
                        <path d="M13.5862544,15.2569657 L17.6502275,14.4355774 C17.6756787,14.4301301 17.7023045,14.4305191 17.7273642,14.4363556 L21.6257086,15.3196106 C21.7905542,15.3573532 21.8203125,15.5779724 21.6711291,15.6573486 L17.547248,17.8429184 C17.4908637,17.8724899 17.4231242,17.8713226 17.3683062,17.8390274 L13.5298702,15.5912018 C13.3857771,15.5067672 13.422192,15.2900391 13.5862544,15.2569657 Z" id="Path" fill="#E6E6F0"></path>
                        <path d="M27.1548889,13.6091309 C27.193653,13.5912323 27.2375074,13.5869522 27.278621,13.5974578 L30.2117766,14.3429719 C30.3535203,14.379158 30.3973747,14.5581436 30.2877387,14.6546402 L27.8499031,16.8079147 C27.7939104,16.8577194 27.7124665,16.867836 27.6455101,16.8339844 L24.4472703,15.2110519 C24.3121831,15.1425705 24.3149239,14.9495773 24.451969,14.8849869 L27.1548889,13.6091309 Z" id="Path" fill="#E6E6F0"></path>
                        <path d="M16.6509733,28.0972367 L23.1935038,28.3092957 C23.4562388,28.3174667 23.5643086,27.9781723 23.3450365,27.8349838 L20.2654385,25.8229523 C20.1863439,25.7715911 20.0857137,25.7665329 20.0019205,25.810112 L16.5389879,27.6100846 C16.3020957,27.7330399 16.3839313,28.0886764 16.6509733,28.0972367 Z" id="Path" fill="#FF485A"></path>
                        <path d="M37.9505146,46.0868454 L4.04478664,46.0868454 L4.04478664,33.2773132 C4.03264844,33.2064972 4.02325107,33.1356812 4.01698615,33.0648651 C4.02638353,33.0598068 4.0357809,33.0535812 4.04478664,33.0473556 L4.04478664,4.91315463 L37.9505146,4.91315463 L37.9505146,46.0868454 Z M41.9953013,1.19959262 C41.9882532,0.889480641 41.8653043,0.607383703 41.6691341,0.396102855 C41.4420309,0.15291593 41.1178215,-2.84217094e-14 40.7571971,-2.84217094e-14 L1.23927876,-2.84217094e-14 C0.878654535,-2.84217094e-14 0.553662043,0.15291593 0.327341885,0.397270178 C0.1237321,0.615554859 2.84217094e-14,0.909324621 2.84217094e-14,1.23149869 L2.84217094e-14,49.7685013 C2.84217094e-14,50.0906754 0.1237321,50.3844451 0.327341885,50.6027298 C0.553270411,50.8470841 0.878654535,51 1.23927876,51 L40.7571971,51 C41.1174298,51 41.4420309,50.8470841 41.6691341,50.6038971 C41.8653043,50.3926163 41.9882532,50.1101303 41.9953013,49.8004074 C41.996476,49.7902909 41.996476,49.779007 41.996476,49.7685013 L41.996476,1.23149869 C41.996476,1.22099299 41.996476,1.20970914 41.9953013,1.19959262 Z" id="Shape" fill="#F5A623" fill-rule="nonzero"></path>
                        <path d="M4.04478664,4.91315463 L4.04478664,46.0868454 L0.327341885,50.6027298 C0.124123632,50.3844451 0,50.0906754 0,49.7685013 L0,1.23149869 C0,0.909324621 0.124123632,0.615554859 0.327341885,0.397270178 L4.04478664,4.91315463 Z" id="Path" fill="#F5A623"></path>
                        <path d="M41.9953013,1.19959262 L41.9953013,49.8004074 C41.9882532,50.1101303 41.8653043,50.3922272 41.6691341,50.6038971 L37.9505146,46.0868454 L37.9505146,4.91315463 L41.6691341,0.396102855 C41.8653043,0.607383703 41.9882532,0.889480641 41.9953013,1.19959262 Z" id="Path" fill="#F5A623"></path>
                        <g id="Group" transform="translate(13.231504, 10.160156)" fill="#152C37">
                            <path d="M1.08187279,2.88361361 C3.22369105,2.05327604 5.54210168,1.77429199 7.81470023,2.15794368 C8.7896778,2.32253263 9.20864414,0.839675953 8.22661839,0.673919678 C5.68149617,0.244354248 3.08077267,0.464973475 0.66995453,1.39920044 C0.281921241,1.54978182 0.00783114558,1.91631315 0.129213852,2.34626775 C0.232976606,2.71474454 0.688357747,3.03614047 1.08187279,2.88361361 Z" id="Path"></path>
                            <path d="M12.5486277,2.05872347 C13.9907332,1.43538663 15.5984673,1.29064176 17.0084651,2.06455989 C17.8816378,2.54393 18.6639692,1.21515658 17.790405,0.735397289 C15.8553289,-0.326843262 13.7366124,-0.122177074 11.7670794,0.729949951 C11.3806123,0.896873449 11.2999515,1.45250699 11.4890737,1.78285222 C11.7157853,2.178566 12.1676425,2.2237015 12.5486277,2.05872347 Z" id="Path"></path>
                            <path d="M4.39366421,6.52908325 C4.18927136,6.52908325 3.98996873,6.44620516 3.84509248,6.30340576 C3.70178257,6.15982821 3.61916396,5.96177668 3.61916396,5.75866699 C3.61916396,5.70925138 3.62425418,5.65827947 3.63365155,5.60886386 C3.64383199,5.55944824 3.65831968,5.51158903 3.6778975,5.4652863 C3.69747541,5.41781616 3.72136038,5.37384799 3.74916097,5.33182528 C3.77696157,5.28980258 3.80985228,5.25089266 3.84509248,5.21470637 C4.0248173,5.03649902 4.29225084,4.95439908 4.54441383,5.00459295 C4.59375,5.01470947 4.6423031,5.02910612 4.69007304,5.04856112 C4.73627685,5.06801603 4.78091433,5.09175115 4.82320262,5.11937711 C4.8654907,5.14700317 4.90464653,5.1796875 4.9406697,5.21470637 C4.9770846,5.25089266 5.00919225,5.28980258 5.03699284,5.33182528 C5.06479343,5.37384799 5.0886784,5.41781616 5.10825632,5.4652863 C5.12783413,5.51119995 5.14232172,5.55944824 5.15250226,5.60886386 C5.16307423,5.65789029 5.16698986,5.70925138 5.16698986,5.75866699 C5.16698986,5.96177668 5.08437125,6.15982821 4.9406697,6.30340576 C4.90464653,6.33842463 4.8654907,6.37110906 4.82320262,6.39873502 C4.78091433,6.42675016 4.73627685,6.45009611 4.69007304,6.46955111 C4.6423031,6.48900602 4.59375,6.50340266 4.54441383,6.51390836 C4.49468603,6.52402499 4.44417517,6.52908325 4.39366421,6.52908325 Z" id="Path"></path>
                            <path d="M14.2378057,5.53999334 C14.0334129,5.53999334 13.8341103,5.4578934 13.6904087,5.31431575 C13.6543854,5.27929687 13.6222778,5.23921964 13.5933025,5.19719694 C13.5655019,5.15634155 13.5416169,5.11120605 13.5220391,5.06490323 C13.5036359,5.01860041 13.4879736,4.96957397 13.4785762,4.92132568 C13.4683957,4.87113192 13.4633055,4.82093816 13.4633055,4.77035522 C13.4633055,4.72016146 13.4683957,4.6699676 13.4785762,4.62055209 C13.4879736,4.57152555 13.5036359,4.52211004 13.5220391,4.47580721 C13.5416169,4.42989347 13.5655019,4.3843689 13.5933025,4.34351351 C13.6222778,4.30149081 13.6543854,4.26141357 13.6904087,4.22678378 C13.8701335,4.04701993 14.1363925,3.96492009 14.3893384,4.01628108 C14.4378915,4.02561946 14.4876193,4.04079435 14.5342147,4.05947111 C14.5804184,4.07892611 14.625839,4.10227206 14.6673441,4.1302872 C14.7096323,4.15908048 14.7499628,4.19059748 14.7848113,4.22678378 C14.8212261,4.26141357 14.8533339,4.30149081 14.8823091,4.34351351 C14.9101097,4.38475797 14.9339946,4.42989347 14.9531809,4.47580721 C14.9719757,4.52211004 14.9872464,4.57152555 14.9966438,4.62055209 C15.0072159,4.6699676 15.0123061,4.72016146 15.0123061,4.77035522 C15.0123061,4.82054899 15.0072159,4.87074285 14.9966438,4.92132568 C14.9872464,4.96957397 14.9719757,5.01860041 14.9531809,5.06490323 C14.9339946,5.11120605 14.9101097,5.15634155 14.8823091,5.19719694 C14.8533339,5.23921964 14.8212261,5.27929687 14.7848113,5.31431575 C14.7499628,5.35011296 14.7096323,5.38201904 14.6673441,5.41081233 C14.625839,5.43843839 14.5804184,5.46217351 14.5342147,5.48162842 C14.4876193,5.4999161 14.4378915,5.51548007 14.3893384,5.52442937 C14.3388276,5.53493497 14.2883167,5.53999334 14.2378057,5.53999334 Z" id="Path"></path>
                        </g>
                    </g>
                    <g id="magritte-(1)" transform="translate(104.000000, 57.000000)">
                        <path d="M2.34973521,2.853653 L2.34973521,48.146347 L39.6479154,48.146347 L39.6479154,2.853653 L2.34973521,2.853653 Z M16.5460359,19.9609779 L16.5448613,19.9609779 C16.5378132,19.9621498 16.5323315,19.9621498 16.5256749,19.9633216 C16.5323315,19.9621498 16.5378132,19.9609779 16.5448613,19.959806 L16.5472106,19.959806 C16.5460359,19.959806 16.5460359,19.9609779 16.5460359,19.9609779 Z" id="Shape" fill="#FFEBCA" fill-rule="nonzero"></path>
                        <path d="M15.2127834,21.7813797 L16.5068802,24.4739456 L15.2127834,27.0863571 C13.7393533,27.0863571 12.5435375,25.8992156 12.5435375,24.4338684 C12.5435375,22.9685212 13.7393533,21.7813797 15.2127834,21.7813797 Z" id="Path" fill="#F4C294"></path>
                        <path d="M28.5092855,24.4338684 C28.5092855,25.8992156 27.3146443,27.0863571 25.839648,27.0863571 L23.1218489,24.3288117 L25.839648,21.7813797 C27.3146443,21.7813797 28.5092855,22.9685212 28.5092855,24.4338684 Z" id="Path" fill="#F4C294"></path>
                        <path d="M39.4955996,40.9760285 L37.9516893,48.5436173 L4.04596134,48.5436173 L2.16217925,41.2639617 L12.1750821,34.3804093 L15.0146554,32.4275208 L15.9865006,31.7594376 C15.9865006,33.9461746 18.2324732,35.0628891 20.5269988,35.10997 C22.9217631,35.1601639 25.364689,34.0500641 25.364689,31.7668304 L26.3067758,32.3703232 L29.7278117,34.602974 L39.4955996,40.9760285 Z" id="Path" fill="#736572"></path>
                        <path d="M15.2730833,34.3804093 L16.5710956,33.4878158 C16.2034234,33.0150604 15.9865006,32.4388046 15.9865006,31.7594376 L15.0146554,32.4275208 L12.1746905,34.3804093 L4.04596134,39.9686508 L4.04596134,48.5432282 L7.14396253,48.5432282 L7.14396253,40.5737 C7.14396253,40.1947175 7.33112696,39.8402481 7.64476432,39.6242981 L15.2730833,34.3804093 Z" id="Path" fill="#605260"></path>
                        <polygon id="Path" fill="#F4F3D5" points="15.8232212 30.8232651 25.2296017 30.8232651 25.2296017 40.1270142 15.8232212 40.1270142"></polygon>
                        <path d="M15.2127834,20.1086426 L15.2127834,21.1086426 L25.839648,21.1086426 L25.839648,20.1086426 L15.2127834,20.1086426 Z M16.3486911,20.5363055 C16.5648307,20.5204073 16.7762716,20.4973548 16.9830138,20.4671482 C16.7762716,20.4973548 16.5648307,20.5215997 16.3486911,20.5363055 Z" id="Shape" fill="#736572" fill-rule="nonzero"></path>
                        <polygon id="Path" fill="#F3F3F8" points="15.7374702 35.129425 25.3153527 35.129425 25.3153527 44.868576 15.7374702 44.868576"></polygon>
                        <path d="M21.8136561,9.54849243 L19.2391669,9.54849243 C16.5472106,9.54849243 14.3650619,11.7165527 14.3650619,14.3916092 L14.3650619,20.9448166 L26.6877611,20.9448166 L26.6877611,14.3916092 C26.6877611,11.7165527 24.5056123,9.54849243 21.8136561,9.54849243 Z" id="Path" fill="#736572"></path>
                        <path d="M22.5897226,36.5107269 C22.2236165,36.5998307 21.8571189,36.6889343 21.4910129,36.778038 C21.2333681,36.8410721 20.9753319,36.903717 20.7172957,36.9667511 C20.6797062,36.9757004 20.6401588,36.9834823 20.6013947,36.9916535 C20.507421,36.9718094 20.3973933,36.9632492 20.3351358,36.9488525 C20.0763164,36.8881531 19.8171055,36.8274536 19.5578945,36.7667542 C19.1937463,36.6815414 18.8292064,36.5959396 18.4646666,36.5107269 C17.6243847,36.3138428 17.2657183,37.5998153 18.1075664,37.7970886 C18.860531,37.9733505 19.6275918,38.2231522 20.3926946,38.3320999 C20.8163597,38.3924103 21.2909271,38.2001953 21.6985382,38.100975 C22.1143721,37.9998092 22.5305974,37.8982544 22.9464313,37.7970886 C23.7851469,37.5928116 23.4300045,36.3060608 22.5897226,36.5107269 Z" id="Path" fill="#E05922"></path>
                        <path d="M22.0756079,9.55549627 C21.9886821,9.55082698 21.9013649,9.54849243 21.8136561,9.54849243 L19.2391669,9.54849243 C16.5472106,9.54849243 14.3650619,11.7165527 14.3650619,14.3916092 L14.3650619,21.0160217 L17.4634547,21.0160217 L17.4634547,14.3916092 C17.4634547,11.8041 19.5050344,9.69090266 22.0756079,9.55549627 Z" id="Path" fill="#605260"></path>
                        <polygon id="Path" fill="#E05922" points="22.5478259 42.7355347 21.0904498 46.26622 20.1577603 46.26622 18.5034308 42.6367034 19.9142117 38.7632218 21.2153566 38.7632218"></polygon>
                        <path d="M22.0830475,38.0254898 L21.5379998,38.9647751 C21.4526402,39.1118546 21.2948426,39.2021256 21.1241236,39.2021256 L20.0320704,39.2021256 C19.8613514,39.2021256 19.7035538,39.1118546 19.6181944,38.9647751 L19.0727551,38.0254898 C18.9877871,37.8787995 18.9877871,37.6978683 19.0727551,37.5507889 L19.6181944,36.6115036 C19.7035538,36.4648132 19.8613514,36.3741532 20.0320704,36.3741532 L21.1241236,36.3741532 C21.2948426,36.3741532 21.4526402,36.4648132 21.5379998,36.6115036 L22.0830475,37.5507889 C22.1684069,37.6978683 22.1684069,37.8787995 22.0830475,38.0254898 Z" id="Path" fill="#EE7124"></path>
                        <path d="M26.3067758,32.3703232 L26.3713828,33.6749725 L26.2104527,35.0730057 L24.7769616,38.627037 L23.6950888,39.062828 L20.5269988,35.10997 C20.5403117,35.1111374 20.5547994,35.1111374 20.569287,35.1111374 C20.6053103,35.1119156 20.6413335,35.1119156 20.6785315,35.1119156 C22.0290125,35.1119156 25.1133092,31.6127472 25.129363,31.3835678 C25.5079989,31.7788925 26.0021443,32.1714935 26.3067758,32.3703232 Z" id="Path" fill="#E6E6F0"></path>
                        <path d="M14.6462,32.6808243 L15.1297733,33.3068848 L15.3134136,33.7792511 L16.9626529,38.0056458 L17.3757458,39.062828 L20.5438358,35.10997 C20.5305228,35.1111374 20.5160352,35.1111374 20.5015476,35.1111374 C20.4651327,35.1119156 20.4291095,35.1119156 20.3919116,35.1119156 C19.0418221,35.1119156 15.9285501,31.5839539 15.9124963,31.3543854 C15.5737993,31.8742219 15.09375,32.4543686 14.6462,32.6808243 Z" id="Path" fill="#E6E6F0"></path>
                        <path d="M25.8400395,21.087616 L25.8400395,28.5505371 C25.8400395,32.0236359 23.4605459,34.8379898 20.5269988,34.8379898 C17.592277,34.8379898 15.2131749,32.0236359 15.2131749,28.5505371 L15.2131749,21.087616 L25.8400395,21.087616 Z" id="Path" fill="#F2BB88"></path>
                        <path d="M4.04596134,46.0868454 L4.04596134,4.91315463 L37.9516893,4.91315463 L37.9516893,46.0868454 L4.04596134,46.0868454 Z M41.6703088,0.397270178 C41.4439887,0.15291593 41.1189962,-2.84217094e-14 40.7583718,-2.84217094e-14 L1.23927876,-2.84217094e-14 C0.879046067,-2.84217094e-14 0.553662043,0.15291593 0.327341885,0.397270178 C0.124123632,0.615554859 2.84217094e-14,0.909324621 2.84217094e-14,1.23149869 L2.84217094e-14,49.7685013 C2.84217094e-14,50.0910645 0.124123632,50.3844451 0.327341885,50.6031189 C0.553662043,50.8470841 0.879046067,51 1.23927876,51 L40.7583718,51 C41.1189962,51 41.4439887,50.8470841 41.6703088,50.6031189 C41.873527,50.3844451 41.9976506,50.0910645 41.9976506,49.7685013 L41.9976506,1.23149869 C41.9976506,0.908935547 41.873527,0.615554859 41.6703088,0.397270178 Z" id="Shape" fill="#F6AA1E" fill-rule="nonzero"></path>
                        <path d="M4.04596134,4.91315463 L4.04596134,46.0868454 L0.327341885,50.6027298 C0.124123632,50.3844451 0,50.0906754 0,49.7685013 L0,1.23149869 C0,0.908935547 0.124123632,0.615554859 0.327341885,0.396881104 L4.04596134,4.91315463 Z" id="Path" fill="#F6AA1E"></path>
                        <path d="M41.9976506,1.23149869 L41.9976506,49.7685013 C41.9976506,50.0906754 41.873527,50.3844451 41.6703088,50.6027298 L37.9516893,46.0868454 L37.9516893,4.91315463 L41.6703088,0.397270178 C41.873527,0.615554859 41.9976506,0.908935547 41.9976506,1.23149869 Z" id="Path" fill="#F6AA1E"></path>
                        <path d="M29.9333794,21.8572541 L11.1194437,21.8572541 C10.691863,21.8572541 10.3449433,21.5125122 10.3449433,21.087616 C10.3449433,20.6623307 10.691863,20.3179779 11.1194437,20.3179779 L29.9333794,20.3179779 C30.3609599,20.3179779 30.7078796,20.6623307 30.7078796,21.087616 C30.7078796,21.5125122 30.3609599,21.8572541 29.9333794,21.8572541 Z" id="Path" fill="#605260"></path>
                        <path d="M21.4111351,19.0724716 C21.4111351,19.0724716 21.3770697,19.0954285 21.3112881,19.1347275 C21.0579505,19.289978 20.3347442,19.7032013 19.3437127,20.0518342 C18.4247278,20.3747864 17.2735494,20.6409302 16.0499329,20.5922928 C15.8255705,20.5841218 15.5972926,20.5638885 15.3690148,20.5327606 C12.9601544,20.1973572 11.0822457,18.6020508 10.3245823,17.860817 C10.1288037,17.6693802 10.1738328,17.3456497 10.4146406,17.2149124 C11.2196823,16.7783432 13.0028341,15.9573441 15.0252275,15.9553986 C15.3455214,15.9546204 15.6728632,15.9752426 16.0033376,16.0211563 C19.1655542,16.4612274 21.4111351,19.0724716 21.4111351,19.0724716 Z" id="Path" fill="#B1F192"></path>
                        <path d="M21.4111351,19.0724716 C21.4111351,19.0724716 21.3770697,19.0954285 21.3112881,19.1347275 C21.1437015,19.2374496 20.7705475,19.4526214 20.2493847,19.6880265 L10.906828,18.3896027 C10.670719,18.1899948 10.4749403,18.0078964 10.3234076,17.8596497 C10.1288037,17.6693802 10.1746159,17.3452606 10.4142489,17.2153015 C10.6006302,17.1141357 10.8394802,16.9927368 11.121793,16.8651123 L20.4643496,18.1643143 C21.0693056,18.6744232 21.4111351,19.0724716 21.4111351,19.0724716 Z" id="Path" fill="#A1D685"></path>
                        <path d="M26.6403826,17.1238632 C26.5307465,17.1121903 26.4215021,17.10363 26.3134322,17.0981827 C23.3176276,16.9320374 20.7282592,18.7409591 20.6644354,18.7868729 L20.6636523,18.7868729 C20.6636523,18.7868729 20.9737656,19.1226654 21.5207711,19.5658493 C21.8132644,19.8028107 22.1734971,20.0705109 22.5901141,20.3335418 C23.0850425,20.6455994 23.6602401,20.9510422 24.2961291,21.1922836 C24.763257,21.3693237 25.2644504,21.5113449 25.7914864,21.5957795 C25.9140439,21.6156234 26.0385591,21.6323547 26.1634659,21.645195 C28.4826597,21.8864364 30.6092072,20.883339 31.582227,20.3284836 C31.8774612,20.1603927 31.9201409,19.7533951 31.6668034,19.5284958 C30.830437,18.7849274 28.9595764,17.3658829 26.6403826,17.1238632 Z" id="Path" fill="#B1F192"></path>
                        <path d="M31.5806608,20.3292618 C31.417773,20.4222565 31.223169,20.5273132 31.0007644,20.6374283 L21.6413709,19.6619568 L20.5826,19.5522308 C20.1569772,19.5086517 19.8484301,19.1296692 19.8922845,18.7067184 C19.9373136,18.2837677 20.3194735,17.9771575 20.7443131,18.021904 L21.803084,18.13163 L31.1624776,19.1071014 C31.3570816,19.2600174 31.5254512,19.4028167 31.6652372,19.5265503 C31.9201409,19.753006 31.8774612,20.1603927 31.5806608,20.3292618 Z" id="Path" fill="#A1D685"></path>
                        <path d="M20.3276962,23.961113 C20.2493847,23.961113 20.1698986,23.949051 20.0911956,23.9241486 C19.683976,23.7941895 19.4596136,23.3611222 19.5900023,22.95607 C20.7172957,19.4611816 19.9286993,18.2787094 19.9193019,18.2643127 L19.8746644,18.1705399 C19.7168668,17.8394165 19.8194548,17.4440918 20.1186045,17.2304764 C20.5344384,16.9335938 21.1194249,17.1188049 21.2858368,17.5997314 C21.6495936,18.6506881 21.9757607,20.6027985 21.0653901,23.4261017 C20.9596696,23.7525558 20.6554296,23.961113 20.3276962,23.961113 Z" id="Path" fill="#A1D685"></path>
                        <path d="M24.5326298,26.3077698 C24.5326298,26.4513473 24.5251902,26.5937577 24.5118772,26.7346115 C24.2961291,28.8801041 22.4746048,30.5540085 20.2595652,30.5540085 C18.1208794,30.5540085 16.3510404,28.9941101 16.0370115,26.9571762 C16.0029461,26.7458953 15.9865006,26.5279998 15.9865006,26.3077698 C15.9865006,25.0074006 16.5738365,23.8447723 17.5002611,23.0657959 C18.2438283,22.4389572 19.2070592,22.0615311 20.2595652,22.0615311 C20.3876044,22.0615311 20.514469,22.0665894 20.6393758,22.0778732 C21.7173329,22.1720352 22.6797807,22.6646347 23.3779273,23.4054794 C24.0948687,24.1650009 24.5326298,25.1848298 24.5326298,26.3077698 Z" id="Path" fill="#B1F192"></path>
                        <path d="M19.1350127,26.9571762 C19.1009472,26.7458953 19.0845018,26.5279998 19.0845018,26.3077698 C19.0845018,25.0074006 19.6722292,23.8447723 20.5982623,23.0657959 C20.9557541,22.7646331 21.3645399,22.5214462 21.8093489,22.3494644 C21.4412851,22.2070541 21.0489446,22.1136703 20.6393758,22.0778732 C20.514469,22.0665894 20.3876044,22.0615311 20.2595652,22.0615311 C19.2070592,22.0615311 18.2438283,22.4389572 17.5002611,23.0657959 C16.5738365,23.8447723 15.9865006,25.0074006 15.9865006,26.3077698 C15.9865006,26.5279998 16.0029461,26.7458953 16.0370115,26.9571762 C16.3510404,28.9941101 18.1208794,30.5540085 20.2595652,30.5540085 C20.8061791,30.5540085 21.3285166,30.4516755 21.8089573,30.265686 C20.4099232,29.7252274 19.3687723,28.4734954 19.1350127,26.9571762 Z" id="Path" fill="#A1D685"></path>
                        <g id="Group" transform="translate(11.727924, 32.273438)" fill="#605260">
                            <path d="M16.2817348,7.96680453 L17.1979788,10.0971222 C17.3060487,10.3488693 17.280989,10.6375809 17.1310225,10.8667603 L15.2053438,13.8134079 L9.22743889,13.8134079 L10.5387642,10.4515915 L11.9671652,6.78939054 L14.5788522,0.0968856563 L17.9998881,2.32953646 L18.4893347,6.01702881 C18.5535501,6.50301359 18.1780467,6.93647006 17.6846845,6.94503019 L16.9387679,6.95825961 C16.4215208,6.96720881 16.0785166,7.49404907 16.2817348,7.96680453 Z" id="Path"></path>
                            <path d="M3.33645955,13.8134079 L1.4107809,10.8667603 C1.26081444,10.6375809 1.23575477,10.3488693 1.34382458,10.0971222 L2.20329284,8.09909823 C2.43352852,7.56291959 2.04471216,6.96604159 1.45815931,6.95553589 L0.834016955,6.94464111 C0.348877561,6.93608088 -0.0242766014,6.51624301 0.0270174272,6.03726196 L0.447158463,2.10697177 L3.28673175,0.154083252 L8.38794009,13.8134079 L3.33645955,13.8134079 Z" id="Path"></path>
                        </g>
                    </g>
                    <g id="dinosaur" transform="translate(0.000000, 48.000000)">
                        <g id="Group" transform="translate(26.230469, 25.833333)" fill="#FFFFFF">
                            <path d="M47.4120703,15.010359 L42.5581055,16.3902564 L45.0917695,12.0359487 C45.6565547,11.0654103 46.9032656,10.7353397 47.87625,11.2985064 C48.8492344,11.8618718 49.1801367,13.10525 48.6155508,14.0759872 C48.3408281,14.548141 47.8997578,14.8702628 47.4120703,15.010359 Z" id="Path"></path>
                            <path d="M39.9122813,12.0200513 L35.580668,13.6757692 L37.2405586,9.35504487 C37.6493555,8.29110897 38.8454648,7.75914103 39.9122813,8.16691026 C40.9788984,8.57467949 41.512207,9.76778205 41.1034102,10.8315192 C40.8856641,11.3980641 40.4376211,11.8167628 39.9122813,12.0200513 Z" id="Path"></path>
                            <path d="M31.2944766,9.40055128 L27.085582,10.9340577 L28.6229531,6.73574359 C29.0176055,5.65769872 30.2139141,5.10287821 31.2946758,5.4969359 C32.3754375,5.89079487 32.931457,7.08389744 32.5366055,8.16154487 C32.3186602,8.75710256 31.8471094,9.19587179 31.2944766,9.40055128 Z" id="Path"></path>
                            <path d="M21.7829766,6.46389744 L18.2960508,9.5966859 L18.3382852,4.9156859 C18.3486445,3.77882051 19.2807891,2.86551282 20.4205195,2.87584615 C21.56025,2.88617949 22.4758594,3.81598077 22.4655,4.95284615 C22.4601211,5.55058974 22.1941641,6.0915 21.7829766,6.46389744 Z" id="Path"></path>
                            <path d="M13.6391133,5.15951282 L9.99560156,7.89824359 L10.3199297,3.35892949 C10.4012109,2.21848718 11.3941172,1.35982692 12.5374336,1.44110256 C13.68075,1.52257692 14.541375,2.51298718 14.4600938,3.65323077 C14.4160664,4.27124359 14.0975156,4.81175641 13.6391133,5.15951282 Z" id="Path"></path>
                            <path d="M4.23718359,2.89174359 L2.97234375,6.62466026 L0.515179688,3.53916667 C-0.223523437,2.61135256 -0.0687304687,1.26166026 0.861421875,0.524416667 C1.79157422,-0.212826923 3.14466797,-0.058025641 3.88337109,0.869788462 C4.35173438,1.45779487 4.45632422,2.22842308 4.23718359,2.89174359 Z" id="Path"></path>
                            <path d="M30.8496211,27.2927179 L32.1296016,22.9713974 L34.5883594,26.751609 C35.2135078,27.712609 34.9391836,28.9973205 33.9757617,29.6208974 C33.0123398,30.2444744 31.7243906,29.9708397 31.0992422,29.0098397 C30.7569844,28.4832372 30.6868594,27.8511154 30.8496211,27.2927179 Z" id="Path"></path>
                            <path d="M22.8041719,23.7915064 L24.8567227,20.8846603 L26.5765781,23.9987692 C27.17025,25.0736346 26.7777891,26.4251154 25.7002148,27.0172949 C24.6226406,27.6092756 23.2677539,27.218 22.674082,26.1431346 C22.2499453,25.3750897 22.3310273,24.4641667 22.8041719,23.7915064 Z" id="Path"></path>
                            <path d="M15.3862617,22.9829231 L17.2752539,18.725391 L19.1642461,22.9829231 C19.6260352,24.023609 19.1544844,25.2405577 18.1111758,25.7011859 C17.0678672,26.1618141 15.8478516,25.6914487 15.3860625,24.6507628 C15.1420195,24.1005128 15.1619414,23.4940256 15.3862617,22.9829231 Z" id="Path"></path>
                            <path d="M8.22713672,19.7185833 L10.1161289,15.9653974 L12.0051211,19.7185833 C12.5290664,20.7592692 12.107918,22.0264936 11.0646094,22.5491218 C10.0213008,23.07175 8.75088281,22.6516603 8.2269375,21.6109744 C7.91755078,20.9959423 7.94325,20.2914872 8.22713672,19.7185833 Z" id="Path"></path>
                        </g>
                        <path d="M84.8721016,28.7125577 C84.4716719,24.9740769 82.3507891,21.6225 79.1216523,19.6853974 C60.2584258,8.36940385 39.7908906,2.19364744 32.3956914,0.186198718 C30.9523516,-0.205673077 29.529332,0.877141026 29.529332,2.36951282 L29.529332,7.4145641 C29.529332,8.9723141 27.9903672,10.0626795 26.5169453,9.55257051 L17.3411289,6.36930769 C16.5199492,6.08295513 15.6057344,6.29141026 14.9911445,6.90445513 L8.00653516,13.8715064 C7.32899219,14.5473462 6.29883203,14.7257949 5.43242969,14.3162372 L0.277368745,11.8813289 L0.324992108,34.3491432 L8.72432031,31.9536474 C9.25583594,31.8028205 9.80488281,31.7275064 10.3565195,31.7275064 C11.6789336,31.7275064 12.9206641,32.1646859 13.9257227,32.9158397 C14.9281914,33.6669936 15.6939883,34.7372885 16.0591563,36.0037179 L21.7819141,55.7616474 C22.2452969,57.3621218 23.4720859,58.6283526 25.0614531,59.1384615 C29.6255547,60.6081795 40.4939336,63.0001474 59.8735352,61.3191923 C61.4804336,61.1785 62.896082,60.1986218 63.5911563,58.746391 L68.3642383,48.7469038 L58.9489609,52.8548013 C58.9489609,52.8548013 38.3553203,50.508141 25.4114805,37.596641 L21.2932305,28.7930385 C47.7705977,28.7930385 72.4822891,39.3552949 72.4822891,39.3552949 L76.3082852,49.0408077 L78.429168,46.9252564 C83.2273516,42.1389359 85.5948672,35.4433333 84.8721016,28.7125577 Z M51.9414414,19.6953333 L41.4103398,19.6953333 C39.9594297,19.6953333 38.6900078,18.7154551 38.3274297,17.3135 L37.6172148,14.5674167 C37.0984492,12.5573846 38.6196836,10.5978269 40.700125,10.5978269 L43.9796641,10.5978269 C45.2767773,10.5978269 46.5210977,11.1129038 47.4379023,12.0274038 L52.8733867,17.4492244 C53.7047266,18.2784744 53.1152383,19.6953333 51.9414414,19.6953333 Z M78.5096523,29.7174744 C78.1369141,30.1445192 77.6155586,30.3607244 77.0890234,30.3607244 C76.6457617,30.3607244 76.2025,30.2075128 75.8447031,29.8959231 L72.8649883,27.2955 C72.0790703,26.6095256 72.0009766,25.418609 72.6886797,24.6348654 C73.373793,23.8535064 74.5677109,23.7730256 75.3536289,24.459 L78.3333438,27.0594231 C79.1190625,27.7451987 79.1971563,28.9361154 78.5096523,29.7174744 Z" id="Shape" fill="url(#linearGradient-3)" fill-rule="nonzero"></path>
                    </g>
                </g>
            </g>
        </g>
    </g>
</svg>