<?xml version="1.0" encoding="UTF-8"?>
<svg width="168px" height="151px" viewBox="0 0 168 151" version="1.1" xmlns="http://www.w3.org/2000/svg" xmlns:xlink="http://www.w3.org/1999/xlink">
    <!-- Generator: Sketch 52.5 (67469) - http://www.bohemiancoding.com/sketch -->
    <title>ic_photo_docs</title>
    <desc>Created with Sketch.</desc>
    <defs>
        <path d="M24.3286058,63.6 C16.6005285,48.2666667 11.9470748,36.2666667 10.3682449,27.6 C8.78941497,18.9333333 8,12.9333333 8,9.6 C20.2454966,10.9333333 28.7015782,10.9333333 33.3682449,9.6 C38.0349116,8.26666667 44.7015782,5.06666667 53.3682449,1.0658141e-14 C60.5062716,30.8803823 65.6241116,47.59617 68.7217649,50.1473633 C71.8194182,52.6985565 57.0216985,57.1827688 24.3286058,63.6 Z" id="path-1"></path>
        <filter x="-13.1%" y="-6.3%" width="126.2%" height="125.2%" filterUnits="objectBoundingBox" id="filter-2">
            <feOffset dx="0" dy="4" in="SourceAlpha" result="shadowOffsetOuter1"></feOffset>
            <feGaussianBlur stdDeviation="2" in="shadowOffsetOuter1" result="shadowBlurOuter1"></feGaussianBlur>
            <feColorMatrix values="0 0 0 0 0   0 0 0 0 0   0 0 0 0 0  0 0 0 0.24 0" type="matrix" in="shadowBlurOuter1"></feColorMatrix>
        </filter>
        <filter x="-24.5%" y="-9.2%" width="149.0%" height="118.5%" filterUnits="objectBoundingBox" id="filter-3">
            <feOffset dx="0" dy="2" in="SourceAlpha" result="shadowOffsetOuter1"></feOffset>
            <feGaussianBlur stdDeviation="2" in="shadowOffsetOuter1" result="shadowBlurOuter1"></feGaussianBlur>
            <feColorMatrix values="0 0 0 0 0   0 0 0 0 0   0 0 0 0 0  0 0 0 0.0555649909 0" type="matrix" in="shadowBlurOuter1" result="shadowMatrixOuter1"></feColorMatrix>
            <feMerge>
                <feMergeNode in="shadowMatrixOuter1"></feMergeNode>
                <feMergeNode in="SourceGraphic"></feMergeNode>
            </feMerge>
        </filter>
        <linearGradient x1="50%" y1="3.1769328%" x2="50%" y2="100%" id="linearGradient-4">
            <stop stop-color="#FFFFFF" offset="0%"></stop>
            <stop stop-color="#EBEEFC" offset="100%"></stop>
        </linearGradient>
        <linearGradient x1="50%" y1="0%" x2="50%" y2="100%" id="linearGradient-5">
            <stop stop-color="#DEE5F5" offset="0%"></stop>
            <stop stop-color="#DBE2F1" offset="10.012701%"></stop>
            <stop stop-color="#C1C4CB" offset="100%"></stop>
        </linearGradient>
    </defs>
    <g id="Page-1" stroke="none" stroke-width="1" fill="none" fill-rule="evenodd">
        <g id="Photos-&amp;-Documents_1" transform="translate(-531.000000, -306.000000)">
            <g id="ic_photo_docs" transform="translate(527.000000, 306.000000)">
                <path d="M85.6823224,94.3027379 C128.208248,94.3027379 157.682322,110.700008 160.682322,64.7000081 C163.682322,18.7000081 135.208248,15.0349199 92.6823224,15.0349199 C68.4064363,15.0349199 51.6823224,-15.9941451 15.6823224,11.1000081 C2.57758941,20.9628314 4.24036726,48.9446825 6.68232237,64.7000081 C10.7100168,90.6864145 0.682322365,110.700008 27.6823224,119.200008 C54.6823224,127.700008 63.6354169,94.3027379 85.6823224,94.3027379 Z" id="Oval" fill="#9E6A60" fill-rule="nonzero" opacity="0.25062779"></path>
                <path d="M124.529019,67.3104787 L137.129019,139.310479 C137.509831,141.486548 136.054488,143.55931 133.878419,143.940122 C133.65074,143.979966 133.420036,144 133.188897,144 L49.0160135,144 C47.0404646,144 45.3607885,142.557757 45.0620208,140.604931 L34.0465662,68.6049309 C33.7124721,66.421201 35.2118981,64.3801014 37.395628,64.0460073 C37.5958162,64.01538 37.7980414,64 38.0005589,64 L120.588897,64 C122.532016,64 124.194064,65.3964477 124.529019,67.3104787 Z" id="Path-4" fill="#C6CCD7" fill-rule="nonzero" transform="translate(85.594780, 104.000000) scale(1, -1) translate(-85.594780, -104.000000) "></path>
                <g id="Group-12" transform="translate(42.000000, 66.500000) rotate(-11.000000) translate(-42.000000, -66.500000) translate(7.000000, 30.000000)" fill-rule="nonzero">
                    <path d="M18.3286058,73 C10.6005285,57.6666667 5.94707483,45.6666667 4.3682449,37 C2.78941497,28.3333333 1.33333333,22.3333333 -1.08771461e-14,19 C13.5788299,20.3333333 22.7015782,20.3333333 27.3682449,19 C32.0349116,17.6666667 38.4011679,17.6666667 46.4670138,19 C54.2058612,43.4803823 59.6241116,56.99617 62.7217649,59.5473633 C65.8194182,62.0985565 51.0216985,66.5827688 18.3286058,73 Z" id="Path-6-Copy" fill="#A06C62"></path>
                    <g id="Path-6">
                        <use fill="black" fill-opacity="1" filter="url(#filter-2)" xlink:href="#path-1"></use>
                        <use fill="#FFFFFF" xlink:href="#path-1"></use>
                    </g>
                    <path d="M13,20.1213977 L14,22.9973564 C31.1671498,22.5850611 41.4173914,21.4937004 44.7507247,19.7232743 C48.084058,17.9528481 50.5004831,16.7506325 52,16.1166273 L51,15 C46.2005607,17.1119121 42.6132092,18.4448049 40.2379454,18.9986782 C33.5802586,20.5511437 27.360053,20.4876318 25.8734535,20.48174 C23.3370709,20.4716876 19.0459197,20.3515735 13,20.1213977 Z" id="Path-7" fill="#DFE3EB"></path>
                    <path d="M17.3809646,28.7806134 L18,30.9973564 C26.630104,30.5587372 32.9634373,30.1245377 37,29.694758 C41.0365627,29.2649783 44.9534709,28.607817 48.7507247,27.7232743 L47.6522145,25.9663788 C46.0066203,26.5075361 44.8685306,26.8516359 44.2379454,26.9986782 C37.5802586,28.5511437 31.360053,28.4876318 29.8734535,28.48174 C27.3370709,28.4716876 23.1729079,28.5713121 17.3809646,28.7806134 Z" id="Path-7-Copy" fill="#DFE3EB"></path>
                </g>
                <g id="Group-10" transform="translate(83.933013, 63.250000) rotate(30.000000) translate(-83.933013, -63.250000) translate(40.933013, 25.250000)">
                    <g id="picasso-(1)" transform="translate(34.584335, 8.625092)">
                        <path d="M50.276065,1.4471276 C50.2676271,1.07302426 50.1204347,0.732716848 49.8855831,0.477838365 C49.613699,0.18447001 49.2255609,0 48.7938276,0 L1.48364359,0 C1.05191036,0 0.66283484,0.18447001 0.391888173,0.479246564 C0.148129979,0.742574116 2.84217094e-14,1.09696303 2.84217094e-14,1.48561747 L2.84217094e-14,60.0381921 C2.84217094e-14,60.4268465 0.148129979,60.7812354 0.391888173,61.044563 C0.662365984,61.3393395 1.05191036,61.5238095 1.48364359,61.5238095 L48.7938276,61.5238095 C49.2250921,61.5238095 49.613699,61.3393395 49.8855831,61.0459712 C50.1204347,60.7910927 50.2676271,60.4503159 50.276065,60.0766819 C50.2774713,60.0644779 50.2774713,60.0508656 50.2774713,60.0381921 L50.2774713,1.48561747 C50.2774713,1.47294393 50.2774713,1.45933166 50.276065,1.4471276 Z" id="Path" fill="#FFEBCA"></path>
                        <path d="M36.7737361,10.3523836 C36.74186,11.4615507 36.7095152,12.568371 36.6785766,13.6775382 C36.6762328,13.7667221 36.673889,13.8568449 36.6710764,13.946029 C36.6467005,13.9314779 36.621856,13.9178656 36.5956051,13.9051921 C36.0668373,11.4394895 34.6389769,9.17656314 32.6410972,7.64259841 C31.6482512,6.88031 30.5194633,6.30108352 29.3264545,5.92698018 L24.7761454,5.92698018 C24.712862,5.9912865 24.6500473,6.05324591 24.5858264,6.1114502 C22.2640297,8.22323321 19.3872142,9.59854414 16.7129055,11.2399989 C15.8452201,11.7722866 15.0033169,12.3688805 14.2111027,13.0264951 L14.2232907,13.0410462 L17.9321653,26.2745419 C17.9321653,27.8592006 14.5495516,31.1716817 15.1378526,32.5394825 C15.3445783,33.0224842 15.5855239,33.4876491 15.8550642,33.933569 C15.9722556,34.1264881 16.0960098,34.3161214 16.2244516,34.5015303 C17.1357323,35.8186369 18.3203032,36.9315592 19.6947246,37.7600315 C19.0506404,41.2842073 15.7711551,43.9827271 12.2132231,44.5732189 C8.77623244,45.1439965 5.27408356,42.6693755 4.84235021,40.1440604 L4.84235021,39.8666512 C7.42618706,38.3157886 9.22859148,35.5637585 9.59610384,32.5704622 L9.59704131,32.5695234 C8.95201963,32.1189096 8.36840629,31.5964791 7.87245206,31.0167832 C6.14551913,28.9941842 5.24548888,26.3228891 5.24548888,23.660043 C5.24548888,23.2911028 5.26283318,22.9221627 5.29752179,22.5546309 C5.58440643,19.537865 7.00945433,16.6731814 9.11515011,14.4970921 L9.27453047,14.4351327 C8.51419247,12.4482073 8.25824631,10.2646077 8.5709131,8.15798805 C8.68341688,7.39898539 8.87045445,6.65124796 9.12358796,5.92698018 C9.86892545,3.79548288 11.1955326,1.86676168 12.9374662,0.429491346 L12.9374662,-2.84217094e-14 L30.4716493,-2.84217094e-14 L30.4716493,0.0422449874 C32.5745324,0.183061932 34.5747559,1.41896423 35.6426044,3.23737877 C36.1287144,4.06021839 36.4254431,4.98256868 36.5946675,5.92698018 C36.6415442,6.18467494 36.6785766,6.44330854 36.7085776,6.70335022 C36.8431134,7.91249735 36.8084247,9.13572623 36.7737361,10.3523836 Z" id="Path" fill="#A5CDFF"></path>
                        <path d="M42.2629832,41.3461667 C41.776873,43.1932141 40.7905898,45.0350981 39.3960117,46.3597151 C38.0979993,47.5937399 36.443725,48.378559 34.5091287,48.3020485 C29.9349125,48.1199254 27.5737394,43.2870919 27.2151335,39.2653634 L27.2151335,39.2639552 C23.8611146,34.5217139 22.987804,32.3357674 24.7756765,31.1003345 C28.3115766,28.657632 32.3021795,33.891324 32.3021795,33.1388928 L32.3021795,32.7140954 C33.9119212,31.919419 35.4597856,34.5550406 36.4831013,35.3520639 C37.7229867,36.3175979 39.6416451,36.6705787 40.8744989,35.4834929 C41.0062221,35.3562884 41.1238823,35.2154715 41.2288858,35.0657363 C41.4660813,34.7291841 41.9803174,34.8047558 42.1214158,35.1920021 C42.831596,37.1333968 42.7936259,39.3324861 42.2629832,41.3461667 Z" id="Path" fill="#8CB4EB"></path>
                        <path d="M45.4337146,52.1740417 L45.4337146,55.5968293 L4.84235021,55.5968293 L4.84235021,52.8025542 C4.84235021,52.8025542 8.81701509,48.5677229 12.125095,48.4428653 L19.9052004,41.3663504 L26.4510454,39.4296497 L26.081658,39.3676904 C26.2040058,39.3676904 26.3263536,39.3639353 26.4463577,39.356425 C26.7069914,39.3414046 26.9643438,39.3104248 27.2151335,39.2634859 L27.2151335,39.2648941 C27.5737394,43.2866226 29.9349125,48.119456 34.5091287,48.3015791 C36.443725,48.3780895 38.0979993,47.5932704 39.3960117,46.3592456 L39.4639828,46.4296541 L45.4337146,52.1740417 Z" id="Path" fill="#736572"></path>
                        <path d="M24.7756765,5.92698018 C24.712862,5.9912865 24.6495786,6.05324591 24.5853577,6.1114502 C22.2640297,8.22323321 24.9524013,16.0146282 22.2785614,17.6560829 C21.4104071,18.1883704 15.0033169,12.3688805 14.2106339,13.0264951 C12.8619949,14.1441112 11.6553918,15.4339934 10.7070786,16.8726719 L10.5017593,16.8243249 C10.0062738,16.0765874 9.59469751,15.2734622 9.27406173,14.4351327 C8.51372362,12.4482073 8.25824631,10.2646077 8.5709131,8.15798805 C8.68341688,7.39898539 8.86998559,6.65124796 9.12358796,5.92698018 C9.86892545,3.79548288 11.1955326,1.86676168 12.9374662,0.429491346 L12.9374662,0 L26.1688483,0 L26.1688483,0.350164444 C26.9357491,2.14041574 26.0282186,4.63615923 24.7756765,5.92698018 Z" id="Path" fill="#8CB4EB"></path>
                        <path d="M16.2244516,34.5015303 C13.9659382,34.6536124 11.5133557,33.9162016 9.59704131,32.569054 C8.95201963,32.1184401 8.36840629,31.5964791 7.87245206,31.0167832 C6.14551913,28.9941842 5.24548888,26.3228891 5.24548888,23.660043 C5.24548888,23.2911028 5.26283318,22.9221627 5.29752179,22.5546309 C5.58440643,19.537865 7.00945433,16.6731814 9.11515011,14.4970921 L9.27453047,14.4351327 C9.59469751,15.2729928 10.0062738,16.0765874 10.502228,16.8243249 L10.7075474,16.8726719 C9.22390377,19.121986 8.37215642,21.7336688 8.58966373,24.6143116 C8.85639141,28.1413036 11.7172689,31.6579691 15.1378526,32.5394825 C15.3445783,33.0220148 20.5966298,32.7277076 18.3390539,33.7533235 C18.1337345,33.8472014 16.0960098,34.3161214 16.2244516,34.5015303 Z" id="Path" fill="#8CB4EB"></path>
                        <path d="M19.6947246,37.7595622 C19.0506404,41.2842073 15.7711551,43.9827271 12.2132231,44.5732189 C8.77623244,45.1439965 5.27408356,42.6693755 4.84235021,40.1440604 L4.84235021,39.8666512 C7.42618706,38.3157886 9.22859148,35.5637585 9.59610384,32.5704622 L9.59704131,32.569054 C11.5133557,33.9162016 13.9659382,34.6536124 16.2249204,34.5015303 C16.6285277,35.0854507 19.895825,32.5554417 20.3997483,33.0520558 C21.032582,33.6758743 18.92923,37.2986218 19.6947246,37.7595622 Z" id="Path" fill="#A5CDFF"></path>
                        <path d="M36.5946675,5.92698018 L24.7761454,5.92698018 C26.0282186,4.63615923 26.9357491,2.14041574 26.1693171,0.350164444 L26.1693171,0 L30.4716493,0 L30.4716493,0.0422449874 C32.5745324,0.183061932 34.5747559,1.41896423 35.6426044,3.23737877 C36.1282457,4.06021839 36.4249744,4.98256868 36.5946675,5.92698018 Z" id="Path" fill="#8CB4EB"></path>
                        <path d="M36.1915291,28.4642435 L32.5159367,28.4281006 C32.399214,28.4266924 32.3035858,28.5205703 32.3021795,28.6374482 L32.3021795,33.1384234 C32.3021795,33.891324 32.1685813,34.6127755 31.9252918,35.2802472 C31.178548,37.32303 29.3958318,38.8626272 27.2151335,39.2639552 C26.9638751,39.3108942 26.7069914,39.3418739 26.4458889,39.356425 L26.4510454,39.4296497 L26.7468365,46.9980847 C26.7880879,48.049517 25.9283715,48.915071 24.8783362,48.878928 L12.125095,48.4428653 L21.2613397,38.5448506 L21.2622773,38.5420344 C20.7171027,38.3228295 20.1930225,38.059502 19.6947246,37.7600315 C18.3198345,36.9315592 17.1357323,35.8186369 16.2244516,34.5015303 C16.0960098,34.3161214 15.9722556,34.1264881 15.8550642,33.933569 C15.5855239,33.4876491 15.3445783,33.0224842 15.1378526,32.5394825 C14.5495516,31.1716817 14.2232907,29.6640029 14.2232907,28.0793442 L14.2232907,13.0410462 L14.2106339,13.0264951 C15.0033169,12.3688805 15.8452201,11.7722866 16.7129055,11.2399989 C19.3867454,9.59854414 22.2635609,8.22323321 24.5853577,6.1114502 C24.6495786,6.05324591 24.712862,5.9912865 24.7756765,5.92698018 L29.3264545,5.92698018 C30.5194633,6.30108352 31.6482512,6.88031 32.6406284,7.64259841 C34.638508,9.17656314 36.0663686,11.4394895 36.5956051,13.9051921 C36.6213873,13.9178656 36.6462318,13.9314779 36.6710764,13.946029 C36.6734202,13.8568449 36.6757641,13.7667221 36.6785766,13.6775382 L36.7512353,17.4012044 L36.949992,27.6967919 C36.9584297,28.12112 36.6152933,28.468468 36.1915291,28.4642435 Z" id="Path" fill="#F2D1A5"></path>
                        <path d="M15.8344385,48.4428653 L24.9702143,38.5448506 L24.9716207,38.5420344 C24.4264461,38.3228295 23.9018971,38.059502 23.404068,37.7600315 C22.0291779,36.9315592 20.8450757,35.8186369 19.933795,34.5015303 C19.8053532,34.3161214 19.681599,34.1264881 19.5639389,33.933569 C19.2943986,33.4876491 19.053453,33.0224842 18.8471961,32.5394825 C18.2584263,31.1716817 17.9321653,29.6640029 17.9321653,28.0793442 L17.9321653,14.8627465 C17.9321653,13.6911505 18.4942154,12.589963 19.4439349,11.9051238 C19.7950404,11.6521229 20.1466146,11.4089791 20.422249,11.2399989 C23.0960889,9.59854414 25.9729043,8.22323321 28.2947011,6.1114502 C28.358922,6.05324591 28.4217366,5.9912865 28.48502,5.92698018 L24.7761454,5.92698018 C24.712862,5.9912865 24.6500473,6.05324591 24.5858264,6.1114502 C22.2640297,8.22323321 19.3872142,9.59854414 16.7129055,11.2399989 C15.8452201,11.7722866 15.0033169,12.3688805 14.2111027,13.0264951 L14.2232907,13.0410462 L14.2232907,28.0793442 C14.2232907,29.6640029 14.5495516,31.1716817 15.1383214,32.5394825 C15.3445783,33.0224842 15.5855239,33.4876491 15.8550642,33.933569 C15.9727243,34.1264881 16.0964785,34.3161214 16.2249204,34.5015303 C17.1357323,35.8186369 18.3203032,36.9315592 19.6951933,37.7600315 C20.1930225,38.059502 20.7175714,38.3228295 21.262746,38.5420344 L21.2613397,38.5448506 L12.1255639,48.4428653 L15.8344385,48.4428653 Z" id="Path" fill="#F2BB88"></path>
                        <path d="M16.2652342,18.4052284 L21.130554,17.4143473 C21.1610239,17.4077759 21.1928998,17.4082453 21.2229008,17.4152862 L25.8899328,18.4808001 C26.0872832,18.5263308 26.1229094,18.7924747 25.9443095,18.8882301 L21.0072687,21.5247904 C20.9397664,21.560464 20.8586699,21.5590558 20.7930426,21.5200966 L16.1977319,18.808434 C16.0252261,18.7065764 16.0688214,18.4451265 16.2652342,18.4052284 Z" id="Path" fill="#E6E6F0"></path>
                        <path d="M32.509374,16.4173642 C32.5557818,16.3957722 32.6082835,16.390609 32.657504,16.4032825 L36.1690283,17.3026327 C36.3387215,17.3462859 36.3912232,17.562205 36.2599688,17.6786136 L33.3414333,20.2762146 C33.2743997,20.3362964 33.1768965,20.3485006 33.0967375,20.3076637 L29.2678588,18.3498404 C29.1061346,18.2672279 29.1094159,18.0344107 29.273484,17.9564921 L32.509374,16.4173642 Z" id="Path" fill="#E6E6F0"></path>
                        <path d="M19.9342638,33.8950791 L27.7668708,34.1508963 C28.0814126,34.1607535 28.210792,33.7514459 27.9482832,33.5787106 L24.2614405,31.151498 C24.1667498,31.0895385 24.046277,31.0834365 23.9459612,31.1360081 L19.8001968,33.3074036 C19.5165935,33.4557306 19.6145656,33.8847525 19.9342638,33.8950791 Z" id="Path" fill="#FF485A"></path>
                        <path d="M45.4337146,55.5968293 L4.84235021,55.5968293 L4.84235021,40.1440604 C4.82781856,40.0586316 4.81656818,39.9732027 4.80906793,39.8877737 C4.82031831,39.8816717 4.83156869,39.8741615 4.84235021,39.8666512 L4.84235021,5.92698018 L45.4337146,5.92698018 L45.4337146,55.5968293 Z M50.276065,1.4471276 C50.2676271,1.07302426 50.1204347,0.732716848 49.8855831,0.477838365 C49.613699,0.18447001 49.2255609,-2.84217094e-14 48.7938276,-2.84217094e-14 L1.48364359,-2.84217094e-14 C1.05191036,-2.84217094e-14 0.66283484,0.18447001 0.391888173,0.479246564 C0.148129979,0.742574116 2.84217094e-14,1.09696303 2.84217094e-14,1.48561747 L2.84217094e-14,60.0381921 C2.84217094e-14,60.4268465 0.148129979,60.7812354 0.391888173,61.044563 C0.662365984,61.3393395 1.05191036,61.5238095 1.48364359,61.5238095 L48.7938276,61.5238095 C49.2250921,61.5238095 49.613699,61.3393395 49.8855831,61.0459712 C50.1204347,60.7910927 50.2676271,60.4503159 50.276065,60.0766819 C50.2774713,60.0644779 50.2774713,60.0508656 50.2774713,60.0381921 L50.2774713,1.48561747 C50.2774713,1.47294393 50.2774713,1.45933166 50.276065,1.4471276 Z" id="Shape" fill="#99675D" fill-rule="nonzero"></path>
                        <path d="M4.84235021,5.92698018 L4.84235021,55.5968293 L0.391888173,61.044563 C0.148598715,60.7812354 0,60.4268465 0,60.0381921 L0,1.48561747 C0,1.09696303 0.148598715,0.742574116 0.391888173,0.479246564 L4.84235021,5.92698018 Z" id="Path" fill="#F5A623"></path>
                        <path d="M50.276065,1.4471276 L50.276065,60.0766819 C50.2676271,60.4503159 50.1204347,60.7906233 49.8855831,61.0459712 L45.4337146,55.5968293 L45.4337146,5.92698018 L49.8855831,0.477838365 C50.1204347,0.732716848 50.2676271,1.07302426 50.276065,1.4471276 Z" id="Path" fill="#F5A623"></path>
                        <g id="Group" transform="translate(15.840532, 12.256696)" fill="#152C37">
                            <path d="M1.29519982,3.47864499 C3.85934845,2.47696792 6.63491046,2.14041574 9.35562703,2.60323364 C10.5228537,2.80178539 11.0244331,1.01294242 9.84876849,0.812982468 C6.80179119,0.294776553 3.68824897,0.560920382 0.80205824,1.68792434 C0.337511345,1.86957807 0.00937531514,2.31174284 0.15469264,2.83041824 C0.278915655,3.27492992 0.824090261,3.66264564 1.29519982,3.47864499 Z" id="Path"></path>
                            <path d="M15.023005,2.48353943 C16.7494693,1.73157753 18.6742214,1.55696466 20.362247,2.49058018 C21.4075946,3.06886794 22.3441885,1.46590318 21.2983722,0.887145936 C18.9817318,-0.394287109 16.4452402,-0.147388217 14.0873485,0.880574544 C13.6246767,1.08194257 13.528111,1.75223066 13.7545249,2.15074236 C14.0259402,2.62811137 14.5668959,2.68256054 15.023005,2.48353943 Z" id="Path"></path>
                            <path d="M5.26002053,7.8763544 C5.01532486,7.8763544 4.77672312,7.77637448 4.60327973,7.60410854 C4.43171153,7.43090387 4.33280192,7.19198457 4.33280192,6.94696336 C4.33280192,6.88735087 4.33889585,6.82586095 4.35014622,6.76624846 C4.36233407,6.70663597 4.3796785,6.64890105 4.40311672,6.5930438 C4.42655507,6.53577823 4.45514975,6.48273725 4.48843215,6.4320432 C4.52171455,6.38134914 4.56109075,6.3344102 4.60327973,6.29075689 C4.81844324,6.0757766 5.13861017,5.9767354 5.44049543,6.03728673 C5.49955986,6.04949079 5.55768681,6.06685817 5.61487618,6.0903277 C5.67019059,6.11379711 5.72362983,6.14242996 5.77425665,6.17575652 C5.82488323,6.20908319 5.87175993,6.2485119 5.91488626,6.29075689 C5.95848157,6.3344102 5.9969203,6.38134914 6.0302027,6.4320432 C6.06348509,6.48273725 6.09207978,6.53577823 6.11551812,6.5930438 C6.13895635,6.64843169 6.15630065,6.70663597 6.16848862,6.76624846 C6.18114521,6.82539147 6.18583293,6.88735087 6.18583293,6.94696336 C6.18583293,7.19198457 6.08692332,7.43090387 5.91488626,7.60410854 C5.87175993,7.64635353 5.82488323,7.68578236 5.77425665,7.71910891 C5.72362983,7.75290495 5.67019059,7.78106832 5.61487618,7.80453785 C5.55768681,7.82800726 5.49955986,7.84537464 5.44049543,7.85804818 C5.38096215,7.87025237 5.3204914,7.8763544 5.26002053,7.8763544 Z" id="Path"></path>
                            <path d="M17.0452604,6.68316656 C16.8005647,6.68316656 16.561963,6.58412537 16.3899259,6.41092058 C16.3467995,6.3686756 16.3083607,6.32032846 16.273672,6.2696344 C16.2403896,6.22034854 16.2117949,6.16589937 16.1883567,6.110042 C16.1663247,6.05418463 16.1475741,5.99504162 16.1363237,5.93683733 C16.1241357,5.87628613 16.1180418,5.81573492 16.1180418,5.75471424 C16.1180418,5.69416303 16.1241357,5.63361171 16.1363237,5.57399934 C16.1475741,5.51485622 16.1663247,5.45524385 16.1883567,5.39938648 C16.2117949,5.34399847 16.2403896,5.28907994 16.273672,5.23979408 C16.3083607,5.18910002 16.3467995,5.14075288 16.3899259,5.09897726 C16.6050894,4.88211928 16.9238501,4.78307821 17.2266728,4.84503749 C17.2847997,4.85630284 17.344333,4.87460905 17.4001162,4.89713975 C17.4554305,4.92060928 17.5098073,4.94877264 17.5594965,4.98256868 C17.6101232,5.01730344 17.6584061,5.05532395 17.7001262,5.09897726 C17.7437214,5.14075288 17.7821603,5.18910002 17.8168489,5.23979408 C17.8501313,5.2895493 17.878726,5.34399847 17.9016955,5.39938648 C17.9241962,5.45524385 17.9424781,5.51485622 17.9537285,5.57399934 C17.9663852,5.63361171 17.9724791,5.69416303 17.9724791,5.75471424 C17.9724791,5.81526544 17.9663852,5.87581677 17.9537285,5.93683733 C17.9424781,5.99504162 17.9241962,6.05418463 17.9016955,6.110042 C17.878726,6.16589937 17.8501313,6.22034854 17.8168489,6.2696344 C17.7821603,6.32032846 17.7437214,6.3686756 17.7001262,6.41092058 C17.6584061,6.45410453 17.6101232,6.4925944 17.5594965,6.52732916 C17.5098073,6.56065584 17.4554305,6.58928868 17.4001162,6.61275809 C17.344333,6.63481942 17.2847997,6.653595 17.2266728,6.66439099 C17.166202,6.67706441 17.1057313,6.68316656 17.0452604,6.68316656 Z" id="Path"></path>
                        </g>
                    </g>
                    <g id="magritte-(1)" transform="translate(35.137238, 38.100898) rotate(-20.000000) translate(-35.137238, -38.100898) translate(9.637238, 7.100898)">
                        <path d="M2.81306328,3.44250204 L2.81306328,58.0813075 L47.4658142,58.0813075 L47.4658142,3.44250204 L2.81306328,3.44250204 Z M19.8086346,24.0799099 L19.8072283,24.0799099 C19.7987905,24.0813236 19.7922278,24.0813236 19.7842587,24.0827372 C19.7922278,24.0813236 19.7987905,24.0799099 19.8072283,24.0784962 L19.8100409,24.0784962 C19.8086346,24.0784962 19.8086346,24.0799099 19.8086346,24.0799099 Z" id="Shape" fill="#E0E0E0" fill-rule="nonzero"></path>
                        <path d="M18.2124872,26.2759501 L19.761758,29.5241249 L18.2124872,32.6756054 C16.4485216,32.6756054 15.0169111,31.2434982 15.0169111,29.4757778 C15.0169111,27.7080573 16.4485216,26.2759501 18.2124872,26.2759501 Z" id="Path" fill="#F4C294"></path>
                        <path d="M34.1308347,29.4757778 C34.1308347,31.2434982 32.7006305,32.6756054 30.9347898,32.6756054 L27.6810867,29.3490427 L30.9347898,26.2759501 C32.7006305,26.2759501 34.1308347,27.7080573 34.1308347,29.4757778 Z" id="Path" fill="#F4C294"></path>
                        <path d="M47.2834644,49.4313995 L45.435121,58.5605542 L4.84375654,58.5605542 L2.58852445,49.7787475 L14.5758025,41.4747794 L17.9752917,39.1189139 L19.1387683,38.3129723 C19.1387683,40.9509408 21.8276087,42.2980884 24.574576,42.3548845 C27.4415474,42.4154358 30.366177,41.0762678 30.366177,38.3218906 L31.4940273,39.0499136 L35.5896337,41.7432702 L47.2834644,49.4313995 Z" id="Path" fill="#736572"></path>
                        <path d="M18.2846772,41.4747794 L19.8386356,40.3980001 C19.3984646,39.8276919 19.1387683,39.1325262 19.1387683,38.3129723 L17.9752917,39.1189139 L14.5753336,41.4747794 L4.84375654,48.2161502 L4.84375654,58.5600848 L8.5526312,58.5600848 L8.5526312,48.9460507 C8.5526312,48.4888655 8.7767013,48.0612517 9.15218264,47.8007406 L18.2846772,41.4747794 Z" id="Path" fill="#605260"></path>
                        <polygon id="Path" fill="#F4F3D5" points="18.943293 37.1836213 30.2044527 37.1836213 30.2044527 48.4071917 18.943293 48.4071917"></polygon>
                        <path d="M18.2124872,24.258045 L18.2124872,25.4643942 L30.9347898,25.4643942 L30.9347898,24.258045 L18.2124872,24.258045 Z M19.5723766,24.7739559 C19.8311353,24.754777 20.0842688,24.7269677 20.3317771,24.690528 C20.0842688,24.7269677 19.8311353,24.7562155 19.5723766,24.7739559 Z" id="Shape" fill="#736572" fill-rule="nonzero"></path>
                        <polygon id="Path" fill="#F3F3F8" points="18.8406333 42.378354 30.3071124 42.378354 30.3071124 54.127171 18.8406333 54.127171"></polygon>
                        <path d="M26.1149404,11.5188163 L23.0328055,11.5188163 C19.8100409,11.5188163 17.1976094,14.1342541 17.1976094,17.3613064 L17.1976094,25.2667628 L31.9501365,25.2667628 L31.9501365,17.3613064 C31.9501365,14.1342541 29.3377049,11.5188163 26.1149404,11.5188163 Z" id="Path" fill="#736572"></path>
                        <path d="M27.044034,44.0446864 C26.605738,44.1521767 26.1669733,44.2596668 25.7286774,44.367157 C25.4202295,44.4431981 25.1113128,44.5187698 24.8023963,44.5948109 C24.7573947,44.6056068 24.7100493,44.6149946 24.6636416,44.6248518 C24.5511378,44.6009129 24.4194145,44.5905863 24.3448809,44.5732189 C24.0350266,44.4999942 23.7247037,44.4267694 23.4143808,44.3535447 C22.9784287,44.2507484 22.5420077,44.1474827 22.1055868,44.0446864 C21.0996155,43.8071754 20.6702261,45.3585074 21.6780724,45.5964879 C22.579509,45.8091212 23.4978211,46.1104693 24.4137894,46.2418983 C24.920994,46.3146537 25.4891381,46.0827753 25.9771232,45.963081 C26.4749525,45.8410397 26.9732504,45.7185291 27.4710797,45.5964879 C28.4751759,45.3500584 28.0500054,43.7977876 27.044034,44.0446864 Z" id="Path" fill="#E05922"></path>
                        <path d="M26.4285446,11.5272653 C26.3244786,11.5216325 26.2199439,11.5188163 26.1149404,11.5188163 L23.0328055,11.5188163 C19.8100409,11.5188163 17.1976094,14.1342541 17.1976094,17.3613064 L17.1976094,25.3526611 L20.9069528,25.3526611 L20.9069528,17.3613064 C20.9069528,14.2398667 23.3510975,11.6906127 26.4285446,11.5272653 Z" id="Path" fill="#605260"></path>
                        <polygon id="Path" fill="#E05922" points="26.9938761 51.5539783 25.24913 55.8132178 24.1325299 55.8132178 22.1519946 51.4347534 23.8409577 46.7619818 25.3986663 46.7619818"></polygon>
                        <path d="M26.4374512,45.8720195 L25.7849293,47.0051255 C25.6827383,47.1825547 25.4938257,47.2914531 25.2894438,47.2914531 L23.9820561,47.2914531 C23.7776742,47.2914531 23.5887616,47.1825547 23.4865707,47.0051255 L22.8335801,45.8720195 C22.7318578,45.6950597 22.7318578,45.4767935 22.8335801,45.2993644 L23.4865707,44.1662583 C23.5887616,43.9892985 23.7776742,43.8799308 23.9820561,43.8799308 L25.2894438,43.8799308 C25.4938257,43.8799308 25.6827383,43.9892985 25.7849293,44.1662583 L26.4374512,45.2993644 C26.5396421,45.4767935 26.5396421,45.6950597 26.4374512,45.8720195 Z" id="Path" fill="#EE7124"></path>
                        <path d="M31.4940273,39.0499136 L31.5713738,40.6237763 L31.378711,42.3102926 L29.6625596,46.5976955 L28.3673598,47.1234116 L24.574576,42.3548845 C24.590514,42.3562927 24.6078584,42.3562927 24.6252027,42.3562927 C24.6683292,42.3572315 24.7114556,42.3572315 24.7559884,42.3572315 C26.3727615,42.3572315 30.0652293,38.1360125 30.0844487,37.8595421 C30.5377452,38.3364417 31.1293276,38.8100556 31.4940273,39.0499136 Z" id="Path" fill="#E6E6F0"></path>
                        <path d="M17.5341831,39.4244865 L18.1131088,40.179734 L18.33296,40.7495728 L20.3074013,45.8480806 L20.8019492,47.1234116 L24.594733,42.3548845 C24.5787949,42.3562927 24.5614506,42.3562927 24.5441063,42.3562927 C24.500511,42.3572315 24.4573847,42.3572315 24.4128519,42.3572315 C22.7965476,42.3572315 19.069391,38.1012777 19.0501716,37.824338 C18.6446893,38.4514422 18.0699824,39.1513018 17.5341831,39.4244865 Z" id="Path" fill="#E6E6F0"></path>
                        <path d="M30.9352586,25.4390288 L30.9352586,34.4419178 C30.9352586,38.6316878 28.0865691,42.0267814 24.574576,42.0267814 C21.0611767,42.0267814 18.2129559,38.6316878 18.2129559,34.4419178 L18.2129559,25.4390288 L30.9352586,25.4390288 Z" id="Path" fill="#F2BB88"></path>
                        <path d="M4.84375654,55.5968293 L4.84375654,5.92698018 L45.435121,5.92698018 L45.435121,55.5968293 L4.84375654,55.5968293 Z M49.8869894,0.479246564 C49.6160428,0.18447001 49.2269672,-2.84217094e-14 48.7952339,-2.84217094e-14 L1.48364359,-2.84217094e-14 C1.05237909,-2.84217094e-14 0.66283484,0.18447001 0.391888173,0.479246564 C0.148598715,0.742574116 2.84217094e-14,1.09696303 2.84217094e-14,1.48561747 L2.84217094e-14,60.0381921 C2.84217094e-14,60.4273158 0.148598715,60.7812354 0.391888173,61.0450323 C0.66283484,61.3393395 1.05237909,61.5238095 1.48364359,61.5238095 L48.7952339,61.5238095 C49.2269672,61.5238095 49.6160428,61.3393395 49.8869894,61.0450323 C50.1302788,60.7812354 50.2788775,60.4273158 50.2788775,60.0381921 L50.2788775,1.48561747 C50.2788775,1.09649368 50.1302788,0.742574116 49.8869894,0.479246564 Z" id="Shape" fill="#99675D" fill-rule="nonzero"></path>
                        <path d="M4.84375654,5.92698018 L4.84375654,55.5968293 L0.391888173,61.044563 C0.148598715,60.7812354 0,60.4268465 0,60.0381921 L0,1.48561747 C0,1.09649368 0.148598715,0.742574116 0.391888173,0.478777204 L4.84375654,5.92698018 Z" id="Path" fill="#99675D"></path>
                        <path d="M50.2788775,1.48561747 L50.2788775,60.0381921 C50.2788775,60.4268465 50.1302788,60.7812354 49.8869894,61.044563 L45.435121,55.5968293 L45.435121,5.92698018 L49.8869894,0.479246564 C50.1302788,0.742574116 50.2788775,1.09649368 50.2788775,1.48561747 Z" id="Path" fill="#99675D"></path>
                        <path d="M35.8357358,26.3674811 L13.31201,26.3674811 C12.8001177,26.3674811 12.3847913,25.951602 12.3847913,25.4390288 C12.3847913,24.9259862 12.8001177,24.5105765 13.31201,24.5105765 L35.8357358,24.5105765 C36.347628,24.5105765 36.7629544,24.9259862 36.7629544,25.4390288 C36.7629544,25.951602 36.347628,26.3674811 35.8357358,26.3674811 Z" id="Path" fill="#605260"></path>
                        <path d="M25.6330491,23.008061 C25.6330491,23.008061 25.5922665,23.035755 25.5135139,23.0831633 C25.2102224,23.2704497 24.344412,23.7689413 23.1579659,24.1895142 C22.0577727,24.5791074 20.6796014,24.9001697 19.2147084,24.8414961 C18.9461056,24.8316389 18.6728151,24.8072306 18.3995248,24.7696794 C15.5156778,24.3650658 13.2674772,22.4405692 12.3604155,21.5463824 C12.1260326,21.3154428 12.1799407,20.9249108 12.4682317,20.767196 C13.4320141,20.240541 15.5667733,19.2501294 17.9879484,19.2477824 C18.3713988,19.2468436 18.763287,19.2717212 19.1589253,19.3271092 C22.9446775,19.8579886 25.6330491,23.008061 25.6330491,23.008061 Z" id="Path" fill="#B1F192"></path>
                        <path d="M25.6330491,23.008061 C25.6330491,23.008061 25.5922665,23.035755 25.5135139,23.0831633 C25.3128821,23.2070821 24.8661484,23.4666544 24.2422211,23.7506351 L13.0574702,22.1842826 C12.7748044,21.9434858 12.5404215,21.7238115 12.3590091,21.5449742 C12.1260326,21.3154428 12.1808782,20.9244413 12.4677628,20.7676653 C12.6908953,20.6456241 12.9768425,20.4991746 13.3148226,20.3452148 L24.4995735,21.9125061 C25.2238166,22.5278756 25.6330491,23.008061 25.6330491,23.008061 Z" id="Path" fill="#A1D685"></path>
                        <path d="M31.8934158,20.6573588 C31.7621614,20.6432772 31.6313758,20.6329505 31.5019963,20.6263791 C27.9154696,20.4259498 24.8155216,22.6081412 24.7391128,22.6635292 L24.7381753,22.6635292 C24.7381753,22.6635292 25.1094377,23.0686122 25.7643035,23.6032467 C26.1144715,23.889105 26.545736,24.2120449 27.0445028,24.529352 C27.6370227,24.9058024 28.3256396,25.2742731 29.0869152,25.5652945 C29.6461528,25.7788667 30.246173,25.9501938 30.8771316,26.0520514 C31.0238554,26.0759902 31.1729228,26.096174 31.3224591,26.1116638 C34.0989587,26.4026852 36.6448255,25.1925994 37.8097084,24.52325 C38.1631578,24.3204738 38.2142532,23.8294925 37.9109618,23.5581854 C36.9096781,22.6611823 34.6699154,20.9493191 31.8934158,20.6573588 Z" id="Path" fill="#B1F192"></path>
                        <path d="M37.8078334,24.5241888 C37.6128269,24.6363729 37.3798502,24.763108 37.1135912,24.8959453 L25.9086834,23.719186 L24.6411408,23.5868181 C24.1315924,23.5342465 23.762205,23.0770612 23.8147068,22.5668349 C23.8686149,22.0566087 24.3261302,21.6867297 24.8347411,21.7407095 L26.1022837,21.8730774 L37.3071915,23.0498366 C37.5401681,23.2343067 37.7417373,23.4065726 37.9090868,23.5558384 C38.2142532,23.8290231 38.1631578,24.3204738 37.8078334,24.5241888 Z" id="Path" fill="#A1D685"></path>
                        <path d="M24.3359743,28.9054696 C24.2422211,28.9054696 24.1470617,28.8909186 24.0528398,28.8608777 C23.5653234,28.7041016 23.2967205,28.1816712 23.4528196,27.6930368 C24.8023963,23.476981 23.858302,22.0505066 23.8470516,22.0331392 L23.7936123,21.9200164 C23.6046997,21.5205659 23.7275163,21.0436663 24.0856533,20.7859715 C24.5834826,20.4278274 25.2838186,20.6512567 25.483044,21.2314221 C25.9185275,22.4992428 26.3090093,24.8541696 25.219129,28.2600592 C25.0925622,28.6538769 24.7283312,28.9054696 24.3359743,28.9054696 Z" id="Path" fill="#A1D685"></path>
                        <path d="M29.3700498,31.7363572 C29.3700498,31.9095619 29.3611432,32.0813584 29.3452051,32.2512773 C29.0869152,34.8394906 26.906217,36.8588039 24.254409,36.8588039 C21.6940105,36.8588039 19.5751893,34.9770217 19.1992391,32.5197681 C19.1584565,32.2648896 19.1387683,32.0020315 19.1387683,31.7363572 C19.1387683,30.1676578 19.841917,28.7651221 20.9510168,27.8254046 C21.8412029,27.0692182 22.9943666,26.6139105 24.254409,26.6139105 C24.4076954,26.6139105 24.5595755,26.6200126 24.7091118,26.6336248 C25.9996239,26.7472171 27.1518501,27.3414641 27.9876595,28.2351815 C28.8459696,29.1514296 29.3700498,30.3816994 29.3700498,31.7363572 Z" id="Path" fill="#B1F192"></path>
                        <path d="M22.9081137,32.5197681 C22.8673312,32.2648896 22.847643,32.0020315 22.847643,31.7363572 C22.847643,30.1676578 23.5512604,28.7651221 24.6598915,27.8254046 C25.0878746,27.4620971 25.577266,27.1687288 26.1097839,26.9612587 C25.6691441,26.7894621 25.1994408,26.6768086 24.7091118,26.6336248 C24.5595755,26.6200126 24.4076954,26.6139105 24.254409,26.6139105 C22.9943666,26.6139105 21.8412029,27.0692182 20.9510168,27.8254046 C19.841917,28.7651221 19.1387683,30.1676578 19.1387683,31.7363572 C19.1387683,32.0020315 19.1584565,32.2648896 19.1992391,32.5197681 C19.5751893,34.9770217 21.6940105,36.8588039 24.254409,36.8588039 C24.908806,36.8588039 25.5341396,36.7353545 26.1093151,36.5109863 C24.434415,35.8590045 23.1879669,34.3489786 22.9081137,32.5197681 Z" id="Path" fill="#A1D685"></path>
                        <g id="Group" transform="translate(14.040472, 38.933036)" fill="#605260">
                            <path d="M19.4922178,9.61074832 L20.5891295,12.1806554 C20.718509,12.4843503 20.688508,12.8326373 20.5089707,13.1091076 L18.2035806,16.6637936 L11.0469339,16.6637936 L12.6168304,12.6082691 L14.3268879,8.19037589 L17.4535554,0.116877935 L21.5491618,2.81023446 L22.135119,7.25863793 C22.2119966,7.84490528 21.7624502,8.36780515 21.1718054,8.37813165 L20.2788066,8.39409095 C19.6595671,8.40488682 19.2489283,9.04044015 19.4922178,9.61074832 Z" id="Path"></path>
                            <path d="M3.99435298,16.6637936 L1.68896305,13.1091076 C1.50942574,12.8326373 1.47942473,12.4843503 1.60880408,12.1806554 L2.63774494,9.77034072 C2.91337921,9.12352205 2.44789484,8.40347874 1.74568368,8.3908052 L0.998471002,8.3776623 C0.417670319,8.36733567 -0.0290635369,7.86086458 0.0323448072,7.28304618 L0.535330554,2.54174372 L3.9348197,0.185878209 L10.0419001,16.6637936 L3.99435298,16.6637936 Z" id="Path"></path>
                        </g>
                    </g>
                </g>
                <g id="Group-9" filter="url(#filter-3)" transform="translate(110.549283, 83.541185) scale(-1, 1) rotate(-40.000000) translate(-110.549283, -83.541185) translate(86.049283, 18.541185)">
                    <g id="Group-6">
                        <path d="M5.20668126,9.99932181 C4.65957083,9.86028903 3.2282213,9 3,9 C1.8954305,9 1,7.43299662 1,5.5 C1,3.56700338 1.8954305,2 3,2 C3.51061898,2 4.64656624,0.725653211 5,1.27674809 C5.01436876,1.29915271 5.02773311,1.32388047 5.04014573,1.35078598 C5.27179021,1.12309487 5.55229186,0.91318741 5.89181938,0.729216416 C7.13262873,0.0568911597 10.9191177,2.08721929e-13 11.5,2.08721929e-13 C15.0898509,2.08721929e-13 18,2.6862915 18,6 C18,9.3137085 15.0898509,12 11.5,12 C9.94319905,12 7.76468671,12.8424883 6.64545743,12 C6.1197822,11.6043034 5.62491046,10.8677161 5.20668126,9.99932181 Z" id="Combined-Shape" fill="#D8D8D8" fill-rule="nonzero"></path>
                        <path d="M8.49228161,20.7046082 L7.73744455,13.8229023 C4.53851092,13.7742294 5.16240794,8.13442701 8.37670063,9.85559416 C8.95203109,10.1157455 10.4223201,9.4003293 9.91091521,7.64430767 C13.362898,10.2458212 18.173225,5.6800478 18.4769466,8.48979957 C19.0746751,14.0194307 17.9181681,18.5643657 14.8513682,18.5646918 C14.5502525,18.5647238 14.2568804,18.5750792 13.8743029,18.5056266 L15.5528002,20.3185037 C14.5517413,20.9255235 11.8721849,22.5379726 10.871126,22.5379726 C9.87006697,22.5379726 9.58034356,21.311628 8.49228161,20.7046082 Z" id="Mask" fill="#FFFFFF" transform="translate(12.128934, 15.037973) rotate(-5.000000) translate(-12.128934, -15.037973) "></path>
                        <g id="venus-de-milo" transform="translate(0.000000, 18.000000)">
                            <path d="M29.1141667,40.1330215 C21.3510294,45.7989492 14.2063971,47.0911699 9.30087255,47.0911699 C5.17646569,47.0911699 2.63375,46.1773184 2.63375,46.1773184 C2.29411275,42.5492988 2.88211275,38.8878867 4.39775,35.577457 C6.16727451,31.7147285 8.37035294,27.2333965 10.9654314,23.8564219 L11.0675147,23.4975117 C10.2474853,23.2712109 9.51320588,22.8404707 8.92256373,22.2631875 L0.541161765,23.9116758 L0.0139313725,15.343957 C-0.137872549,12.8755488 1.02707843,10.5118828 3.07835294,9.13149609 L5.4635,7.52168555 C6.91836765,6.5415293 7.94808824,5.08354688 8.4037402,3.43241602 C8.56395098,2.85801563 8.65210294,2.26175391 8.66603431,1.65155859 C9.83939216,2.28385547 11.2500637,2.47171875 12.6304706,2.06860547 L13.1245539,1.92494531 C13.9390588,1.68471094 14.2224975,1.4496981 14.8023308,0.905567236 C15.1059386,1.17054575 15.7712106,1.69287891 16.0969165,1.92494531 C18.0708479,3.32767383 20.5177892,3.63685547 22.9610637,3.63685547 L23.9465882,3.63685547 C26.2848971,3.63685547 28.1980588,5.50059375 28.2614706,7.83927539 C28.2612304,7.83903516 29.1141667,34.1471016 29.1141667,40.1330215 Z" id="Path" fill="url(#linearGradient-4)"></path>
                            <polygon id="Path" fill="#664F4D" points="48.9995196 99.9915 48.9995196 111 5.17358333 111 5.17358333 99.9915 6.91284314 99.9915 22.3560098 99.9915 42.2440049 99.9915"></polygon>
                            <polygon id="Path" fill="#E6E6E6" points="22.3560098 99.9915 6.91284314 99.9915 14.6344265 93.6216855"></polygon>
                            <path d="M29.1141667,40.1330215 C27.5848382,55.9541367 29.0341814,71.9246777 33.3877353,87.2129531 C33.7052745,88.3257187 34.2243382,89.3721797 34.9225882,90.2944395 L42.2440049,99.9915 L22.3560098,99.9915 L14.6344265,93.6216855 C14.6344265,93.6216855 14.3610833,90.8522637 13.2127059,86.0396484 C12.875951,84.6342773 12.4673775,83.0520937 11.9675294,81.3154395 C10.6478922,76.7320078 8.70158333,71.0605547 5.8552598,64.6328437 C3.40934314,59.1050508 3.31542647,52.4286973 2.6335098,46.1775586 C2.6335098,46.1775586 5.17598529,47.0914102 9.30063235,47.0914102 C14.2066373,47.0911699 21.3512696,45.7989492 29.1141667,40.1330215 Z" id="Path" fill="url(#linearGradient-5)"></path>
                        </g>
                    </g>
                    <path d="M10.810449,18.3585391 C11.7170897,18.3034119 13.568568,17.7773244 14.9207219,17 C14.5064029,18.1712785 12.3444757,19.2733569 10.5,19.4858013 L10.810449,18.3585391 Z" id="Path-2" fill="#C1C4CB" fill-rule="nonzero" transform="translate(12.710361, 18.242901) scale(-1, 1) translate(-12.710361, -18.242901) "></path>
                </g>
                <path d="M111.257374,77.2053466 L124.028106,140.207315 C124.466981,142.372421 123.067594,144.483365 120.902488,144.92224 C120.640927,144.975259 120.374716,145.001968 120.107835,145.001968 L35.9829354,145.001968 C34.0440739,145.001968 32.3843779,143.611483 32.0447732,141.702595 L20.836275,78.7006271 C20.4493293,76.5256401 21.8988232,74.4487834 24.0738101,74.0618378 C24.3050837,74.0206926 24.5395322,74 24.7744372,74 L50.189762,74 C51.8759785,74 53.3811059,75.0574416 53.9528272,76.6437772 L55,79.5493317 L78,79.0019684 L77.956457,78.7841677 C77.5233731,76.6178959 78.9283996,74.5107018 81.0946714,74.0776179 C81.3528688,74.0259988 81.6155323,74 81.8788391,74 L107.337103,74 C109.239921,74 110.879354,75.3404562 111.257374,77.2053466 Z" id="Path-4" fill="#DFE3EB" fill-rule="nonzero"></path>
            </g>
        </g>
    </g>
</svg>