<?xml version="1.0" encoding="UTF-8"?>
<svg width="232px" height="211px" viewBox="0 0 232 211" version="1.1" xmlns="http://www.w3.org/2000/svg" xmlns:xlink="http://www.w3.org/1999/xlink">
    <!-- Generator: Sketch 52.2 (67145) - http://www.bohemiancoding.com/sketch -->
    <title>Group 13</title>
    <desc>Created with Sketch.</desc>
    <defs>
        <path d="M2,0 L230,0 C231.104569,-2.02906125e-16 232,0.8954305 232,2 L232,211 L0,211 L0,2 C-1.3527075e-16,0.8954305 0.8954305,2.02906125e-16 2,0 Z" id="path-1"></path>
        <filter x="-32.0%" y="-19.8%" width="164.0%" height="139.5%" filterUnits="objectBoundingBox" id="filter-3">
            <feOffset dx="0" dy="3" in="SourceAlpha" result="shadowOffsetOuter1"></feOffset>
            <feGaussianBlur stdDeviation="2.5" in="shadowOffsetOuter1" result="shadowBlurOuter1"></feGaussianBlur>
            <feColorMatrix values="0 0 0 0 0   0 0 0 0 0   0 0 0 0 0.145098039  0 0 0 0.04 0" type="matrix" in="shadowBlurOuter1" result="shadowMatrixOuter1"></feColorMatrix>
            <feMerge>
                <feMergeNode in="shadowMatrixOuter1"></feMergeNode>
                <feMergeNode in="SourceGraphic"></feMergeNode>
            </feMerge>
        </filter>
        <linearGradient x1="50%" y1="0%" x2="50%" y2="100%" id="linearGradient-4">
            <stop stop-color="#FFFFFF" offset="0%"></stop>
            <stop stop-color="#E9F0FB" offset="100%"></stop>
        </linearGradient>
        <path d="M43.6879433,63.9935531 C36.4066194,69.3003524 29.1252955,73.5457919 21.8439716,73.5457919 C14.5626478,73.5457919 7.28132388,69.3003524 -1.45519152e-11,63.9935531 C6.0017912,62.1630262 9.04607202,59.4304683 9.13284245,55.7958793 C9.1310654,55.1479313 9.1280479,54.2278832 9.12378993,52.4999863 C9.12311388,52.2256417 9.12240656,51.9445568 9.12166796,51.6571081 C9.10971491,47.0240888 9.09024223,40.9123257 9.06302264,34.7016414 C3.37085358,27.3079346 5.46181274,18.6395778 7.24573181,18.8557563 C9.43433975,19.1209757 28.3802056,1.10401824 32.0142778,0.182156922 C35.6483501,-0.739704391 44.8794326,2.23877109 46.4680851,10.5472637 C48.0567376,18.8557563 48.7207818,39.7980732 42.6950355,48.159204 C40.9803089,50.5385031 38.2799462,51.4691201 34.5939474,50.9510551 C34.5889629,52.68989 34.5785453,53.6657808 34.5531915,55.6353441 C34.6002715,59.4360372 37.6451888,62.1648918 43.6879433,63.9935531 Z" id="path-5"></path>
        <linearGradient x1="50%" y1="0%" x2="50%" y2="100%" id="linearGradient-7">
            <stop stop-color="#1D0024" offset="0%"></stop>
            <stop stop-color="#100014" offset="100%"></stop>
        </linearGradient>
        <linearGradient x1="50%" y1="100%" x2="50%" y2="1.55121026%" id="linearGradient-8">
            <stop stop-color="#222223" offset="0%"></stop>
            <stop stop-color="#4F4643" offset="100%"></stop>
        </linearGradient>
        <path d="M90,20.9609004 C92.5387277,26.1320311 94.5387277,34.6807676 96,46.6071098 L0,46.6071098 C1.46197111,34.6794312 3.46197111,26.1306947 6,20.9609004 C7.6864505,17.525714 16.3531172,12.5021417 32,5.89018352 C32.3115797,2.86776057 32.8449131,1.13994204 33.6,0.706727929 C34.7326304,0.0569067671 61.050779,0.0569769111 62.4,0.706727929 C63.2994807,1.13989527 63.832814,2.86681099 64,5.88747508 C79.6502228,12.5080997 88.3168894,17.5325748 90,20.9609004 Z" id="path-9"></path>
    </defs>
    <g id="Page-1" stroke="none" stroke-width="1" fill="none" fill-rule="evenodd">
        <g id="7" transform="translate(-374.000000, -281.000000)">
            <g id="Group-9" transform="translate(374.000000, 281.000000)">
                <g id="Group-13">
                    <g id="Group">
                        <mask id="mask-2" fill="white">
                            <use xlink:href="#path-1"></use>
                        </mask>
                        <use id="Rectangle" fill="#FFC800" fill-rule="nonzero" xlink:href="#path-1"></use>
                    </g>
                    <rect id="Rectangle" fill="#E97424" fill-rule="nonzero" x="17" y="24" width="9" height="9"></rect>
                    <rect id="Rectangle" fill="#E97424" fill-rule="nonzero" x="17" y="44" width="9" height="9"></rect>
                    <rect id="Rectangle" fill="#E97424" fill-rule="nonzero" x="17" y="64" width="9" height="9"></rect>
                    <g id="User-02b" transform="translate(69.000000, 64.000000)">
                        <g id="Group-10" transform="translate(49.000000, 40.500000) scale(-1, 1) translate(-49.000000, -40.500000) translate(24.000000, 0.000000)">
                            <g id="Group-11">
                                <g transform="translate(25.000000, 40.500000) scale(-1, 1) translate(-25.000000, -40.500000) " id="Group-2">
                                    <g>
                                        <g id="Group-14" filter="url(#filter-3)">
                                            <g id="Path-48" transform="translate(1.985816, 6.368159)">
                                                <mask id="mask-6" fill="white">
                                                    <use xlink:href="#path-5"></use>
                                                </mask>
                                                <use id="Combined-Shape" fill="url(#linearGradient-4)" xlink:href="#path-5"></use>
                                                <path d="M34.5531915,50.9452736 C28.7281324,50.2819237 23.9621749,48.6898839 20.2553191,46.1691542 C24.4917258,51.4759536 29.2576832,54.6600332 34.5531915,55.721393 L34.5531915,50.9452736 Z" fill="#C1C4CB" fill-rule="nonzero" mask="url(#mask-6)"></path>
                                            </g>
                                            <path d="M8.14184397,41.1940299 C5.40546121,34.5988074 -5.56028369,21.1675421 3.89171394,12.8093332 C7.0690189,-2.71305488 24.6241135,-0.995024876 36.3404255,2.58706468 C40.7138253,3.92416713 41.0461466,3.33820016 43.4107369,4 C45.3037178,4.52980617 46.9094363,6.28179837 47.5188576,8.4096036 C48.7826575,12.8221841 49.2776839,14.7324109 46.1175937,12.8093332 C43.4223874,11.1691612 36.984035,11.8030911 31.5072357,14.0597916 C28.5210286,15.2902503 25.171475,17.9369864 21.4585748,22 L24,26.2173913 L20.4737708,30.975802 C18.1566549,26.6923518 15.2098537,25.315306 11.6333672,26.8446644 C6.26863748,29.1387022 9.45199763,39.7758855 15.2108629,39.7758855 C17.1966785,39.7758855 18.1895863,45.2471441 12.8278842,47.8342088 C8.93617021,49.7512438 9.91985317,45.4793829 8.14184397,41.1940299 Z" id="Path-22" fill="url(#linearGradient-7)" fill-rule="nonzero"></path>
                                        </g>
                                    </g>
                                </g>
                            </g>
                        </g>
                        <g id="Group-2" transform="translate(0.000000, 62.115523)">
                            <mask id="mask-10" fill="white">
                                <use xlink:href="#path-9"></use>
                            </mask>
                            <use id="Combined-Shape" fill="url(#linearGradient-8)" xlink:href="#path-9"></use>
                            <path d="M-6.4,14.0252708 L101.2,14.0252708 L101.2,17.2310469 L-6.4,17.2310469 L-6.4,14.0252708 Z M-6.4,22.0397112 L101.2,22.0397112 L101.2,25.2454874 L-6.4,25.2454874 L-6.4,22.0397112 Z M-6.4,30.0541516 L101.2,30.0541516 L101.2,33.2599278 L-6.4,33.2599278 L-6.4,30.0541516 Z M-6.4,38.0685921 L101.2,38.0685921 L101.2,41.2743682 L-6.4,41.2743682 L-6.4,38.0685921 Z" id="Combined-Shape" fill="#C1C4CB" fill-rule="nonzero" mask="url(#mask-10)"></path>
                        </g>
                        <path d="M53.739411,42.216946 C52.4482728,41.8011952 49.0991225,39.7605113 48.9865786,39.7981264 C48.8427794,39.8461877 50.1105392,40.8069484 52.789858,42.6804083 L52.789858,42.6804083 C53.287829,43.0286046 53.835803,43.2991375 54.4150286,43.4827497 C54.6470429,43.5562972 54.8554192,43.6183473 55.0401575,43.6688998 C57.1125627,44.2360008 59.9604926,44.7814846 60.6765476,45 C61.9150214,45.3779397 63.0015426,44.6220603 63.4695564,44 C63.7815655,43.5852931 63.473507,43.3109259 62.5453807,43.1768984 C58.4558349,43.1104506 55.5205117,42.7904665 53.739411,42.216946 Z" id="Path-2" fill="#000000" fill-rule="nonzero"></path>
                        <path d="M71.739411,42.216946 C70.4482728,41.8011952 67.0991225,39.7605113 66.9865786,39.7981264 C66.8427794,39.8461877 68.1105392,40.8069484 70.789858,42.6804083 L70.789858,42.6804083 C71.287829,43.0286046 71.835803,43.2991375 72.4150286,43.4827497 C72.6470429,43.5562972 72.8554192,43.6183473 73.0401575,43.6688998 C75.1125627,44.2360008 77.9604926,44.7814846 78.6765476,45 C79.9150214,45.3779397 81.0015426,44.6220603 81.4695564,44 C81.7815655,43.5852931 81.473507,43.3109259 80.5453807,43.1768984 C76.4558349,43.1104506 73.5205117,42.7904665 71.739411,42.216946 Z" id="Path-2" fill="#000000" fill-rule="nonzero" transform="translate(74.281448, 42.449492) scale(-1, 1) translate(-74.281448, -42.449492) "></path>
                    </g>
                    <g id="Group" transform="translate(165.000000, 32.000000)" fill="#E97424">
                        <rect id="Rectangle" x="0" y="0" width="3.53442038" height="11.2303594"></rect>
                        <rect id="Rectangle" x="44" y="0" width="3.53442038" height="11.2303594"></rect>
                    </g>
                    <g id="Group-Copy" transform="translate(174.000000, 32.000000)" fill="#E97424">
                        <rect id="Rectangle" x="0" y="0" width="3.53442038" height="11.2303594"></rect>
                        <rect id="Rectangle" x="44" y="0" width="3.53442038" height="11.2303594"></rect>
                    </g>
                </g>
            </g>
        </g>
    </g>
</svg>