<?xml version="1.0" encoding="UTF-8"?>
<svg width="98px" height="84px" viewBox="0 0 98 84" version="1.1" xmlns="http://www.w3.org/2000/svg" xmlns:xlink="http://www.w3.org/1999/xlink">
    <!-- Generator: Sketch 53.2 (72643) - https://sketchapp.com -->
    <title>ic_photo_docs</title>
    <desc>Created with Sketch.</desc>
    <g id="Artist-profile" stroke="none" stroke-width="1" fill="none" fill-rule="evenodd">
        <g id="Manage-exhibition_2-Copy-9" transform="translate(-271.000000, -163.000000)">
            <g id="ic_photo_docs" transform="translate(271.000000, 163.000000)">
                <path d="M79.7653132,33.9340904 L87.8307773,79.7231813 C88.0760422,81.1155943 87.1460949,82.4431946 85.7536819,82.6884595 C85.6070616,82.7142858 85.4584679,82.7272727 85.3095905,82.7272727 L31.3919106,82.7272727 C30.1285072,82.7272727 29.0540226,81.8055852 28.8617347,80.5569005 L21.8105638,34.7678096 C21.5953783,33.370432 22.5537343,32.0631914 23.9511119,31.8480059 C24.0800383,31.8281522 24.2102936,31.8181818 24.3407397,31.8181818 L77.2441264,31.8181818 C78.4866498,31.8181818 79.5497687,32.7104054 79.7653132,33.9340904 Z" id="Path-4" fill="#C6CCD7" fill-rule="nonzero" transform="translate(54.825415, 57.272727) scale(1, -1) translate(-54.825415, -57.272727) "></path>
                <g id="Group-3" opacity="0.750348772" transform="translate(30.424837, 35.954545) rotate(-30.000000) translate(-30.424837, -35.954545) translate(9.607843, 12.090909)">
                    <polygon id="Rectangle-Copy" fill="#D2A69E" points="5.68434189e-14 5.68434189e-14 41.6339869 5.68434189e-14 41.6339869 47.7272727 37.9331881 44.0559441 3.70079884 3.67132867"></polygon>
                    <polygon id="Rectangle-Copy" fill="#E9D3CF" transform="translate(20.816993, 23.863636) scale(-1, -1) translate(-20.816993, -23.863636) " points="5.68434189e-14 5.68434189e-14 41.6339869 5.68434189e-14 41.6339869 47.7272727 37.9331881 44.0559441 3.70079884 3.67132867"></polygon>
                    <rect id="Rectangle" fill="#C08175" x="3.70079884" y="3.67132867" width="34.2323893" height="40.3846154"></rect>
                    <rect id="Rectangle" fill="#181818" opacity="0.565499442" x="5.0885984" y="5.04807692" width="31.4567901" height="37.6311189"></rect>
                    <path d="M36.5453885,9.04257572 C33.5052351,7.52989974 29.6577932,6.65428322 25.9055919,6.65428322 C14.4086838,6.65428322 5.0885984,14.7701005 5.0885984,24.7814685 C5.0885984,25.7347598 4.92575496,42.0445528 5.0885984,42.9580997 L36.5453885,42.9580997 L36.5453885,9.04257572 Z" id="Path-Copy" fill-opacity="0.491449956" fill="#F0D336" opacity="0.164643787"></path>
                    <path d="M36.5453885,24.4162645 C33.5052351,22.9035885 29.6577932,22.027972 25.9055919,22.027972 C14.4086838,22.027972 5.0885984,30.1437893 5.0885984,40.1551573 C5.0885984,41.1084486 5.17310376,42.0445528 5.3359472,42.9580997 L36.5453885,42.9580997 L36.5453885,24.4162645 Z" id="Path" fill-opacity="0.5683184" fill="#1C4752" opacity="0.439755394"></path>
                    <g id="Group-2" transform="translate(7.401598, 6.654283)">
                        <path d="M22.2638371,22.9925071 L23.2864991,22.9964489 C24.3343401,23.0004878 25.1827867,23.8489198 25.1868436,24.8967607 L25.2145127,32.0432551 C25.2185919,33.0968474 24.3677934,33.9542596 23.314201,33.9583388 C23.309288,33.9583578 23.3043749,33.9583579 23.2994618,33.9583389 L22.2767999,33.9543971 C21.2289588,33.9503583 20.3805123,33.1019263 20.3764553,32.0540853 L20.3487863,24.907591 C20.3447071,23.8539986 21.1955056,22.9965864 22.2490979,22.9925072 C22.254011,22.9924882 22.2589241,22.9924882 22.2638371,22.9925071 Z" id="Rectangle" fill="#4A311A" transform="translate(22.781649, 28.475423) rotate(-30.000000) translate(-22.781649, -28.475423) "></path>
                        <path d="M11.8444929,15.9090909 L15.6415067,15.9090909 C19.7642903,15.9090909 23.1064667,19.2512673 23.1064667,23.3740509 L23.1064667,35.7954545 L4.37953287,35.7954545 L4.37953287,23.3740509 C4.37953287,19.2512673 7.7217093,15.9090909 11.8444929,15.9090909 Z" id="Rectangle" fill="#4A311A"></path>
                        <path d="M19.14453,7.3685909 C18.8341214,5.65638631 18.9686534,4.80028402 19.5481259,4.80028402 C20.1237503,4.80028402 20.62465,7.16165283 21.0508252,11.8843904 L21.0509574,11.8843785 C21.0565375,11.9462158 21.0446608,12.0083786 21.0166769,12.0638032 C19.7685789,14.5357661 19.14453,16.1880214 19.14453,17.020569 C19.14453,17.8625542 20.0056313,19.9209421 21.7278338,23.1957327 C20.3226716,24.1749958 19.4615703,24.6646273 19.14453,24.6646273 C18.8274896,24.6646273 17.9718086,22.3153334 16.5774869,17.6167454 C16.3364862,16.6361559 16.5435351,15.0686832 17.1986334,12.9143271 C17.2101642,12.8764068 18.5579318,10.5976314 18.5692597,10.560438 C18.9907528,9.17653152 19.1825095,8.11258247 19.14453,7.3685909 Z" id="Path-51" fill="#FDC200"></path>
                        <path d="M13.5637514,24.2995549 C15.845815,24.0119126 15.845815,17.020675 16.32263,15.9463282 C16.7994451,14.8719814 15.0125778,14.3719911 13.3965466,14.3719911 C11.7805153,14.3719911 9.65923858,15.0768458 10.4704632,15.9463282 C11.2816878,16.8158106 11.2816878,24.5871972 13.5637514,24.2995549 Z" id="Oval" fill="#FF8031"></path>
                        <path d="M13.5637514,24.2995549 C15.3669643,24.2995549 15.613178,20.4044429 15.9470642,18.2962897 C16.0845319,17.4283208 15.2316592,19.6394826 13.3792084,19.6394826 C11.5267575,19.6394826 10.9018381,17.3057924 11.0437211,18.1519082 C11.4354849,20.4881828 11.9754003,24.2995549 13.5637514,24.2995549 Z" id="Oval" fill="#FDC200"></path>
                        <path d="M19.1072649,7.15432836 C18.9809903,5.3799618 18.9933512,4.80028402 19.5481259,4.80028402 C19.8650716,4.80028402 19.8684907,5.15135578 20.1401273,6.58316532 C20.2112037,6.95781223 19.7534753,9.02494292 19.14453,10.063279 C18.1983996,11.676562 18.3939047,12.7047952 18.1983996,13.5124405 C17.9253955,14.6402398 17.3850912,16.0083414 16.5774869,17.6167454 C16.0757507,16.8385199 16.1524317,15.3722291 16.8075301,13.217873 C16.8120137,13.2031282 17.1243972,12.4367222 17.5608811,11.4852653 C18.2469354,9.98978961 19.1651229,7.96732843 19.1072649,7.15432836 Z" id="Path-51" fill="#FF8031"></path>
                        <path d="M13.1154859,18.7974492 C17.4800085,18.7974492 16.0322029,15.2946994 16.8075301,13.217873 C17.4798441,11.4169822 19.14453,8.92621564 19.14453,7.3685909 C19.14453,4.48557036 18.1618824,-0.329262266 12.9382899,0.0177783045 C7.71469729,0.364818875 7.68247779,4.09658447 7.17623423,6.93724557 C6.75544904,9.298378 9.04085666,11.0116515 9.99442228,13.8927869 C10.3723922,15.034798 10.5592425,18.7974492 13.1154859,18.7974492 Z" id="Oval" fill="#FDC200"></path>
                        <ellipse id="Oval" stroke="#533629" stroke-width="0.5" fill="#533629" cx="10.4704632" cy="7.08032441" rx="1" ry="1"></ellipse>
                        <ellipse id="Oval-Copy" stroke="#533629" stroke-width="0.5" fill="#533629" cx="15.1521966" cy="7.08032441" rx="1" ry="1"></ellipse>
                        <path d="M13.2188829,16.9393758 C13.7729134,16.9398031 14.2213222,16.0126459 14.2204321,14.8685122 C14.2195419,13.7243786 13.7696899,12.7965286 13.2156594,12.7961014 C12.8973879,12.7958559 12.396415,12.975987 12.2130104,13.4532506 C12.0771538,13.8067824 12.2137315,14.380097 12.2141103,14.866965 C12.2150004,16.0110986 12.6648524,16.9389486 13.2188829,16.9393758 Z" id="Oval" fill="#6B4A3B" transform="translate(13.186632, 14.867739) rotate(-5.000000) translate(-13.186632, -14.867739) "></path>
                        <ellipse id="Oval" fill="#FD6100" cx="12.2261132" cy="10.3118585" rx="1" ry="1"></ellipse>
                        <ellipse id="Oval" fill="#FD6100" cx="13.5637514" cy="10.3118585" rx="1" ry="1"></ellipse>
                        <path d="M3.91070787,22.7778426 L4.93913707,22.7807813 C5.98846324,22.7837798 6.83837088,23.6336707 6.84138989,24.6829969 L6.86430015,32.6459585 C6.86733145,33.6995544 6.01568058,34.55612 4.9620847,34.5591513 C4.95843806,34.5591618 4.9547914,34.5591618 4.95114476,34.5591514 L3.92271557,34.5562127 C2.8733894,34.5532142 2.02348176,33.7033232 2.02046274,32.6539971 L1.99755249,24.6910354 C1.99452119,23.6374396 2.84617206,22.780874 3.89976794,22.7778427 C3.90341458,22.7778322 3.90706124,22.7778322 3.91070787,22.7778426 Z" id="Rectangle" fill="#4A311A" transform="translate(4.430926, 28.668497) scale(-1, 1) rotate(-20.000000) translate(-4.430926, -28.668497) "></path>
                        <g id="Group" transform="translate(7.640026, 14.909186) scale(-1, 1) translate(-7.640026, -14.909186) translate(4.881147, 4.966004)">
                            <path d="M2.89345865,2.56830688 C2.58305014,0.856102292 2.71758211,1.63683381e-16 3.29705458,0 C3.87267898,0 4.37357873,2.36136881 4.79975385,7.08410642 L4.79988608,7.08409449 C4.80546622,7.14593182 4.79358953,7.20809455 4.76560554,7.26351918 C3.51750762,9.73548208 2.89345865,11.3877373 2.89345865,12.220285 C2.89345865,13.0622702 3.75455995,15.1206581 5.47676254,18.3954487 C4.07160032,19.3747118 3.21049903,19.8643433 2.89345865,19.8643433 C2.57641828,19.8643433 1.72073727,17.5150493 0.326415626,12.8164614 C0.0854149333,11.8358719 0.292463758,10.2683992 0.947562101,8.1140431 C0.959092939,8.07612279 2.30686049,5.79734734 2.31818837,5.76015403 C2.73968145,4.3762475 2.93143821,3.31229845 2.89345865,2.56830688 Z" id="Path-51" fill="#FDC200"></path>
                            <path d="M2.8561936,2.35404434 C2.729919,0.579677783 2.74227985,-2.11595751e-14 3.29705458,-2.13162821e-14 C3.61400031,-2.13162821e-14 3.61741936,0.351071756 3.88905601,1.7828813 C3.96013238,2.15752821 3.50240401,4.2246589 2.89345865,5.26299494 C1.94732831,6.87627801 2.14283341,7.90451122 1.94732831,8.71215647 C1.67432415,9.83995574 1.13401992,11.2080574 0.326415626,12.8164614 C-0.175320616,12.0382358 -0.098639566,10.5719451 0.556458777,8.41758899 C0.560942389,8.40284419 0.873325907,7.63643814 1.30980983,6.68498124 C1.99586412,5.18950559 2.91405157,3.16704441 2.8561936,2.35404434 Z" id="Path-51" fill="#FF8031"></path>
                        </g>
                    </g>
                </g>
                <g id="Group-3" opacity="0.938337054" transform="translate(42.274510, 31.500000) rotate(5.000000) translate(-42.274510, -31.500000) translate(19.215686, 5.090909)">
                    <polygon id="Rectangle-Copy" fill="#D2A69E" points="5.68434189e-14 5.68434189e-14 46.1176471 5.68434189e-14 46.1176471 52.8181818 42.0183007 48.7552448 4.09934641 4.06293706"></polygon>
                    <polygon id="Rectangle-Copy" fill="#E9D3CF" transform="translate(23.058824, 26.409091) scale(-1, -1) translate(-23.058824, -26.409091) " points="5.68434189e-14 5.68434189e-14 46.1176471 5.68434189e-14 46.1176471 52.8181818 42.0183007 48.7552448 4.09934641 4.06293706"></polygon>
                    <rect id="Rectangle" fill="#C08175" x="4.09934641" y="4.06293706" width="37.9189542" height="44.6923077"></rect>
                    <rect id="Rectangle" fill="#181818" opacity="0.565499442" x="5.63660131" y="5.58653846" width="34.8444444" height="41.6451049"></rect>
                    <path d="M40.4810458,10.0071171 C37.1134912,8.33308904 32.8517094,7.36407343 28.6954248,7.36407343 C15.9603883,7.36407343 5.63660131,16.3455779 5.63660131,27.4248252 C5.63660131,28.4798008 5.45622088,46.5293051 5.63660131,47.540297 L40.4810458,47.540297 L40.4810458,10.0071171 Z" id="Path-Copy" fill-opacity="0.491449956" fill="#F0D336" opacity="0.164643787"></path>
                    <path d="M40.4810458,27.0206661 C37.1134912,25.346638 32.8517094,24.3776224 28.6954248,24.3776224 C15.9603883,24.3776224 5.63660131,33.3591269 5.63660131,44.4383741 C5.63660131,45.4933497 5.73020724,46.5293051 5.91058766,47.540297 L40.4810458,47.540297 L40.4810458,27.0206661 Z" id="Path" fill-opacity="0.5683184" fill="#1C4752" opacity="0.439755394"></path>
                    <g id="Group-2" transform="translate(8.198693, 7.364073)">
                        <path d="M24.6679521,25.4434427 L25.7864493,25.4482004 C26.9500523,25.45315 27.8921195,26.3951975 27.8970935,27.5588003 L27.9308407,35.4534385 C27.9358449,36.6240948 26.9908973,37.5771559 25.820241,37.5821601 C25.8142153,37.5821859 25.8081894,37.5821859 25.8021637,37.5821603 L24.6836665,37.5774025 C23.5200635,37.5724529 22.5779963,36.6304055 22.5730222,35.4668026 L22.539275,27.5721644 C22.5342708,26.4015082 23.4792185,25.4484471 24.6498747,25.4434429 C24.6559005,25.4434171 24.6619263,25.443417 24.6679521,25.4434427 Z" id="Rectangle" fill="#4A311A" transform="translate(25.235058, 31.512801) rotate(-30.000000) translate(-25.235058, -31.512801) "></path>
                        <path d="M13.1455749,17.6060606 L17.3004555,17.6060606 C21.8813261,17.6060606 25.5948555,21.31959 25.5948555,25.9004606 L25.5948555,39.6136364 L4.85117487,39.6136364 L4.85117487,25.9004606 C4.85117487,21.31959 8.56470424,17.6060606 13.1455749,17.6060606 Z" id="Rectangle" fill="#4A311A"></path>
                        <path d="M21.2062486,8.15457392 C20.8624114,6.25973418 21.0114315,5.31231432 21.6533087,5.31231432 C22.2909234,5.31231432 22.8457662,7.92556246 23.3178371,13.1520588 L23.3177134,13.1520699 C23.3239197,13.2207821 23.3107126,13.2898566 23.2795951,13.3514324 C21.8973641,16.0866148 21.2062486,17.9148361 21.2062486,18.8360963 C21.2062486,19.7678933 22.1600839,22.0458426 24.0677544,25.6699442 C22.511267,26.753662 21.5574318,27.2955209 21.2062486,27.2955209 C20.8550654,27.2955209 19.9072341,24.6956356 18.3627548,19.4958649 C18.0958001,18.4106792 18.3251465,16.6760094 19.0507939,14.2918553 C19.0635665,14.2498902 20.5564783,11.7280454 20.5690261,11.6868848 C21.0359107,10.1553615 21.2483182,8.9779246 21.2062486,8.15457392 Z" id="Path-51" fill="#FDC200"></path>
                        <path d="M15.024463,26.8915074 C17.5522873,26.5731833 17.5522873,18.8362137 18.0804517,17.6472699 C18.6086161,16.4583261 16.629317,15.9050035 14.8392516,15.9050035 C13.0491862,15.9050035 10.6994643,16.6850427 11.5980515,17.6472699 C12.4966388,18.609497 12.4966388,27.2098316 15.024463,26.8915074 Z" id="Oval" fill="#FF8031"></path>
                        <path d="M15.024463,26.8915074 C17.0218682,26.8915074 17.2945972,22.5809168 17.6644404,20.2478939 C17.8167123,19.2873416 16.8719917,21.7343608 14.8200462,21.7343608 C12.7681007,21.7343608 12.0758822,19.1517435 12.2330449,20.0881118 C12.6669986,22.673589 13.2650587,26.8915074 15.024463,26.8915074 Z" id="Oval" fill="#FDC200"></path>
                        <path d="M21.1649704,7.91745672 C21.025097,5.9538244 21.038789,5.31231432 21.6533087,5.31231432 C22.004387,5.31231432 22.0081743,5.70083373 22.3090641,7.28536962 C22.3877949,7.69997887 21.8807727,9.9876035 21.2062486,11.1366954 C20.1582273,12.922062 20.3747868,14.0599734 20.1582273,14.9537675 C19.8558227,16.2018653 19.2573318,17.7158978 18.3627548,19.4958649 C17.8069854,18.6346287 17.8919244,17.0119335 18.6175718,14.6277795 C18.6225382,14.6114619 18.9685631,13.7633059 19.452053,12.7103602 C20.21199,11.0553672 21.2290592,8.81717679 21.1649704,7.91745672 Z" id="Path-51" fill="#FF8031"></path>
                        <path d="M14.5279229,20.8025104 C19.3624709,20.8025104 17.7587479,16.926134 18.6175718,14.6277795 C19.3622889,12.6347936 21.2062486,9.87834531 21.2062486,8.15457392 C21.2062486,4.9640312 20.1177775,-0.364383575 14.3316442,0.0196746569 C8.54551085,0.403732889 8.50982156,4.53355348 7.94905945,7.67721843 C7.48295894,10.290205 10.0144874,12.1862277 11.0707447,15.3746842 C11.4894191,16.6385098 11.6963917,20.8025104 14.5279229,20.8025104 Z" id="Oval" fill="#FDC200"></path>
                        <ellipse id="Oval" stroke="#533629" stroke-width="0.5" fill="#533629" cx="11.5980515" cy="7.83555902" rx="1" ry="1"></ellipse>
                        <ellipse id="Oval-Copy" stroke="#533629" stroke-width="0.5" fill="#533629" cx="16.7839717" cy="7.83555902" rx="1" ry="1"></ellipse>
                        <path d="M14.6426396,18.7462654 C15.2563306,18.7467876 15.7529435,17.7207664 15.7518557,16.4545828 C15.7507678,15.1883992 15.252391,14.1615313 14.6387,14.1610092 C14.2861555,14.1607092 13.7312516,14.3600111 13.5281397,14.8881701 C13.377685,15.2794027 13.529021,15.9138874 13.5294839,16.4526918 C13.5305718,17.7188754 14.0289485,18.7457433 14.6426396,18.7462654 Z" id="Oval" fill="#6B4A3B" transform="translate(14.606687, 16.453637) rotate(-5.000000) translate(-14.606687, -16.453637) "></path>
                        <ellipse id="Oval" fill="#FD6100" cx="13.5427716" cy="11.4117901" rx="1" ry="1"></ellipse>
                        <ellipse id="Oval" fill="#FD6100" cx="15.024463" cy="11.4117901" rx="1" ry="1"></ellipse>
                        <path d="M4.33803758,25.2066263 L5.46358828,25.2101753 C6.62901293,25.21385 7.57287154,26.157686 7.57657406,27.3231106 L7.60452125,36.1199101 C7.6082404,37.2905712 6.6622471,38.2425944 5.49158607,38.2463136 C5.48711353,38.2463278 5.48264096,38.2463278 5.47816842,38.2463137 L4.35261772,38.2427647 C3.18719307,38.2390901 2.24333446,37.295254 2.23963194,36.1298294 L2.21168475,27.3330299 C2.2079656,26.1623688 3.1539589,25.2103456 4.32461993,25.2066264 C4.32909247,25.2066122 4.33356504,25.2066122 4.33803758,25.2066263 Z" id="Rectangle" fill="#4A311A" transform="translate(4.908103, 31.726470) scale(-1, 1) rotate(-20.000000) translate(-4.908103, -31.726470) "></path>
                        <g id="Group" transform="translate(8.462798, 16.499499) scale(-1, 1) translate(-8.462798, -16.499499) translate(5.406809, 5.495711)">
                            <path d="M3.20506189,2.84225961 C2.86122477,0.94741987 3.0102448,1.81142942e-16 3.65212199,0 C4.28973671,0 4.84457952,2.61324815 5.31665042,7.83974444 L5.31652677,7.83975561 C5.32273303,7.90846778 5.3095259,7.9775423 5.27840841,8.03911812 C3.8961774,10.7743005 3.20506189,12.6025218 3.20506189,13.523782 C3.20506189,14.455579 4.15889717,16.7335283 6.06656773,20.3576299 C4.51008036,21.4413477 3.55624508,21.9832066 3.20506189,21.9832066 C2.85387871,21.9832066 1.90604743,19.3833213 0.361568078,14.1835506 C0.0946134646,13.0983649 0.323959855,11.3636951 1.04960725,8.97954103 C1.06237987,8.93757589 2.55529162,6.41573105 2.56783942,6.37457046 C3.03472407,4.84304723 3.24713156,3.66561028 3.20506189,2.84225961 Z" id="Path-51" fill="#FDC200"></path>
                            <path d="M3.16378368,2.60514241 C3.02391028,0.64151008 3.0376023,-2.11428596e-14 3.65212199,-2.13162821e-14 C4.00320034,-2.13162821e-14 4.00698759,0.38851941 4.30787742,1.97305531 C4.38660818,2.38766456 3.87958598,4.67528918 3.20506189,5.82438106 C2.15704059,7.60974766 2.37360009,8.74765909 2.15704059,9.64145316 C1.85463598,10.889551 1.25614515,12.4035835 0.361568078,14.1835506 C-0.194201298,13.3223143 -0.109262288,11.6996192 0.616385106,9.31546515 C0.621351569,9.29914757 0.967376389,8.45099155 1.45086628,7.39804591 C2.21080333,5.74305285 3.22787251,3.50486248 3.16378368,2.60514241 Z" id="Path-51" fill="#FF8031"></path>
                        </g>
                    </g>
                </g>
                <g id="Group-3" transform="translate(63.903804, 36.065439) rotate(20.000000) translate(-63.903804, -36.065439) translate(38.403804, 7.065439)">
                    <polygon id="Rectangle-Copy" fill="#D2A69E" points="5.68434189e-14 5.68434189e-14 50.6013072 5.68434189e-14 50.6013072 57.9090909 46.1034132 53.4545455 4.49789397 4.45454545"></polygon>
                    <polygon id="Rectangle-Copy" fill="#E9D3CF" transform="translate(25.300654, 28.954545) scale(-1, -1) translate(-25.300654, -28.954545) " points="5.68434189e-14 5.68434189e-14 50.6013072 5.68434189e-14 50.6013072 57.9090909 46.1034132 53.4545455 4.49789397 4.45454545"></polygon>
                    <rect id="Rectangle" fill="#C08175" x="4.49789397" y="4.45454545" width="41.6055192" height="49"></rect>
                    <rect id="Rectangle" fill="#181818" opacity="0.565499442" x="6.18460421" y="6.125" width="38.2320988" height="45.6590909"></rect>
                    <path d="M44.416703,10.9716585 C40.7217473,9.13627835 36.0456256,8.07386364 31.4852578,8.07386364 C17.5120927,8.07386364 6.18460421,17.9210553 6.18460421,30.0681818 C6.18460421,31.2248418 5.9866868,51.0140574 6.18460421,52.1224943 L44.416703,52.1224943 L44.416703,10.9716585 Z" id="Path-Copy" fill-opacity="0.491449956" fill="#F0D336" opacity="0.164643787"></path>
                    <path d="M44.416703,29.6250676 C40.7217473,27.7896874 36.0456256,26.7272727 31.4852578,26.7272727 C17.5120927,26.7272727 6.18460421,36.5744644 6.18460421,48.7215909 C6.18460421,49.8782509 6.28731072,51.0140574 6.48522813,52.1224943 L44.416703,52.1224943 L44.416703,29.6250676 Z" id="Path" fill-opacity="0.5683184" fill="#1C4752" opacity="0.439755394"></path>
                    <g id="Group-2" transform="translate(8.995788, 8.073864)">
                        <path d="M27.0720778,27.894384 L28.2864085,27.8999485 C29.5657695,27.905811 30.6014539,28.9414701 30.6073475,30.2208309 L30.6471623,38.8636112 C30.6530944,40.1513312 29.6140001,41.2000434 28.3262801,41.2059756 C28.3191384,41.2060085 28.3119965,41.2060085 28.3048547,41.2059758 L27.090524,41.2004114 C25.811163,41.1945489 24.7754787,40.1588898 24.769585,38.8795289 L24.7297703,30.2367487 C24.7238381,28.9490287 25.7629325,27.9003164 27.0506525,27.8943843 C27.0577942,27.8943514 27.0649361,27.8943513 27.0720778,27.894384 Z" id="Rectangle" fill="#4A311A" transform="translate(27.688466, 34.550180) rotate(-30.000000) translate(-27.688466, -34.550180) "></path>
                        <path d="M14.4466569,19.3030303 L18.9594042,19.3030303 C23.9983619,19.3030303 28.0832442,23.3879126 28.0832442,28.4268703 L28.0832442,43.4318182 L5.32281687,43.4318182 L5.32281687,28.4268703 C5.32281687,23.3879126 9.40769918,19.3030303 14.4466569,19.3030303 Z" id="Rectangle" fill="#4A311A"></path>
                        <path d="M23.2679672,8.94055695 C22.8907014,6.86308206 23.0542095,5.82434461 23.7584915,5.82434461 C24.4580621,5.82434461 25.0668225,8.68919044 25.5847727,14.4188821 L25.5848389,14.4188761 C25.5916796,14.494549 25.5771252,14.5706217 25.5428345,14.6384253 C24.0262563,17.6371799 23.2679672,19.6415794 23.2679672,20.6516237 C23.2679672,21.6732324 24.3145364,24.1707431 26.407675,28.1441557 C24.6998624,29.3323282 23.6532932,29.9264145 23.2679672,29.9264145 C22.8826412,29.9264145 21.8426597,27.0759378 20.1480226,21.3749844 C19.855114,20.1852025 20.106758,18.2833356 20.9029544,15.6693836 C20.9169689,15.6233736 22.5550248,12.8584594 22.5687925,12.8133315 C23.0810687,11.1341916 23.314127,9.84326673 23.2679672,8.94055695 Z" id="Path-51" fill="#FDC200"></path>
                        <path d="M16.4851747,29.48346 C19.2587597,29.134454 19.2587597,20.6517524 19.8382734,19.3482115 C20.4177871,18.0446707 18.2460561,17.4380158 16.2819566,17.4380158 C14.3178571,17.4380158 11.73969,18.2932396 12.7256399,19.3482115 C13.7115897,20.4031835 13.7115897,29.8324659 16.4851747,29.48346 Z" id="Oval" fill="#FF8031"></path>
                        <path d="M16.4851747,29.48346 C18.6767721,29.48346 18.9760163,24.7573907 19.3818165,22.1994981 C19.5488926,21.1463625 18.5123242,23.8292389 16.260884,23.8292389 C14.0094438,23.8292389 13.2499263,20.9976947 13.4223687,22.0243153 C13.8985124,24.8589951 14.5547172,29.48346 16.4851747,29.48346 Z" id="Oval" fill="#FDC200"></path>
                        <path d="M23.2226758,8.68058508 C23.0692036,6.52768699 23.0842268,5.82434461 23.7584915,5.82434461 C24.1437024,5.82434461 24.1478579,6.25031167 24.4780009,7.98757392 C24.564386,8.44214551 24.00807,10.9502641 23.2679672,12.2101118 C22.1180549,14.1675619 22.3556688,15.4151516 22.1180549,16.3950945 C21.7862499,17.7634909 21.1295724,19.4234542 20.1480226,21.3749844 C19.5382201,20.4307374 19.631417,18.6516379 20.4276135,16.0376859 C20.4330628,16.0197956 20.8127289,15.0898896 21.3432248,13.9354552 C22.1770446,12.1209447 23.2929955,9.66702516 23.2226758,8.68058508 Z" id="Path-51" fill="#FF8031"></path>
                        <path d="M15.9403598,22.8075717 C21.2449334,22.8075717 19.4852928,18.5575686 20.4276135,16.0376859 C21.2447337,13.852605 23.2679672,10.830475 23.2679672,8.94055695 C23.2679672,5.44249204 22.0736725,-0.399504883 15.7249985,0.0215710094 C9.3763244,0.442646902 9.33716532,4.97052249 8.72188468,8.41719129 C8.21046884,11.282032 10.9881181,13.3608038 12.1470671,16.8565814 C12.6064459,18.2422216 12.8335409,22.8075717 15.9403598,22.8075717 Z" id="Oval" fill="#FDC200"></path>
                        <ellipse id="Oval" stroke="#533629" stroke-width="0.5" fill="#533629" cx="12.7256399" cy="8.59079362" rx="1" ry="1"></ellipse>
                        <ellipse id="Oval-Copy" stroke="#533629" stroke-width="0.5" fill="#533629" cx="18.4157467" cy="8.59079362" rx="1" ry="1"></ellipse>
                        <path d="M16.0663962,20.5531551 C16.7397478,20.5537722 17.2845648,19.4288868 17.2832792,18.0406534 C17.2819936,16.6524199 16.7350921,15.526534 16.0617405,15.5259169 C15.6749231,15.5255624 15.0660883,15.7440351 14.843269,16.3230896 C14.6782161,16.7520229 14.8443104,17.4476778 14.8448575,18.0384186 C14.8461431,19.4266521 15.3930446,20.552538 16.0663962,20.5531551 Z" id="Oval" fill="#6B4A3B" transform="translate(16.026741, 18.039536) rotate(-5.000000) translate(-16.026741, -18.039536) "></path>
                        <ellipse id="Oval" fill="#FD6100" cx="14.8594299" cy="12.5117216" rx="1" ry="1"></ellipse>
                        <ellipse id="Oval" fill="#FD6100" cx="16.4851747" cy="12.5117216" rx="1" ry="1"></ellipse>
                        <path d="M4.76537515,27.6354139 L5.98804635,27.6395666 C7.26956656,27.6439191 8.30737363,28.6816974 8.31176164,29.9632174 L8.34473759,39.5938539 C8.34914686,40.8815799 7.30881302,41.9290626 6.02108694,41.9334719 C6.01578605,41.93349 6.01048511,41.9334901 6.00518422,41.9334721 L4.78251301,41.9293195 C3.5009928,41.924967 2.46318574,40.8871887 2.45879772,39.6056686 L2.42582177,29.9750322 C2.42141251,28.6873061 3.46174634,27.6398234 4.74947242,27.6354142 C4.75477332,27.635396 4.76007425,27.6353959 4.76537515,27.6354139 Z" id="Rectangle" fill="#4A311A" transform="translate(5.385280, 34.784443) scale(-1, 1) rotate(-20.000000) translate(-5.385280, -34.784443) "></path>
                        <g id="Group" transform="translate(9.285570, 18.089812) scale(-1, 1) translate(-9.285570, -18.089812) translate(5.932471, 6.025418)">
                            <path d="M3.51666513,3.11621234 C3.1393994,1.03873745 3.30290749,1.98602502e-16 4.00718941,0 C4.70676006,0 5.31552046,2.86484583 5.8334706,8.59453748 L5.83353686,8.59453149 C5.84037751,8.67020439 5.82582319,8.74627712 5.79153246,8.81408072 C4.27495424,11.8128353 3.51666513,13.8172348 3.51666513,14.8272791 C3.51666513,15.8488878 4.5632344,18.3463985 6.65637293,22.3198111 C4.94856039,23.5079836 3.90199113,24.1020699 3.51666513,24.1020699 C3.13133914,24.1020699 2.0913576,21.2515932 0.39672053,15.5506398 C0.103811996,14.3608579 0.355455952,12.458991 1.1516524,9.84503896 C1.1656668,9.79902898 2.80372275,7.03411477 2.81749047,6.98898689 C3.32976669,5.30984697 3.56282491,4.01892212 3.51666513,3.11621234 Z" id="Path-51" fill="#FDC200"></path>
                            <path d="M3.47137376,2.85624047 C3.31790156,0.703342377 3.33292474,-2.11261442e-14 4.00718941,-2.13162821e-14 C4.39240038,-2.13162821e-14 4.39655583,0.425967064 4.72669884,2.16322931 C4.81308397,2.6178009 4.25676795,5.12591947 3.51666513,6.38576719 C2.36675287,8.34321731 2.60436676,9.59080695 2.36675287,10.5707499 C2.03494782,11.9391463 1.37827037,13.5991096 0.39672053,15.5506398 C-0.21308198,14.6063928 -0.119885011,12.8272933 0.676311436,10.2133413 C0.681760749,10.1954509 1.06142687,9.26554495 1.59192272,8.11111058 C2.42574254,6.29660011 3.54169344,3.84268055 3.47137376,2.85624047 Z" id="Path-51" fill="#FF8031"></path>
                        </g>
                    </g>
                </g>
                <path d="M71.2646204,40.2300484 L79.4386307,80.2931192 C79.7212734,81.6784285 78.8273854,83.0305708 77.4420761,83.3132135 C77.2736536,83.3475765 77.1021985,83.364889 76.9303063,83.364889 L23.0436873,83.364889 C21.8039045,83.364889 20.7423021,82.4765012 20.5237704,81.2561303 L13.3496802,41.1930595 C13.1004665,39.8013478 14.0266442,38.4711149 15.4183558,38.2219013 C15.5672896,38.1952317 15.7182944,38.1818182 15.8695971,38.1818182 L32.1531399,38.1818182 C33.2303634,38.1818182 34.1923391,38.8561678 34.5596882,39.8688203 L35.2287582,41.7132111 L49.9607843,41.364889 L49.9370292,41.2468384 C49.6581143,39.8607737 50.5556364,38.511041 51.9417011,38.2321261 C52.1079593,38.1986703 52.2771305,38.1818182 52.4467214,38.1818182 L68.7562959,38.1818182 C69.9728756,38.1818182 71.0214139,39.0380263 71.2646204,40.2300484 Z" id="Path-4" fill="#DFE3EB" fill-rule="nonzero"></path>
            </g>
        </g>
    </g>
</svg>