<svg width="113" height="113" viewBox="0 0 113 113" fill="none" xmlns="http://www.w3.org/2000/svg">
<path d="M97.9504 15.694C97.9007 15.4871 97.8262 15.2802 97.669 15.1146L88.6904 5.39732C88.5332 5.2235 88.3346 5.13246 88.1194 5.07452C88.1277 5.04969 88.1277 5.02485 88.136 5.0083H85.5707H35.9114C32.1958 5.0083 29.1754 8.02944 29.1754 11.7458V87.8288C29.1754 91.5452 32.1958 94.5663 35.9114 94.5663H91.264C94.9796 94.5663 98 91.5452 98 87.8288V18.1854V15.694C97.9835 15.694 97.9669 15.694 97.9504 15.694ZM87.987 8.26119L94.8637 15.7106H90.4448C89.0876 15.7106 87.987 14.6097 87.987 13.2523V8.26119ZM95.5175 87.8122C95.5175 90.1546 93.6059 92.0666 91.264 92.0666H35.9114C33.5695 92.0666 31.6579 90.1546 31.6579 87.8122V11.7376C31.6579 9.39515 33.5695 7.48315 35.9114 7.48315H85.5045V13.2523C85.5045 15.9754 87.7222 18.1937 90.4448 18.1937H95.5175V87.8122Z" fill="#DFE3EB"/>
<path d="M74.1592 107.18H24.2516C19.7499 107.18 16.1006 103.53 16.1006 99.0275V27.2735C16.1006 22.7708 19.7499 19.1206 24.2516 19.1206H74.1592C76.6666 22.7874 78.6609 26.959 82.3103 27.2735V99.0275C82.3103 103.53 78.6609 107.18 74.1592 107.18Z" fill="white"/>
<path d="M83.775 29.1442C83.7253 28.9373 83.6508 28.7303 83.4936 28.5648L74.5233 18.8392C74.3661 18.6654 74.1675 18.5744 73.9523 18.5164C73.9606 18.4916 73.9606 18.4667 73.9689 18.4502H71.4036H21.736C18.0204 18.4502 15 21.4713 15 25.1795V101.262C15 104.979 18.0204 108 21.736 108H77.0886C80.8042 108 83.8246 104.979 83.8246 101.262V31.6273V29.1359C83.8081 29.1359 83.7915 29.1359 83.775 29.1442ZM73.8117 21.7031L80.6883 29.1525H76.2694C74.9123 29.1525 73.8117 28.0516 73.8117 26.6942V21.7031ZM81.3421 101.262C81.3421 103.605 79.4305 105.517 77.0886 105.517H21.736C19.3941 105.517 17.4826 103.605 17.4826 101.262V25.1795C17.4826 22.837 19.3941 20.925 21.736 20.925H71.3291V26.6942C71.3291 29.4173 73.5469 31.6356 76.2694 31.6356H81.3421V101.262V101.262Z" fill="#DFE3EB"/>
<path fill-rule="evenodd" clip-rule="evenodd" d="M49.1508 44.4121C49.8757 43.7918 50.9617 43.882 51.5764 44.6137C52.191 45.3453 52.1016 46.4413 51.3767 47.0617L51.3629 47.0736L51.3178 47.1123C51.2776 47.147 51.2173 47.199 51.1386 47.2674C50.981 47.4041 50.7493 47.6062 50.4557 47.8652C49.8684 48.3833 49.0338 49.1286 48.0486 50.0337C46.0752 51.8468 43.5119 54.2886 41.1255 56.8244C38.7167 59.384 36.5761 61.9479 35.3734 64.0157C34.7603 65.0698 34.4941 65.824 34.4485 66.2868C34.4346 66.4278 34.4454 66.5031 34.4519 66.5328C34.4584 66.5377 34.4682 66.5445 34.4824 66.5532C35.0786 66.9197 36.0567 66.9518 37.7812 66.151C39.4529 65.3748 41.3235 64.0488 43.3336 62.5795C43.4999 62.4579 43.6674 62.3352 43.8357 62.2119C45.6259 60.9001 47.5179 59.5136 49.2576 58.5926C51.0405 57.6487 53.3854 56.7923 55.4384 57.9768C56.4512 58.56 57.1113 59.4702 57.2498 60.6196C57.3727 61.6393 57.055 62.6238 56.6787 63.4281C55.9265 65.0356 54.504 66.8016 53.2223 68.3495C53.0365 68.574 52.8529 68.7947 52.6725 69.0115C51.5266 70.3892 50.5113 71.6096 49.8736 72.645C49.6376 73.0282 49.5037 73.309 49.4322 73.4999C49.6109 73.5534 49.8177 73.5322 50.132 73.4074C50.7362 73.1674 51.4982 72.6105 52.4852 71.7105C53.0613 71.1851 53.6089 70.6455 54.1957 70.0672C54.639 69.6304 55.1046 69.1716 55.6216 68.6804C56.7494 67.6089 58.0056 66.5026 59.3671 65.647C60.8031 64.7445 62.334 64.2694 63.7441 64.303C65.1502 64.3364 66.6009 64.9027 67.4192 66.2558C68.2332 67.6019 68.1338 69.252 67.4789 70.8392C66.8221 72.431 65.5363 74.1737 63.5721 76.0269C62.8778 76.6819 61.7888 76.6449 61.1398 75.9442C60.4907 75.2434 60.5274 74.1443 61.2217 73.4893C62.9812 71.8292 63.8991 70.4793 64.3015 69.5038C64.7059 68.5237 64.5213 68.1317 64.4813 68.0655C64.4455 68.0063 64.2732 67.7902 63.663 67.7757C63.0567 67.7613 62.1779 67.9727 61.1864 68.5958C60.1203 69.2657 59.0626 70.1819 57.9808 71.2097C57.5717 71.5984 57.134 72.0287 56.6915 72.4636C56.0438 73.1002 55.386 73.7469 54.7926 74.2879C53.7697 75.2208 52.6169 76.1535 51.3924 76.6399C50.0479 77.1738 48.5344 77.1906 47.1326 76.1637C46.6772 75.8304 46.3153 75.3824 46.1079 74.828C45.9058 74.2879 45.8887 73.7505 45.9516 73.2808C46.0705 72.3935 46.5052 71.534 46.9505 70.811C47.73 69.5454 48.9334 68.1012 50.0573 66.7522C50.2346 66.5394 50.4099 66.329 50.5812 66.1221C51.9242 64.5001 53.0366 63.0769 53.5664 61.9447C53.8066 61.4314 53.8371 61.1591 53.8347 61.0629C53.816 61.0472 53.7838 61.0234 53.7323 60.9938L53.7302 60.9926C53.3957 60.7996 52.605 60.7431 50.8565 61.6688C49.351 62.4658 47.6632 63.7014 45.8087 65.059C45.6578 65.1695 45.5057 65.2809 45.3525 65.3928C43.3928 66.8254 41.2508 68.3637 39.2197 69.3068C37.2414 70.2254 34.8264 70.8318 32.6923 69.5202C32.0702 69.1378 31.5838 68.5992 31.2941 67.92C31.0126 67.2604 30.9614 66.5743 31.0236 65.943C31.1434 64.7274 31.7108 63.451 32.4051 62.2572C33.8173 59.8292 36.1871 57.0279 38.6299 54.4321C41.0952 51.8125 43.725 49.3086 45.7316 47.4649C46.7366 46.5416 47.5888 45.7806 48.1907 45.2497C48.4917 44.9841 48.7304 44.776 48.8944 44.6336C48.9764 44.5624 49.0398 44.5076 49.083 44.4704L49.1326 44.4277L49.1508 44.4121C49.1508 44.4121 49.1508 44.4121 50.2638 45.7369L49.1508 44.4121ZM49.1527 73.3512L49.1545 73.3525Z" fill="#DFE3EB"/>
</svg>
