<?xml version="1.0" encoding="UTF-8"?>
<svg width="14px" height="19px" viewBox="0 0 14 19" version="1.1" xmlns="http://www.w3.org/2000/svg" xmlns:xlink="http://www.w3.org/1999/xlink">
    <!-- Generator: Sketch 53.2 (72643) - https://sketchapp.com -->
    <title>Combined Shape</title>
    <desc>Created with Sketch.</desc>
    <g id="Artist-profile" stroke="none" stroke-width="1" fill="none" fill-rule="evenodd">
        <g id="Manage-exhibition_2-Copy-9" transform="translate(-710.000000, -405.000000)" fill-rule="nonzero" stroke="#9C695F">
            <path d="M717.839464,422.721318 C717.762775,422.839791 717.661878,422.940688 717.543406,423.017377 C717.079792,423.317483 716.460675,423.184933 716.160569,422.721318 L716.160546,422.721334 C712.720182,417.40653 711,413.761323 711,411.785714 C711,408.590353 713.686292,406 717,406 C720.313708,406 723,408.590353 723,411.785714 C723,413.761321 721.279821,417.406523 717.839464,422.721318 Z M717,414.5 C718.104569,414.5 719,413.604569 719,412.5 C719,411.395431 718.104569,410.5 717,410.5 C715.895431,410.5 715,411.395431 715,412.5 C715,413.604569 715.895431,414.5 717,414.5 Z" id="Combined-Shape"></path>
        </g>
    </g>
</svg>