<svg width="113" height="113" viewBox="0 0 113 113" fill="none" xmlns="http://www.w3.org/2000/svg">
<path d="M100.473 0H12.5276C11.9051 0 11.4004 0.504721 11.4004 1.12724V111.873C11.4004 112.495 11.9051 113 12.5276 113H100.473C101.095 113 101.6 112.495 101.6 111.873V1.12724C101.6 0.504721 101.095 0 100.473 0ZM99.3453 110.746H13.6549V2.25448H99.3453V110.746Z" fill="#DFE3EB"/>
<path d="M53.293 36.3246C53.9155 36.3246 54.4202 35.8199 54.4202 35.1974V31.8658L56.4848 31.9555C57.109 31.985 57.6329 31.5003 57.6599 30.8784C57.687 30.2564 57.2048 29.7303 56.5828 29.7032L53.342 29.5623C53.0309 29.5474 52.7356 29.6618 52.5135 29.874C52.2914 30.0868 52.166 30.381 52.166 30.6884V35.1974C52.1657 35.8199 52.6705 36.3246 53.293 36.3246Z" fill="#DFE3EB"/>
<path d="M52.4659 85.8972C51.9849 85.5026 51.2741 85.5725 50.8796 86.0541C50.4848 86.5355 50.5552 87.2459 51.0366 87.6404L58.0818 93.4175C58.2915 93.5894 58.5445 93.6731 58.7959 93.6731C59.1217 93.6731 59.4455 93.5325 59.6681 93.2606C60.0629 92.7792 59.9925 92.0688 59.5111 91.6743L52.4659 85.8972Z" fill="#DFE3EB"/>
<path d="M75.1817 61.9704C68.1568 61.7103 65.4511 67.1878 65.0112 70.1003L63.4613 79.5409C63.3607 80.1555 63.7766 80.7349 64.391 80.8361C64.453 80.8463 64.5144 80.8513 64.575 80.8513C65.1172 80.8513 65.5952 80.4588 65.6859 79.9064L67.2381 70.4511C67.2781 70.1868 68.3056 63.9839 75.1011 64.2232C75.7175 64.2451 76.2456 63.7593 76.2678 63.1371C76.2904 62.5148 75.804 61.9926 75.1817 61.9704Z" fill="#DFE3EB"/>
<path d="M22.5 100.883C22.5 101.505 23.0047 102.01 23.6272 102.01H89.3729C89.9954 102.01 90.5001 101.505 90.5001 100.883V12.117C90.5001 11.4945 89.9954 10.9897 89.3729 10.9897H23.6272C23.0047 10.9897 22.5 11.4945 22.5 12.117V100.883ZM44.4352 46.2481C43.8211 48.0136 43.8798 50.5045 43.9866 51.966C41.3905 52.4476 35.5447 54.7883 32.954 65.9826C32.1624 66.9715 31.018 68.0266 29.8107 69.1395C28.1049 70.7114 26.2565 72.4166 24.7548 74.4538V34.9154H41.567C41.5591 38.9503 42.3687 44.1446 44.4352 46.2481ZM88.2456 78.1238C86.0562 70.006 82.322 59.6614 77.1933 52.3067C75.6513 50.0953 72.2118 47.1335 70.364 45.5421L70.2738 45.4644C69.8812 42.9078 69.3368 38.7593 68.8504 34.9157H88.2459V78.1238H88.2456ZM52.5603 81.2674C51.1908 80.5153 49.8643 79.9178 48.6446 79.4481C48.6505 79.1809 48.6342 78.8957 48.6488 78.6694C49.1485 71.0081 53.7022 64.4986 62.183 59.3207C68.6266 55.3869 75.0237 53.7552 75.0876 53.7388C75.1826 53.7149 75.2903 53.6971 75.4024 53.6816C75.7476 54.1796 76.0872 54.6931 76.4206 55.2223C74.8146 55.5424 70.3169 56.6356 65.6093 59.5484C60.5181 62.6981 54.2946 68.6159 52.792 79.1195C52.7162 79.6504 52.5694 81.0817 52.5603 81.2674ZM56.8647 59.5782C51.3621 60.0703 46.7979 57.5607 45.0414 55.4565C45.5892 53.3158 50.0844 49.8792 53.3038 48.008C53.6786 47.7901 53.8956 47.3761 53.8612 46.9439L53.6698 44.538C53.8417 44.5527 54.0142 44.5634 54.1875 44.5674L54.4899 44.573C56.6164 44.6181 58.6818 43.8851 60.2991 42.4986L60.3101 42.489L60.834 57.5061C59.8017 58.1427 58.8205 58.8024 57.8942 59.4852C57.443 59.519 57.0535 59.5616 56.8647 59.5782ZM48.9335 29.9837C48.9306 29.9837 48.9278 29.9837 48.9256 29.9837L47.5081 29.9936L47.1414 25.3716C47.1507 25.351 47.1623 25.3308 47.1702 25.3096C47.8803 24.6443 49.5692 23.2518 51.4351 23.0743C54.8737 22.7463 59.1014 23.2375 59.7857 27.4145L60.2098 39.6061L58.832 40.7863C57.6377 41.8104 56.119 42.3537 54.537 42.3188L54.2337 42.3132C52.5271 42.2754 50.8791 41.5376 49.7127 40.2903C49.2249 39.7667 48.8295 39.1668 48.5392 38.509C48.2487 37.8473 48.0739 37.1527 48.0193 36.4411L47.6867 32.2466L48.9408 32.2382C49.5633 32.2337 50.0646 31.7259 50.0604 31.1033C50.0559 30.4834 49.5523 29.9837 48.9335 29.9837ZM68.11 46.223C68.1518 46.4859 68.2848 46.7255 68.4863 46.8996L68.8929 47.2505C70.0779 48.2709 72.1822 50.0846 73.7843 51.7591C72.0881 52.2486 67.7831 53.6298 63.0454 56.2202L62.4823 40.079C62.482 40.0728 62.4817 40.0663 62.4815 40.0601L62.0368 27.2676C62.0351 27.2234 62.0308 27.1791 62.0241 27.1352C61.3173 22.5417 57.3796 20.2452 51.2218 20.83C50.305 20.9173 49.4438 21.1966 48.6733 21.5579C49.8631 20.024 51.9122 18.5704 55.4148 18.5704C58.1092 18.5704 60.4843 19.6472 62.4744 21.7709C64.3434 23.765 65.5165 26.3326 65.8668 29.1958C66.4395 33.8752 67.492 42.3098 68.11 46.223ZM45.1338 28.573L45.7718 36.6164C45.8457 37.579 46.0821 38.5211 46.4761 39.4179C46.8692 40.3086 47.4032 41.1194 48.0649 41.8296C48.9828 42.8111 50.1213 43.5574 51.3674 44.0218L51.5588 46.4287C50.7387 46.936 49.2102 47.9229 47.6566 49.1408C47.1161 49.5647 46.6252 49.9767 46.1751 50.3794C46.159 48.8506 46.3033 47.2603 46.7816 46.5161C46.9546 46.2469 47.0053 45.9167 46.9205 45.6081C46.8357 45.2992 46.6237 45.0414 46.3377 44.8979C44.3794 43.9186 43.2209 35.3956 44.114 31.5046C44.3696 30.3904 44.7421 29.4035 45.1338 28.573ZM24.7545 99.7555V79.0273C26.0663 75.6617 28.8627 73.0789 31.3381 70.7973C32.2827 69.9271 33.1873 69.0901 33.9601 68.2574C35.1146 68.32 38.1433 68.6888 38.9754 70.8337C39.4091 72.8771 40.2391 74.6525 41.45 76.0835C41.6729 76.3467 41.9911 76.4826 42.3112 76.4826C42.5685 76.4826 42.8269 76.3949 43.0389 76.216C43.514 75.8138 43.5732 75.1026 43.1713 74.6271C38.9974 69.6946 41.7983 61.2919 41.8271 61.2074C42.0288 60.6189 41.7158 59.9784 41.1273 59.7761C40.5361 59.5734 39.897 59.8871 39.6946 60.4755C39.6611 60.5736 38.8683 62.9075 38.6674 65.964C38.6392 66.3927 38.6274 66.8128 38.6254 67.2268C37.4973 66.5713 36.2374 66.2605 35.24 66.1154C37.1361 58.3073 40.6446 55.5695 42.9461 54.6113C42.8193 54.9932 42.748 55.3649 42.7342 55.7265C42.7246 55.9739 42.7971 56.2174 42.9397 56.4197C43.9998 57.9217 45.922 59.3638 48.2134 60.3763C49.7687 61.0634 52.094 61.8096 54.9588 61.8879C49.7349 66.6466 46.805 72.3008 46.3994 78.5226C46.3963 78.5713 46.391 78.6215 46.3848 78.672C44.0567 77.9677 42.4592 77.7755 42.294 77.7575C42.048 77.7301 41.7952 77.7857 41.5819 77.9161C40.3535 78.6669 39.5264 79.8384 39.1902 81.3038C38.8807 82.6531 39.0205 84.163 39.5461 85.4667C38.4685 85.9621 37.246 86.2157 36.2799 86.3467C33.9392 82.2847 36.3349 80.2957 36.6364 80.0689C37.1352 79.7037 37.2468 79.0039 36.885 78.5012C36.5214 77.9959 35.8166 77.8818 35.3116 78.245C33.8671 79.2849 31.9767 82.1498 33.7078 86.2352C32.48 85.7533 30.5688 84.4003 30.8934 80.6666C31.0343 79.0465 31.5841 77.8477 32.5282 77.104C34.0973 75.8668 36.3312 76.1824 36.3614 76.1875C36.9715 76.2802 37.5495 75.864 37.6473 75.2508C37.7453 74.6356 37.326 74.0582 36.7114 73.9604C36.5809 73.9392 33.5097 73.4765 31.153 75.3173C29.6884 76.4614 28.8455 78.1954 28.6474 80.471C27.9956 87.9686 34.3788 88.7283 34.4431 88.7348C34.4825 88.739 38.8799 88.7196 41.6681 86.8611C41.7169 86.8286 42.8182 86.1675 42.8182 86.1675C43.0087 86.4147 43.2632 86.7331 43.5644 87.0921L39.1093 89.4342C38.7387 89.629 38.5065 90.0134 38.5065 90.4319V93.8136C38.5065 94.4361 39.0112 94.9408 39.6337 94.9408C40.2563 94.9408 40.761 94.4361 40.761 93.8136V91.1127L45.1327 88.8143C45.7141 89.4033 46.3786 90.0201 47.1127 90.6235L43.2637 91.7451C42.9284 91.8429 42.6578 92.0903 42.5299 92.4152L40.9799 96.3606C40.752 96.9403 41.0374 97.5943 41.6168 97.8218C41.7521 97.8753 41.8919 97.9001 42.0288 97.9001C42.4789 97.9001 42.9039 97.6287 43.0783 97.1849L44.4259 93.7547L49.4427 92.2929C50.2605 92.794 51.1313 93.2435 52.0517 93.5974C52.1847 93.6487 52.3214 93.673 52.4558 93.673C52.9087 93.673 53.3359 93.3979 53.5081 92.9501C53.7316 92.369 53.4419 91.7169 52.8605 91.4934C47.7763 89.5377 44.4048 84.6356 44.3721 84.5874C44.0968 84.1808 43.5906 83.9987 43.12 84.1368L41.6239 84.5767C41.2874 83.7073 41.1888 82.6765 41.388 81.8074C41.5574 81.0696 41.9127 80.4823 42.447 80.0565C44.3538 80.3679 52.6449 82.0833 58.7968 89.0634C59.0197 89.3162 59.3305 89.4452 59.6431 89.4452C59.9077 89.4452 60.1737 89.3525 60.3879 89.1637C60.8549 88.752 60.8999 88.0399 60.4882 87.5726C60.0985 87.1305 59.7 86.7123 59.2976 86.3087L67.7045 84.7827C67.9725 84.7523 71.2336 84.44 73.268 87.04C73.4903 87.3244 73.8218 87.4726 74.1566 87.4726C74.3995 87.4726 74.6441 87.3945 74.8504 87.233C75.3407 86.8492 75.4272 86.1408 75.0434 85.6507C72.141 81.9424 67.5726 82.5243 67.379 82.5513C67.3632 82.5536 67.3477 82.5561 67.3317 82.559L57.1956 84.3986C56.4008 83.7454 55.5977 83.1541 54.7965 82.6209C54.8075 82.0252 54.8134 81.3173 54.847 80.9532C54.9013 80.3639 54.971 79.7843 55.0563 79.2139C56.1985 71.5723 60.119 65.6211 66.7278 61.5069C72.0745 58.1788 77.281 57.3539 77.3689 57.3404C77.4334 57.3308 77.54 57.3173 77.6611 57.3004C83.9618 68.4358 87.886 84.2955 88.2459 89.4878V99.7547H24.7545V99.7555ZM88.2456 13.2442V32.6609H68.5669C68.395 31.2829 68.2369 30.0015 68.105 28.9219C67.6961 25.5807 66.3177 22.5749 64.1196 20.2292C61.6862 17.6323 58.7576 16.3157 55.4148 16.3157C48.1455 16.3157 45.3573 21.7163 44.8751 24.6527C44.1475 25.6002 42.6409 27.8459 41.9167 30.9994C41.8099 31.4643 41.7265 32.0288 41.6673 32.6606H24.7545V13.2439H88.2456V13.2442Z" fill="#DFE3EB"/>
</svg>
